<mxfile host="app.diagrams.net" modified="2023-01-29T03:06:27.158Z" agent="5.0 (Windows NT 10.0; Win64; x64) AppleWebKit/537.36 (KHTML, like Gecko) Chrome/109.0.0.0 Safari/537.36 Edg/109.0.1518.70" etag="jkESKjVtRjfMlw7g2Mdz" version="20.8.13" type="github">
  <diagram name="Page-1" id="at7N5YZYeV_H_FeuK1GL">
    <mxGraphModel dx="1190" dy="746" grid="1" gridSize="10" guides="1" tooltips="1" connect="1" arrows="1" fold="1" page="1" pageScale="1" pageWidth="850" pageHeight="1100" math="0" shadow="0">
      <root>
        <mxCell id="0" />
        <mxCell id="1" parent="0" />
        <mxCell id="1zaY6Ha-qX9hshtsLtst-2" value="User" style="shape=umlActor;verticalLabelPosition=bottom;verticalAlign=top;html=1;outlineConnect=0;" vertex="1" parent="1">
          <mxGeometry x="130" y="421.78" width="30" height="60" as="geometry" />
        </mxCell>
        <mxCell id="1zaY6Ha-qX9hshtsLtst-3" value="" style="shape=image;verticalLabelPosition=bottom;labelBackgroundColor=default;verticalAlign=top;aspect=fixed;imageAspect=0;image=data:image/png,iVBORw0KGgoAAAANSUhEUgAABAEAAAJbCAIAAAAaJBrkAAAAAXNSR0IArs4c6QAAAARnQU1BAACxjwv8YQUAAAAJcEhZcwAADsMAAA7DAcdvqGQAAJgTSURBVHhe7f2LkxXXlaaNf//aL74BgQEBqhICYxhKjUCAJC7CQmCaixmMoc0IMRKG4RJE0GBGOHoaqhHCUquaEW1MNw26lBu7YDQawiCooIaLYKpcBKXfq1rp/FKnbmtn5qnMPOd5gqjYmbnXzp1v7ct6z6X4f/4nAAAA/M//+f/7yf+JSgAAjQ4eAAAA4DvwAADQPOABAAAAvgMPAADNAx4AAADgO/AAANA8fOcBvgUAAGh65AGiEgBAo5PVA/yf/5N+xaxi7P/+3/87KoWDVn7Qyg9a+UErP82pVToP0JxapQOt/KCVH7Tyk7wvHiAMxqgftPKDVn7Qyg9a+TGt8AAeGFd+0MoPWvnJSys8QBiMUT9o5Qet/KCVH7TyY1rhATwwrvyglR+08pOXVniAMBijftDKD1r5QSs/aOXHtMIDeGBc+UErP2jlJy+t8ABhMEb9oJUftPKDVn7Qyo9phQfwwLjyg1Z+0MpPXlrhAcJgjPpBKz9o5Qet/KCVH9MKD+CBceUHrfyglZ+8tMIDhMEY9YNWftDKD1r5QSs/phUewAPjyg9a+UErP3lphQcIgzHqB638oJUftPKDVn5MKzyAB8aVH7Tyg1Z+8tIKDxAGY9QPWvlBKz9o5Qet/JhWeAAPjCs/aOUHrfzkpRUeIAzGqB+08oNWftDKD1r5Ma3wAB4YV37Qyg9a+clLKzxAGIxRP2jlB638oJUftPJjWuEBPDCu/KCVH7Tyk5dWeIAwGKN+0MoPWvlBKz9o5ce0wgN4YFz5QSs/aOUnL63wAGEwRv2glR+08oNWftDKj2mFB/DAuPKDVn7Qyk9eWuEBwmCM+kErP2jlB638oJUf0woP4IFx5Qet/KCVn7y0wgOEwRj1g1Z+0MoPWvlBKz+mFR7AA+PKD1r5QSs/eWmFBwiDMeoHrfyglR+08oNWfkwrPIAHxpUftPKDVn7y0goPEAZj1A9a+UErP2jlB638mFZ4AA+MKz9o5Qet/OSlFR4gDMaoH7Tyg1Z+0MoPWvkxrfAAHhhXftDKD1r5yUsrPEAYjFE/aOUHrfyglR+08mNa4QE8MK78oJUftPKTl1aRB9Ap8CDdoxKMBVr5QSs/aOUHrfyYVvIAMCaMKz9o5Qet/OSlFe8DhCHdo1I4aOUHrfyglR+08tOcWvE+gAfGlR+08oNWfvLSCg8QBmPUD1r5QSs/aOUHrfyYVngAD4wrP2jlB6385KUVHiAMxqgftPKDVn7Qyg9a+TGt8AAeGFd+0MoPWvnJSys8QBiMUT9o5Qet/KCVH7TyY1rhATwwrvyglR+08pOXVniAMBijftDKD1r5QSs/aOXHtMIDeGBc+UErP2jlJy+t8ABhMEb9oJUftPKDVn7Qyo9phQfwwLjyg1Z+0MpPXlrhAcJgjPpBKz9o5Qet/KCVH9MKD+CBceUHrfyglZ+8tMIDhMEY9YNWftDKD1r5QSs/phUewAPjyg9a+UErP3lphQcIgzHqB638oJUftPKDVn5MKzyAB8aVH7Tyg1Z+8tIKDxAGY9QPWvlBKz9o5Qet/JhWeAAPjCs/aOUHrfzkpRUeIAzGqB+08oNWftDKD1r5Ma3wAB4YV37Qyg9a+clLKzxAGIxRP2jlB638oJUftPJjWuEBPDCu/KCVH7Tyk5dWeIAwGKN+0MoPWvlBKz9o5ce0wgN4YFz5QSs/aOUnL63wAGEwRv2glR+08oNWfjJq9R+aD3mAqAQAgdi6YQtICljb/eSlFR4gDMaoH7Tyg1Z+0MpPRq1sU28q0r0PAAB4gFDKoBUeIAzGqB+08oNWftDKT0at8AAA4AQPEEoZtMIDhMEY9YNWftDKD1r5yagVHgAAnOABQimDVniAMBijftDKD1r5QSs/GbXCAwCAEzxAKGXQCg8QBmPUD1r5QSs/aOUno1Z4AABwggcIpQxaRR5Ap8CDdI9KMBZo5Qet/KCVn4xa4QEAwImWi2jhSAtru5+8tOJ9gDCke1QKB638oJUftPKDVn50XzwAADjhfYBQyqAVHiAMxqgftPKDVn7Qyk9GrfAAAOAEDxBKGbTCA4TBGPWDVn7Qyg9a+cmoFR4AAJzgAUIpg1Z4gDAYo37Qyg9a+UErPxm1wgMAgBM8QChl0AoPEAZj1A9a+UErP2jlJ6NWeAAAcIIHCKUMWuEBwmCM+kErP2jlB638ZNQKDwAATvAAoZRBKzxAGIxRP2jlB638oJWfjFrhAQDACR4glDJohQcIgzHqB638oJUftPKTUSs8AAA4wQOEUgat8ABhMEb9oJUftPKDVn4yaoUHAAAneIBQyqAVHiAMxqgftPKDVn7Qyk9GrfAAAOAEDxBKGbTCA4TBGPWDVn7Qyg9a+cmoFR4AAJzgAUIpg1Z4gDAYo37Qyg9a+UErPxm1wgMAgBM8QChl0AoPEAZj1A9a+UErP2jlJ6NWeAAAcIIHCKUMWuEBwmCM+kErP2jlB638ZNQKDwAATvAAoZRBKzxAGIxRP2jlB638oJWfjFrhAQDACR4glDJohQcIgzHqB638oJUftPKTUSs8AAA4wQOEUgat8ABhMEb9oJUftPKDVn4yaoUHAAAneIBQyqAVHiAMxqgftPKDVn7Qyk9GrfAAAOAEDxBKGbTCA4TBGPWDVn7Qyg9a+cmoFR4AAJzgAUIpg1aRB9Ap8CDdoxKMBVr5QSs/aOUno1b18ABqs8zIA0QlgEYkmod1QI1HC0daWNv95KUV7wOEId2jUjho5Qet/KCVH7Tyo/vWI2OoaxaSHd4HgAam3h5APwtcr6JSOFWMzUsrPEAYjFE/aOUHrfyglZ+MWuEBABoJPMCwVDE2L63wAGEwRv2glR+08oNWfjJqhQcAaCTwAMNSxdi8tMIDhMEY9YNWftDKD1r5yagVHgCgkcADDEsVY/PSCg8QBmPUD1r5QSs/aOUno1Z4AIBGAg8wLFWMzUsrPEAYjFE/aOUHrfyglZ+MWuEBABoJPMCwVDE2L63wAGEwRv2glR+08oNWfjJqhQcAaCTwAMNSxdi8tMIDhMEY9YNWftDKD1r5yagVHgCgkcADDEsVY/PSCg/w3cAFgEKIJmEI7BN+8ACh4AGgganr7LPGC1yvolI4VYzFA+QWW/I9CaBRSTf12Cf84AFCwQNAA1PX2WeNF7heRaVwqhiLB8gttuR7EkCjkm7qsU/4wQOEggeABqaus88aL3C9ikrhVDEWD5BbbMn3JIBGJd3UY5/wgwcIBQ8ADUxdZ581XuB6FZXCqWIsHiC32JLvSQCNSrqpxz7hBw8QCh4AGpi6zj5rvMD1KiqFU8VYPEBusSXfkwAalXRTj33CDx4gFDwANDB1nX3WeIHrVVQKp4qxeIDcYku+JwE0KummHvuEHzxAKM3gAT766CP9FjZv3tzf3x+d+vbbb7755pVXXtm0aVN0DI1IXWefNV7gehWVwqliLB4gt9iS70kAjUq6qcc+4QcPEEqTeIApg5w+fTo6hQdoDuo6+6zxAterqBROFWPxALnFlnxPAmhU0k099gk/eIBQmsQDzJkzZ/PmzfPnz79586adrPEAT58+vXz58q5du7Zu3XrixImHDx/aeSUM58+f1+GpU6d0ST97e3t1eOTIkW3btn388ccKtJriT3/60969e1Xt8OHDt2/fjs5CcdR19lnjBa5XUSmcKsbiAXKLLfmeBNCopJt67BN+8AChNI8H6OzsbGtr+8UvfjEwMKCTSQ/w5MkTJfQzZsyQB5ABWLhwYewWFNva2vr666+/9dZbO3bsmDJlilL8lStX7t+/3w6PHz/+3T2+/fbs2bPPPvvsxo0bT548qZ9q7eLFi3YJiqKus88aL3C9ikrhVDEWD5BbbMn3JIBGJd3UY5/wgwcIpXk8wO3bt1WYOXOmpeZJD/D111+r/Pd///eD1b/96quvZs2aZcm9QiZNmhR/iEh5/9SpU60FOYe1g6jQ09Pz4osvvvPOO2Yw9HP79u2yCr29vYNxUAx1nX3WeIHrVVQKp4qxOXsAnWpaSr4nATQqmnrRJAxBa19UgrHIqFU91saSr7dN5QH6+/s3b968bNmyBw8eDPt9gL6+PlXr7Ox84YUXDh48qDOKnT17dvwJIp1csGDB3bt37VDhakRNXblypbW1NfnCvwJlJGQnomMogrrOvnTreRLWdj95acX7AGXfkwAalXRTL6/XP0KpYmxGreqxNpZ8vW0qD6DyjRs3fvSjHx0+fDjpAQYGBn71q1/NnDlzypQpyviVu0+cODH2AHGs0ElL+u0w9gCqpl90Dc8+++xnn31mNaEQ9FuISnXAGi9wvYpK4VQxNi+t8AB4AIBiSDf12Cf84AFCaTYPIE6ePPn8889fuXJl+fLl5gEuXLgwbdo0nbcv+Kqm6gd5gI6OjhkzZpDxl426zj5rvMD1KiqFU8VYPEBusSXfkwAalXRTj33CDx4glCb0AL29vasHWbt2rXkAZfbJClevXp05c2aQB+jq6mppaWlvb7fz4s9//nPyvyOAQqjr7LPGC1yvolI4VYzFA+QWW/I9CaBRSTf12Cf84AFCaUIPIL744ovnnnvumWeeMQ+g3H3GjBmXL19W+ebNm+vWrZs1a9bu3bt16PQAT548Wb9+/bx587788kudf/jw4YYNG1atWvX48WOrCYVQ19lnjRe4XkWlcKoYiwfILbbkexJAo5Ju6rFP+MEDhNKcHmBgYODAgQP61ZgHePDggfJ1HYq5c+d+/vnnO3funDRp0rZt25weQGWNH9mAiRMnqpEJEyYsW7Ys/iYxFIV+F1GpDljjBa5XUSmcKsbiAXKLreusAICRSDf12Cf84AFCaQYP4OT+/fs9PT32xz1TY39ZSD+jYyiUus4+a7zA9SoqhVPFWDxAbrEl35MAGpV0U499wg8eIBQ8ADQwdZ191niB61VUCqeKsXiA3GJLvicBNCrpph77hB88QCh4AGhg6jr7rPEC16uoFE4VY/EAucWWfE8CaFTSTT32CT94gFDwANDA1HX2WeMFrldRKZwqxuIBcost+Z4E0Kikm3rsE37wAKHgAaCBqevss8YLXK+iUjhVjMUD5BZb8j0JoFFJN/XYJ/zgAULBA0ADU9fZZ40XuF5FpXCqGIsHyC225HsSQKOSbuqxT/jBA4SCB4AGpq6zzxovcL2KSuFUMRYPkFtsyfckgEYl3dRjn/CDBwgFDwANTF1nnzVe4HoVlcKpYiweILfYku9JAI1KuqnHPuEHDxAKHgAamLrOPmu8wPUqKoVTxVg8QG6xJd+TABqVdFOPfcIPHiAUPAA0MHWdfdZ4getVVAqnirF4gNxiS74nATQq6aYe+4QfPEAoeABoYOo6+6zxAterqBROFWPxALnFlnxPAmhU0k099gk/eIBQ8ADQwNR19lnjBa5XUSmcKsbiAXKLLfmeBNCopJt67BN+8ACh4AGgganr7LPGC1yvolI4VYzFA+QWW/I9CaBRSTf12Cf84AFCwQNAA1PX2WeNF7heRaVwqhibswdQc01LyfckgEZFUy+ahCHcvn07KsFYZNSqHmtjyddbPAA0MHWdfenW8ySs7X7y0or3Aeo+KwAamGigpyJduJatqBROA6xXQWTUKuPvd1gGR015kQeISgCNSDQP64A1XuB6FZXCqWJsXlrhAeruAaISQMORcXinC2ef8FNCD1ByeB8AIB22XBS4XkWlcKoYiwfILbau+1wTbqLQPGQc3unC2Sf84AFCwQMApMOWiwLXq6gUThVj8QC5xdZ1n2vCTRSah4zDO104+4QfPEAoeACAdNhyUeB6FZXCqWIsHiC32Lruc024iULzkHF4pwtnn/CDBwgFDwCQDlsuClyvolI4VYzFA+QWW9d9rgk3UWgeMg7vdOHsE37wAKHgAQDSYctFgetVVAqnirF4gNxi67rPNeEmCs1DxuGdLpx9wg8eIBQ8AEA6bLkocL2KSuFUMRYPkFtsXfe5JtxEoXnIOLzThbNP+MEDhIIHAEiHLRcFrldRKZwqxuIBcout6z7XhJsoNA8Zh3e6cPYJP3iAUPAAAOmw5aLA9SoqhVPFWDxAbrF13eeacBOF5iHj8E4Xzj7hBw8QCh4AIB22XBS4XkWlcKoYiwfILbau+1wTbqLQPGQc3unC2Sf84AFCwQMApMOWiwLXq6gUThVj8QC5xdZ1n2vCTRSah4zDO104+4QfPEAoeACAdNhyUeB6FZXCqWIsHiC32Lruc024iULzkHF4pwtnn/CDBwgFDwCQDlsuClyvolI4VYzFA+QWW9d9rgk3UWgeMg7vdOHsE37wAKHgAQDSYctFgetVVAqnirF4gNxi67rPNeEmCs1DxuGdLpx9wg8eIBQ8AEA6bLkocL2KSuFUMRYPkFtsXfe5JtxEoXnIOLzThbNP+MEDhIIHAEiHLRcFrldRKZwqxuIBcout6z5Xwk30o48+Uq+GMmfOnNu3b0eVRqBrkOgAmh4Nm6iUinTh7BN+8ACh4AEA0mHLRYHrVVQKp4qxeIDcYuu6z5VwE5UHePbZZ8+dO6eMP0l3d/fTp0+jSiOwZcuWgwcPRgfQ9GQc3unC2Sf84AFCwQMApMOWiwLXq6gUThVj8QC5xdZ1nyvhJmoe4LPPPouOv09fX5/swY0bN65du7Zr165t27Z9/PHH8ga9vb1nz56dP3/+hg0bOjo6dKjKjx49Onny5NatW1VTDQ4MDFgjlwe5fv36jh07Ojs77aSwxnUpOh7k6tWrOqlLKn/55ZfvvvuuGtRPla2C7qU7Jt9/UAsXLlx48uSJfpXq3p07d957771Dhw5ZIzEKibsqVPnDDz+8deuWHQ57L9Hf3y+J9ODq/Pnz52NfNPhM/99DPXjwQI3LOOmkzggVYgWkzPvvvz+0EU03HT58+PDUqVO6tX6qezo8cuRILLXVVFN//OMfJayqnThxQnXsfKnIOLzThbNP+MEDhIIHAEiHLRcFrldRKZwqxubsAXSqaanrPlfCTXR0D/DNN9+88sorq1evfvXVV5WY/qf/9J+mTJly+PDh+/fvK52dOnXqSy+99Pbbb+tQPqGtrW3hwoXKUPft2zdz5kwl05YEHzx48MUXX9Sl119/XZmxtWzs2bNn0aJF9+7ds0O73fbt2xX4wQcf6F4bN26Ur9BPlXVGdW7fvj1nzpzk+w+bNm1SlGLt0rp16+bNm/fLX/7y8ePHUY1BFJL8gJMeWQ+ux1fZRNBd1HmFx/dSZr9q1SpF6dmFCqpjLqLmoezW69evV/1jx46tWbNGjVjjN2/elFmSODovZWbMmKH8Xo7F7tva2qoW3nrrLempEKX4K1eu3L9/vx0eP35c1aSGNFcPdVJqrFixYu7cubIfulQqMg5vhUeTMAStfVEJxiKjViVcvuoNHgAgHenW8ySs7X7y0or3AeqbppdwE7X0d+hngZRS66ol5UrTe3p6dKhkdMOGDcuXL1d6rTrKeuNcfOfOnXE1oQaff/75q1evqqw6kyZN0hm7lOTSpUvKieNLystnzZqlk93d3cqb33nnHXMR+iljsHjxYiXlNfcVNR5AOXT8Yn+SUTyAWtBz2b1Ee3u78nWl6bIEs2fPjt8W0OPooay3NQ9lt5Z/6O/v16E6s3Tp0i1btqisOlImTtmVxLe0tNj7GLq7Gjl9+rRdMlt18eJFlXX3tYOocO3aNcmiQKump9MzmlOyMyUh4/BOF57X6x+hVDE2o1YlXL7qDR4AIB22XBS4XkWlcKoYm5dWeIBm9ADq1VAsyTYPsHv3bqssdD6ZcMfVlPImq9lVS1tVZ8GCBXfv3rVLSSyd3bx5s6Wze/bsscaVB8+cOdOyYUP9lFvo7OxM3teo8QD22vlQFKKrqmOHSQ8gA6Mku6OjI/nxIXVJxsCycDuTVKPmoZLPa6hXIjoY5P79+6r23//7f9d97Y0X3V0e4+bNm1ahps34uc6ePavuffXVV3ZeqGby/ZOSoGETlVKRLpx9wk8JPcB3a02JkQeISgCNSDQP64A1XuB6FZXCqWIsHiC32HGYFaVCaWickg7Fst5kwq1yMuG2S1b+bkX5PnY1DhlsoJb29nblwRrBDx48WLx48dGjR3VyaK/iM8n7GnGubJcsrR+KQnRVdeww6QEePXr0i1/8YvLkyRMnTlRu/cEHHzx9+tSePXqSBJbZ1zzU0Ft/5wAGa+q5Nm7cqMafe+45Pal+Jj1Asks1bSrcDnU+uneCZGBJUK+iUirShbNP+CmnB4hKpYT3AaCBqevss8YLXK+iUjhVjMUD5BY7DrOiVMS5dXT8fSwPTibccZ5qWa9d6u7unjt3brJakjgkOv4+9rGf48ePX7p0SQUbykN7FZ9J3teIc+WhiXgShSTz5qQHMPr7+//whz/YB/FlCWQMli9fbnn8UGoeauitv3MAg7E7d+6UOPGXmJOPpnKySzVtKtwODx8+nKxWWjIO73Th7BN+8ACh4AGgganr7LPGC1yvolI4VYzFA+QWOw6zolQkU9KhKAFVGppMuOM81bJeu9TX17d69er169fHH5t5+vRp/JXcmtR2KEq7V65cqbQ7bkEZc0tLS/KjNTIJ9nmYGr9hn5tPdimZiCepyaQvXrwYf21XXbXP8Rv79+9/8cUXe3p61DH7EoKdHxgYGOmhht7aPIAJqEJ09ttvjx49GuoBzp8/P2PGDHkkOy/UjfhPBpWHjMM7XTj7hB88QCh4AGhg6jr7rPEC16uoFE4VY/EAucWOw6woFeYBzg35TrBQZm8pbJxwizhPvXv37oIFC3bt2qVkVLS3tyulPn36tBJlHZ44ceKFF174/e9/nwyxFoZi3wyePn16/BVbZeTr1q1bunSp/Xa+/PLLefPm2Z/TMb9hl3Sv999/X97A2lefR/EAyqTVQ/VTUYpds2bN5MmTVdk+g7Rlyxb7JrF+KvnWLXQjdUziHDhwQE+kKHVP9/r4449VzekB1GEZm2XLluku1oKi4q86OD2A9fC1114zNW7evKkGt2/frl5ZzZKQcXinC2ef8IMHCAUPAA1MXWefNV7gehWVwqliLB4gt9hxmBWlQmmoejUsuqQEVGnosB5AGe3OnTsnTJhgr2orH7VXuC22tbW1o6OjJsQOh2LfDK75kuudO3eUpj/zzDNqc+LEiRs2bIhfj//kk0/kGXQX3V3GYN++fdb+6B5AFZSOK0SBLS0tln9b5c7Ozvnz5w92/DviP+OjZ/zHf/xHPYudV09+9atf6aQuOT2ACp9++qlup3DdWh3QFFu4cOEPfvAD+QHrw5geQOUbN24o77fO16hRHtS3qJSKdOHsE37wAKHgAaCBqevss8YLXK+iUjhVjMUD5BY7DrOikbh//37yb+nICXR3d+tkdOzDPMCePXui4wRqXA0mP6hj2I2St3ailLqnp8fy+Bp0Sen40DZVWSEjRXmw3sbJfWrUwrBqlISMwztdOPuEHzxAKHgAaGDqOvus8QLXq6gUThVj8QC5xY7DrIAkSqzb29vnzp2bZRBDGcg4vNOFs0/4wQOEggeABqaus88aL3C9ikrhVDEWD5Bb7DjMCog5fvx4a2vrtGnTzp49G52CypJxeKcLZ5/wgwcIBQ8ADUxdZ581XuB6FZXCqWIsHiC32HGYFRDT09Nz4cKFEn60HVKQcXinC2ef8IMHCAUPAA1MXWefNV7gehWVwqliLB4gt9hxmBUADUnG4Z0unH3CDx4gFDwANDB1nX3WeIHrVVQKp4qxeIDcYsdhVgA0JBmHd7pw9gk/eIBQ8ADQwNR19lnjBa5XUSmcKsbiAXKLHYdZAdCQZBze6cLZJ/zgAULBA0ADU9fZZ40XuF5FpXCqGIsHyC12HGYFQEOScXinC2ef8IMHCAUPAA1MXWefNV7gehWVwqliLB4gt9hxmBUADUnG4Z0unH3CDx4gFDwANDB1nX3WeIHrVVQKp4qxeIDcYsdhVgA0JBmHd7pw9gk/eIBQsnuAbwb/q3U95lCS///6sPT29l64cEE/o2OAXNEgjEp1wBovcL2KSuFUMRYPkFvsOMwKgIYk4/BOF84+4QcPEEpeHmDdunW3hzDmfxze2dm5cOFC1YyOAXKlrrPPGi9wvYpK4VQxFg+QW+w4zAqAhiTj8E4Xzj7hBw8QSl4eYNOmTdHxELTnnj9//uHDh6dOndq6devevXst6e/q6tq1a9fMmTPfe+89lXVmYGDgj3/8o06q2okTJxQy2MB3v5qPP/74zp07qnno0KG+vj47L9T4hx9+mBwzjx49UmXb6Ht7e8+cObNtEBXiNxx0u46OjvhQ4Wrk1q1bKl8e5Pr16zt27JBFsQqG6ivKumqo5oULF548eaLySPcSf/rTn/TUeqjDhw/HhmfoQ33++eeXLl26f//+kSNHVFk/YwWkjLr07rvv1jSiqHPnzt24cePatWvSTaigyuqY+h9LbUiZkydPqgVV++yzz1QtutC41HX2WePJsRcKa7ufnD2ATjUt4zArABqSjMNb4dEkDEFrX1SCscioVT2Wr5IviePgAT766KPW1tY333zT8tr5g9y8eVP59EsvvTR16tQNGzaorJRU2e2zzz6r5FWp6ooVK+bOnavEVy0okZ0zZ866devmzZv3y1/+8vHjx9ay0G989uzZqh8dD96upaXl6tWrDx48WL58uQJ1U6GCDu2/azx48KAO4/xYCbHuq0C79OKLLy5cuPD1119XJm0VDOtG8gNOemo9uxQQ6rCeS1f379+fvNfZs2fV+MaNG9VJ/ZwxY8bFixd1fuhDKbatrW3lypXK0dXIrFmz1KZaVmUpM23aNAn4d3/3dzr53HPPffHFFzqvq+qA7rV69WrVUbelxn/+z/9Zah87dkytie7ubtWUT1BZFWSu9u3bJ+slR9HwNqCusy/dep6Etd1PXlrxPkDdZ0VUAmg4Mg7vdOFa+6JSOA2wXgWRUat6LF8lXxLr91kgpZ5Pnz5VBeXWEyZMiNP0K1euTJ8+XUm/yslc/Nq1a8p642q9vb3Khrdv3648VRVUTYfJF9eNJ0+erF+/Pr6kyps3b9YZnT969Kga/PLLL62mXIG8QXt7u8rJ+4oaDzBp0qRz587ZpSTWDVWIjhMeQC0o+daj2XnVfPvtt/VEPT09chTvvPOOZdv6qSey3g59KLUsR2QOQcg8yDB0dnbKHuiJlLLb+Xv37i1atEhOSWUTf9myZeY3urq69Iz6XfT39+tQTSnXtwZ37typKPVHZaEHfP7556WJHTYqdZ191niB61VUCqeKsXlphQcYj1kB0JBkHN7pwtkn/OABQqnfd4LjJFu5tXLxr776yupb7hsn3HE1pbzJakJXlbYq5bWQ48ePRxe+j9LZ5557Tlm4yhoAysXVuDzA2kHsgzrC+rllyxaVk/cVNR5gwYIFd+/etUtJrBuqEB0nPIDSfaXUW7du/frrr5MvrssVtLa2xmm9iNUY+lDx89qh+Qp7LkOZvZyVXM3LL79sb7zYQ+3fv98q1LQZP5eqLV26dPfu3XZeWM3k+ycNicZhVKoD1niB61VUCqeKsXiA3GLrPSsAGphooKciXTj7hB88QCjj81mgZMJt2WeccMeXVP5ugn0fu5oMGcqDBw8WL168Z88eldvb25XBK1Ee2qvkmeR9RY0HsLTeLiWxbqhCdJzwACpfuHBh/vz56vPMmTN//vOf37x5UyfVpj1IEt1Ldxz6UDW3TnqAjo6OF154YfLkyTojVEh6gLhLNW3Gz2Xno9snSD5LQ6JnjEp1wBovcL2KSuFUMRYPkFtsXWcFAIxEuqnHPuEHDxBKeTzA4cOHk9WSJEOG5ejRo0r9VW39+vVmBob2KnkmeV+Riwcwenp63n///YULF7a0tPzhD39Q7j5jxgzL42sY+lA1t449gL3JsHfvXvuET/JBrBx3qabN+LlkiubOnZvseZNQ19lnjRe4XkWlcKoYiwfILbbkexJAo5Ju6rFP+MEDhFIeD3D+/Hmly5cuXRqs9R2PHz+2bxQMTZdr6OrqmjVr1t/+7d/+6Ec/ilvYsWNH8qM1d+/elU+wz8PU+I2LFy9OmTIl7lJNWh9Tk0nbx42ssvqZDLl586bS91//+tf2AX37EoLx5z//2VL5oQ9Vc+vYA6iOvXVg59WN+fPnB3mAvr6+1atX29ck7JI6nPxqdaNS19lnjRe4XkWlcKoYiwfILbbkexJAo5Ju6rFP+MEDhFK/7wSLnp6egYEB5aDJhFuFOE89fvx4a2urNmXlpvaRntdee80GgNLoZcuWbd++XdlqMmRYFK4Ed/r06cmv2Cqzl6lQ/q0+qJEDBw7Ef05HfkNJv13S7dasWTN58mRrfxQPYJn00qVLFaLA999/X8bDKqspNR7bj3/5l3/Roe5iHZs3b559Nfnhw4cbNmxYtWqV8u+hDzWSB1CzepDTp0/rpFqQt1GgfdXB6QFUVg/1yGrE1Dhx4sQLL7zw+9//3mo2KnWdfdZ4getVVAqnirF4gNxiS74nATQq6aYe+4QfPEAo9ftOsLCMVjmoEtNhPYC9fq+a9qr2jRs3lPdPmDBBZyZOnKh02f7czZgeQJw7d27SpEnJL7kq2VXKq+z5Bz/4gVJ8mQ37Y0RCvVJqbjdqaWmxHlr7o3gA8cknn6hBRSl227Zt+/bts8r9/f27d+/WXXRJKNs+dOiQvd6vcaV76XEsSg9oXxXwewC1o3tZb3V3PcV7772nh/3xj3+sRhTi8QDK+48eParDwQ7+h6QaDYyeNCrVAWu8wPUqKoVTxVg8QG6xdZ0VADAS6aYe+4QfPEAo2T1ARpTgSnnl69HxYILe3d1tCbQfeYC5c+cOHQBquaen5/79+9FxAt3I3qmIjn0omVb3kv9PWYxdGrZN1VeCPmyUE5NFt4iOU2E9HFaNhqSus88aL3C9ikrhVDEWD5BbbMn3JIBGJd3UY5/wgwcIpXAPkAv63S1dutS+DQwQU9fZZ40XuF5FpXCqGIsHyC225HsSQKOSbuqxT/jBA4RSdQ/Q3d2t7H/KlCmrVq2yDw4BxNR19lnjBa5XUSmcKsbiAXKLLfmeBNCopJt67BN+8AChVN0DPH369LPPPuvq6sr4IRloSOo6+6zxAterqBROFWPxALnFlnxPAmhU0k099gk/eIBQGuOzQADDUtfZZ40XuF5FpXCqGIsHyC225HsSQKOSbuqxT/jBA4SCB4AGpq6zzxovcL2KSuFUMRYPkFtsyfckgEYl3dRjn/CDBwgFDwANTF1nnzVe4HoVlcKpYiweILfYku9JAI1KuqnHPuEHDxAKHgAamLrOPmu8wPUqKoVTxVg8QG6xJd+TABqVdFOPfcIPHiAUPAA0MHWdfdZ4getVVAqnirF4gNxiS74nATQq6aYe+4QfPEAoeABoYOo6+6zxAterqBROFWPxALnF1ntWADQw0UBPRbpw9gk/eIBQ8ADQwNR19lnjBa5XUSmcKsbiAXKLHYdZAdCQZBze6cLZJ/zgAULBA0ADU9fZZ40XuF5FpXCqGJuzB9CppmUcZgVAQ5JxeCs8moQhaO2LSjAWGbWqx/JV8iURDwANTF1nX7r1PAlru5+8tOJ9gLrPiqgE0HBkHN7pwvN6/SOUKsZm1Koey1fJl0Q8ADQwdZ191niB61VUCqeKsXlphQcYj1kB0JBkHN7pwtkn/OABQsEDQANT19lnjRe4XkWlcKoYiwfILXYcZgVAQ5JxeKcLZ5/wU04PUGbkAaISQCMSzcM6YI0XuF5FpXCqGIsHyC12HGYFQEOScXinC2ef8FNCD1ByeB8AIB22XBS4XkWlcKoYiwfILbau+1wTbqLQPGQc3unC2Sf84AFCwQMApMOWiwLXq6gUThVj8QC5xdZ1n2vCTRSah4zDO104+4QfPEAoeACAdNhyUeB6FZXCqWIsHiC32Lruc024iULzkHF4pwtnn/CDBwgFDwCQDlsuClyvolI4VYzFA+QWW9d9rgk3UWgeMg7vdOHsE37wAKHgAQDSYctFgetVVAqnirF4gNxi67rPNeEmCs1DxuGdLpx9wg8eIBQ8AEA6bLkocL2KSuFUMRYPkFtsXfe5JtxEoXnIOLzThbNP+MEDhIIHAEiHLRcFrldRKZwqxuIBcout6z7XhJsoNA8Zh3e6cPYJP3iAUPAAAOmw5aLA9SoqhVPFWDxAbrF13eeacBOF5iHj8E4Xzj7hBw8QCh4AIB22XBS4XkWlcKoYiwfILbau+1wTbqKQL/fv33/77bc7Ozuj4zKRcXinC2ef8IMHCAUPAJAOWy4KXK+iUjhVjMUD5BZb132unJvoN99888orr6hvQzl48GBUaQR6e3svXLign9Ex1Jnbt2/PmTPno48+io7LhAZMVEpFunD2CT94gFDwAADpsOWiwPUqKoVTxVg8QG6xdd3nyrmJmgdYt26d8ssadCmqNAKdnZ0LFy5UzegY6oykxgMkYZ/wgwcIBQ8AkA5bLgpcr6JSOFWMxQPkFlvXfa6cm6h5gE2bNkXHQ/j8888vXbp0//79I0eObN26VT8fPnyo811dXbt27Zo5c+Z7772nss4MDAz88Y9/1ElVO3HihFWzmhcuXLh58+bu3bs7OjrspKHGdSb5TsLdu3eV4965c0dltaB21NqOHTvOnz//9OlTq3P58mU1+OTJEzu8devWhx9+qF+l2lFrutFvfvObt99+W322CoZdvXHjxrVr19TJmjZVULNDOy9G6sbQ8+rDxx9/rEewCjpUx0wcYR2wWTbKo4nr16/rvH3mR3n/3r17VfPUqVNfffUVHiAJ+4QfPEAoeACAdNhyUeB6FZXCqWIsHiC32Lruc+XcRMf0AAcPHmxra1u5cqXy4/3798+aNWvFihWKUjr70ksvTZ06dcOGDSrLABw+fPjZZ59V8nry5EnVmTt3rnJZtaCcdfbs2bqLOHPmjDVryF20tLRcvHgxOh683fz587u7u5Wsz5s3b+HChcqV9+3bN2PGDOXB/f39qqPeqqn4bQq1r/t+9tln9iyrV6/Wrbdt29bT02MVDHsRfcmSJYsWLVJWvW7dukmTJqnPuiQ7ofq6hZ5Rt9NN1Qd5CV3ST5VffvnlY8eO6WrcjWHPq9tq/Pjx44M3/FY66BYSxA6vXLkiHdTPUR5Nj//iiy/q0uuvvy4zYDXVpppSO2+++WZrayseIIZ9wg8eIBQ8AEA6bLkocL2KSuFUMRYPkFtsXfe5cm6iljcP/SyQ0ll7cVpZqRL9OE0/e/asclZ7iVqXlFWrssrXrl2TPVCqOljru9e8ZRu2b98ub6CcVc9+9OhRu5TkwYMHixcvtmo6tM7s2bNHhzqp3DfO48+dO6f7yjOoPLoHMAthl5Kon+pt3KbdYsGCBXfv3v36668V+Pd///dW86uvvtKzWCpvBsb8gOjq6tq9e7faH+m8MnWZIjUuNm/eLGHV8r1791RHDeruGnKjPJoklW3QGbskKZKPIw2lJB4ghn3CDx4gFDwAQDpsuShwvYpK4VQxFg+QW2xd97lybqKWN6tvNcTJvbJSJayWxQql2vZitl2Kq8kbKG9W9jxY6zviQOWsLS0t8UdialBeq0Zu3bqlsvJgNaLGFaVYZdVWR1gGby/bj+4B4tfda7AWklfjwOj422/7+vpUTQ7nhRdeUP915sKFC9OmTfuv//W/1ryrMNJ5tdnW1iZfoUdQZ95///2XX35Zz/7kyZO1a9fqiUZ/NN3UbInKFiLiTz2pq+owHiCGfcJPCT3AdwtNiZEHiEoAjUg0D+uANV7gehWVwqlibM4eQKealnGYFWXD8ubRPwuUTLiVhg7rAVT+blH5PnZVOWtcbSgavmqwvb1d5T179qxcubK3t9fSYsvCjeSZ0T1AMirJ0DbjwIGBgV/96lczZ86cMmWKOiMfMnHiRKupS6dPn25tbdXjyBi8++679lWBkc7LBc2fP//KlStqdsmSJbqpkviTJ092d3fr/Pnz50d/NP2MH23or8beoGhUDxBNwhA0eKISjEVGrTL+foelHm3mCO8DQANT19mXbj1PwtruJy+teB+g7rMiKpWJoYlmDcmsVIzkAQ4fPhyXaxjdAyiZ3r59++rVq5UlK2k2MzB6opy7B7AX9ZWp28efhtZUJ7/++uvjx4/rfFtbW/zhnKHn+/r69Cw6I+xDQWpny5YtFy9eXLBgwa1bt0Z/NP2MH23or0Zd5X2AJFr7olI4DbBeBZFRq3osX+VcEmPwANDA1HX2WeMFrldRKZwqxualFR5gPGZF2RiaaNaQzErFSB7g/Pnz8YfajcePH1tKPboHEIp9/vnnjx07Nn/+fBvNlkknPwbT1dXV0tJi3zdQSp3skk76PcDmzZuVl9sZBdrnl5IPIq5evTpz5kxrp7+/Xw9i58WVK1fUDXmGkc6rrMB169a9+eabsgE6VPavXv2X//Jf7HFGfzTFxo+mfspFJJ/03LlzkyZNwgPEsE/4wQOEggeABqaus88aL3C9ikrhVDEWD5Bb7DjMirJhefOw/z9AT0+PvYydTEOTHkA5bmtrq4aN0ln7du9rr71mkt68eXPZsmXbt2+XDRjTA1js9OnTVT+ZoMtU/Mu//IvKvb29yvvlEOw7uLqvkn679OWXXyr2ueeec3oAddiMivq5dOnSNWvWKClvb2/XvS5fvqzzuoXUkDewj+zv2bNn3rx5uovK6ptq6pKy9pHO61BJ/9xBZAx0eOvWrba2Nt3XLIEY5dFq1FazU6ZMOX36tG7R3d0t84AHSMI+4QcPEAoeABqYus4+a7zA9SoqhVPFWDxAbrHjMCvKhuXN6ttQLBkdxQMo5VXiq5r2NsKNGzeU90+YMEFnJk6cuGHDBiX3Oj+mBxBHjx5Vspv8I6H9/f2HDh3SyalTp6o1Zcn2x4iEmlqyZMlgH/+D0uszZ85YlzweYMeOHcuXL4/btDGvfq5atcoaVO7++eef79y5U9n2tm3bdEkPosp2Vbm7ZeQjnVdrd+/eXTBI8qu99k7Fd/0Y9dFq1FZN+SK7i25x4sQJPQIeIIZ9wg8eIBQ8ADQwdZ191niB61VUCqeKsXiA3GLHYVY0GEpSpaHlvoby1+7ubp2Pjn3IAyxevNg8Q5KnT5+qtTgnTnJ/kOjAgXkAcwgKtHc57JIx7ElDj6NuDL3dSOc9jPJoNfT19ammfbCqtGQc3unC2Sf84AFCwQNAA1PX2WeNF7heRaVwqhiLB8gtdhxmBQxFA+9HP/qRfRu4fiQ9AOROxuGdLpx9wg8eIBQ8ADQwdZ191niB61VUCqeKsXiA3GLHYVZAkqtXr7a1tf3gBz/Ytm1b6FsHoeAB6krG4Z0unH3CDx4gFDwANDB1nX3WeIHrVVQKp4qxeIDcYsdhVkAS5f3/+q//euPGjWE/gZMvvb29HR0d9rVdyJ2MwztdOPuEHzxAKHgAaGDqOvus8QLXq6gUThVj8QC5xY7DrABoSDIO73Th7BN+8ACh4AGgganr7LPGC1yvolI4VYzFA+QWOw6zAqAhyTi804WzT/jBA4SCB4AGpq6zzxovcL2KSuFUMRYPkFvsOMwKgIYk4/BOF84+4QcPEAoeABqYus4+a7zA9SoqhVPFWDxAbrHjMCsAGpKMwztdOPuEHzxAKHgAaGDqOvus8QLXq6gUThVj8QC5xY7DrABoSDIO73Th7BN+8ACh4AGakI6OjkOHDvX19UXHjUtdZ581XuB6FZXCqWIsHiC32HGYFQANScbhnS6cfcIPHiCUvDzARx99pCcdypyx/vd00TVIdAD1p+Z/am9gNAKjUh2wxgtcr6JSOFWMxQPkFjsOswKgIck4vNOFs0/4wQOEkqMHePbZZ8+dO6eMP4nnP//esmUL/6XJeIIHyAVrvMD1KiqFU8VYPEBuseMwKwAakozDO104+4QfPEAo+XqAzz77LDr+Pg8ePOjo6JAfuHz58o5BVBgYGOjt7T179uz8+fM3bNigCjpU5UePHp08eXLr1q27du1Sg/bfqtj/fHLz5s3f/OY3b7/99v379wcb/g41rrsn30lQyKVLly5evCj7obIaUVNq8PDhw7IlVke/7g8//PDWrVt2+OTJkwsXLqhXKqsplXWv3bt366ZWIUZXz58///Dhw1OnTtW0KXp6ek6cOFHTeTFSN4Y9r26o/3GsDmNxhDogr9XX1zfKo3388cd37tx577337DM/0kFntm3bpsrXrl3DA+SCNV7gehWVwqliLB4gt9hxmBUADUnG4Z0unH3CDx4glPHxAEpP58yZs379+lWrVh07dmzNmjVTpkxRiFJ5+YGpU6e+9NJLltnfuHGjra1t4cKFyqT37ds3c+bMd999V8muElalratXr547d65yWaXaUdOD6btaXrt2rQp2Rpm9bnf06FEFKt+dNm2a7iJfsWLFiueee+7KlSuqo66qw+qDhVj7mzZtUlknZ8+erUNx5swZqxCjBtWrl19+eePGjeqbbiQPI8OgS1988YXaf/XVV9V53VH3VWpuUSpMnz5dJ48fP64KcTeGPa+uLliw4O7du6pw7969RYsWPf/882Zy9ETyS5s3b1ZaP9Kjmdrr1q2bN2/eL3/5S3kqqylLo46ppmTUo+EBMmKNF7heRaVwqhiLB8gtdhxmBUBDknF4pwtnn/CDBwil3p8FskRTBctK+/v7daiTS5cu3bJlS3xJSep3rXz77c6dO5Xyxim+GlT6e/XqVcvRlW13d3fbpSTt7e0tLS2qZoeWxGsw6IzOK0W28729vStXrpRhkFsY3QPotyYLYZdqUFcnTJgQt6lbyBIog1dZP5cvXx53Xjm3pfLW+P79++287n7kyJH3339/pPNK92V1Yq8iQZYsWWJ3VGtqU+VRHs0k1aG9dSAdpEb8OBJQMuIBsmONF7heRaVwqhibl1Z4gPGYFQANScbhnS6cfcJPRq3qsXyVfEms93eCLbm3rDROWIWybUu4kx5AWam8gVLnwSrfEQdaurxjx47owvexvNYaURKsVHjz5s0DAwMKnDVr1ldffWXVhOoovVb90T2A0mt73X0oaiF5NRlo6L6yAer5O++8o86r0NfXt2bNGuXun3/+ubkgY6Tz1qb5Cj3C2rVrdVN79osXL6r/eqJRHs1Es3ChELkU/bRDod7iAbJjjRe4XkWlcKoYm7MHUHNNS71nBUADEw30VCg8moQhaEePSjAWGbXK+Psdlnq0mSPj+VmgOOEW3zmAIR7Ayt9Ns++jq5YWW7Vh2bNnz+LFix88eKDfo1Lhc+fO6aTqWxZudUR8ZnQPUBOVpKbNZODNmzdfffXVSZMmtba2zp49e/r06XHNO3furFu3buLEiZMnT165cuXvfvc7WYVRzssIbdiw4enTpzIzyuaVwesu9+7dO3z48OrVq2UeRnk0oUL8aEN/NWocD5AdNW7rRmr0m4pKMBZ5acX7AGXfkwAalXRTT8tWVAqnAdarIDJqVY+1seTrbak8QHd3t9J3K9cwpge4evXq888/f/78+fb29iVLlsgM6OQoiXLuHsBe1F+6dKmewi4NvbvqXLp0aePGjfIJ8ev0Yuh5PcjChQu7urpefvnlK1eu3Lp166WXXvr000/tPQFVGOXRhArxow391ai3eIDsWOMFrldRKZwqxualFR4ADwBQDOmmHvuEHzxAKKXyAEqFV69ebR9qH6z17dOnTx8/fqzCmB7AYrdu3frmm2/u2bPHTiqTVq+SH4PZsWPHokWL7t2719nZOWPGjLhL9tVb65JO1qTXSdSH5JNa4O7du5MPIgYGBrZv3x63o/7rWeJLGzZseOONN/785z+PdF5J/1/91V8dOnRIjd+9e1eCWPbf1tZmjzPKo9WoLQsxffr0+NC+OYAHyI41XuB6FZXCqWIsHiC32JLvSQCNSrqpxz7hBw8QSr2/EyyUnetnMisVsQewL7nu2rVLqbBob2+fMmXK6dOnlRDr8MSJEy+88MLvf//7MT2AUOy0adPsO8R2pqenxzJ7+3bspUuXnnvuOftbPXZfu6Qb2d/nsS6N6QEmTJjws5/9TIHqpN30woULDx48WLx48ebNm/v7+9Xgr3/96yVLlthH9jUsZ8+efeDAAZ1XCxppS5cuVco+0nmVLel/8cUX5Qp0F7uvHs0sgQ5HebQata1jr732mtrXjdTh1tZWPEB2rPEC16uoFE4VY/PSCg+ABwAohnRTj33CT0at6rE2lny9rfd3goUujeIBlODu3LlTWbW9uK4k9ejRoypbrLJV+wv9Hg9g3wxO/pFQcf36deXKEydOnDp16uTJk3fv3h1/+/b48ePyG7qLrip73rhxo3VpTA+gxH3//v3qpNpUrMp2x7Nnz8YNytV0dnbKA8jDqKCn0LMMPtN/0MOuWbPmzp07ChnpvFD3dDL+yNDFixfVuH3X2c6M9GhD1f7000/VDbvF+vXr3377bTxAdqzxAterqBROFWPxALnF1nVWAMBIpJt67BN+8ACh5OUBMnL//v2+vr7oYPAjQErok/8RmAeFLFiwoL29PTpOoHxXV+3l9iRKmnU++Td5xkQewByCxSa7LYY9GaMnGvZ2I533MNKj1SDn0NPT0wx5f5K6zj5rvMD1KiqFU8VYPEBusSXfkwAalXRTj33CDx4glJJ4gOwoCd63b5/9aaDoVH2IPUB0DCWmrrPPGi9wvYpK4VQxFg+QW2zJ9ySARiXd1GOf8IMHCKUxPMDOnTufe+65lpaWTz/9NDpVN/AAFaKus88aL3C9ikrhVDEWD5BbbMn3JIBGJd3UY5/wgwcIpTE8wJ/+9KeLFy+O9AmcfOnq6uro6LBv4kLJqevss8YLXK+iUjhVjMUD5BZb8j0JoFFJN/XYJ/zgAUJpmM8CAQylrrPPGi9wvYpK4VQxFg+QW2zJ9ySARiXd1GOf8IMHCAUPAA1MXWefNV7gehWVwqliLB4gt9iS70kAjUq6qcc+4QcPEAoeABqYus4+a7zA9SoqhVPFWDxAbrEl35MAGpV0U499wg8eIBQ8ADQwdZ191niB61VUCqeKsXiA3GJLvicBNCrpph77hB88QCh4AGhg6jr7rPEC16uoFE4VY/EAucWWfE8CaFTSTT32CT94gFDwANDA1HX2WeMFrldRKZwqxuIBcost+Z4E0Kikm3rsE37wAKHgAaCBqevss8YLXK+iUjhVjMUD5BZb8j0JoFFJN/XYJ/zgAULBA0ADU9fZZ40XuF5FpXCqGIsHyC225HsSQKOSbuqxT/jBA4SCB4AGpq6zzxovcL2KSuFUMRYPkFtsyfckgEYl3dRjn/CDBwgFDwANTF1nnzVe4HoVlcKpYiweILfYku9JAI1KuqnHPuEHDxAKHgAamLrOPmu8wPUqKoVTxdicPYBONS0l35MAGhVNvWgShqC1LyrBWGTUqh5ro9osM/IAUQmgEYnmYR1Q49HCkRbWdj95acX7APV1xgAwEummXl6vf4RSxdiMWjXh2sj7AADpsOWiwPUqKoVTxdi8tMID4AEAigEP4CFLLB4gFDwAQDrwAKGUQSs8AB4AoBjwAB6yxOIBQsEDAKQDDxBKGbTCA+ABAIoBD+AhSyweIBQ8AEA68AChlEErPAAeAKAY8AAessTiAULBAwCkAw8QShm0wgPgAQCKAQ/gIUssHiAUPABAOvAAoZRBKzwAHgCgGPAAHrLE4gFCwQMApAMPEEoZtMID4AEAigEP4CFLLB4gFDwAQDrwAKGUQSs8AB4AoBjwAB6yxOIBQsEDAKQDDxBKGbTCA+ABAIoBD+AhSyweIBQ8AEA68AChlEErPAAeAKAY8AAessTiAULBAwCkAw8QShm0wgPgAQCKAQ/gIUssHiAUPABAOvAAoZRBKzwAHgCgGPAAHrLE4gFCwQMApAMPEEoZtMID4AEAigEP4CFLbAk9gNosM/IAUQmgEYnmYR2wxgtcr6JSOFWMxQPkFlvXWQEAI5Fu6rFP+CmnB4hKpYT3AaCBqevss8YLXK+iUjhVjMUD5BZb8j0JoFFJN/XYJ/zgAULBA0ADU9fZZ40XuF5FpXCqGIsHyC225HsSQKOSbuqxT/jBA4SCB4AGpq6zzxovcL2KSuFUMRYPkFtsyfckgEYl3dRjn/CDBwgFDwANTF1nnzVe4HoVlcKpYiweILfYku9JAI1KuqnHPuEHDxAKHgAamLrOPmu8wPUqKoVTxdicPYBONS0l35MAGhVNvWgShqC1LyrBWGTUqh5rY8nXWzwANDB1nX3p1vMkrO1+8tKK9wHKvicBNCrppl5er3+EUsXYjFrVY20s+XqLB4AGpq6zzxovcL2KSuFUMTYvrfAAdZ8VAA1MNNBTkS6cfcIPHiAUPAA0MHWdfdZ4getVVAqnirF4gNxix2FWADQkGYd3unD2CT94gFDwANDA1HX2WeMFrldRKZwqxuIBcosdh1kB0JBkHN7pwtkn/OABQsEDQANT19lnjRe4XkWlcKoYiwfILXYcZgVAQ5JxeKcLZ5/wgwcIBQ8ADUxdZ581XuB6FZXCqWIsHiC32HGYFQANScbhnS6cfcIPHiAUPAA0MHWdfdZ4getVVAqnirF4gNxix2FWADQkGYd3unD2CT94gFDwANDA1HX2WeMFrldRKZwqxuIBcosdh1kB0JBkHN7pwtkn/OABQsEDNCEdHR2HDh3q6+uLjhuXus4+a7zA9SoqhVPFWDxAbrHjMCsAGpKMwztdOPuEHzxAKHl5gI8++khPOpQ5c+bcvn07qjQCXYNEB1B/Dh48+Morr3zzzTfRceOiERiV6oA1XuB6FZXCqWIsHiC32HGYFQANScbhnS6cfcIPHiCUHD3As88+e+7cOWX8Sbq7u58+fRpVGoEtW7YoK40OoP7gAXLBGi9wvYpK4VQxFg+QW+w4zAqAhiTj8E4Xzj7hBw8QSr4e4LPPPouOv8+DBw86OjrkBy5fvrxjEBUGBgZ6e3vPnj07f/78DRs2qIIOVfnRo0cnT57cunXrrl271KCq6aQuqcLNmzd/85vfvP322/fv3x9s+DvUuO6efCdBIZcuXbp48aLsh8pqRE2pwcOHD8uWWB39uj/88MNbt27Z4ZMnTy5cuKBeqaymVNa9du/erZtahRhdPX/+/MOHD0+dOlXTpujp6Tlx4kRN58VI3Rj2vLqh/sexOozFEeqAvFZfX98oj/bxxx/fuXPnvffes8/8SAed2bZtmypfu3YND5AL1niB61VUCqeKsXiA3GLHYVYANCQZh3e6cPYJP3iAUMbHAyg9nTNnzvr161etWnXs2LE1a9ZMmTJFIUrl5QemTp360ksvWWZ/48aNtra2hQsXKpPet2/fzJkz3333XSW7SliVtq5evXru3LnKZZVqR00Ppu9qee3atSrYGWX2ut3Ro0cVqHx32rRpuot8xYoVK5577rkrV66ojrqqDqsPFmLtb9q0SWWdnD17tg7FmTNnrEKMGlSvXn755Y0bN6pvupE8jAyDLn3xxRdq/9VXX1XndUfdV6m5Rakwffp0nTx+/LgqxN0Y9ry6umDBgrt376rCvXv3Fi1a9Pzzz5vJ0RPJL23evFlp/UiPZmqvW7du3rx5v/zlL+WprKYsjTqmmpJRj4YHyIg1XuB6FZXCqWIsHiC32HGYFQANScbhnS6cfcIPHiCUen8WyBJNFSwr7e/v16FOLl26dMuWLfElJanftfLttzt37lTKG6f4alDp79WrVy1HV7bd3d1tl5K0t7e3tLSomh1aEq/BoDM6rxTZzvf29q5cuVKGQW5hdA+g35oshF2qQV2dMGFC3KZuIUugDF5l/Vy+fHnceeXclspb4/v377fzuvuRI0fef//9kc4r3ZfVib2KBFmyZIndUa2pTZVHeTSTVIf21oF0kBrx40hAyYgHyI41XuB6FZXCqWJsXlrhAcZjVgA0JBmHd7pw9gk/GbWqx/JV8iWx3t8JtuTestI4YRXKti3hTnoAZaXyBkqdB6t8Rxxo6fKOHTuiC9/H8lprREmwUuHNmzcPDAwocNasWV999ZVVE6qj9Fr1R/cASq/tdfehqIXk1WSgofvKBqjn77zzjjqvQl9f35o1a5S7f/755+aCjJHOW5vmK/QIa9eu1U3t2S9evKj+64lGeTQTzcKFQuRS9NMOhXqLB8iONV7gehWVwqliLB4gt9hxmBUADUnG4Z0unH3CDx4glPH8LFCccIvvHMAQD2BlKVaDrlpabNWGZc+ePYsXL37w4IHGgFLhc+fO6aTqWxZudUR8ZnQPUBOVpKbNZODNmzdfffXVSZMmtba2zp49e/r06XHNO3furFu3buLEiZMnT165cuXvfvc7WYVRzssIbdiw4enTpzIzyuaVwesu9+7dO3z48OrVq2UeRnk0oUL8aEN/NWocD5Ada7zA9SoqhVPFWDxAbrHjMCsAGpKMwztdOPuEHzxAKKXyAN3d3UrfrVzDmB7g6tWrzz///Pnz59vb25csWSIzoJOjJMq5ewB7UX/p0qV6Crs09O6qc+nSpY0bN8onxK/Ti6Hn9SALFy7s6up6+eWXr1y5cuvWrZdeeunTTz+19wRUYZRHEyrEjzb0V6Pe4gGyY40XuF5FpXCqGIsHyC12HGYF+Onv79eeIZLvBYsTJ07k9d+43L9//+233x76By4glIzDO104+4QfPEAopfIAWu5Wr15tH2ofrPXt06dPHz9+rMKYHsBit27d+uabb+7Zs8dOKpNWr5Ifg9mxY8eiRYvu3bvX2dk5Y8aMuEv21Vvrkk7WpNdJ1Ifkk1rg7t27kw8iBgYGtm/fHrej/utZ4ksbNmx44403/vznP490Xkn/X/3VX2kLUON3796VIJb9t7W12eOM8mg1astCTJ8+PT60bw7gAbJjjRe4XkWlcKoYiwfILXYcZgV4uH79+ssvvzxhwgSJJlRYtmyZ/X0JsXPnTu2Ftv9lRAZj6dKlyZedIB0Zh3e6cPYJP3iAUOr9nWCh7Fw/k1mpiD2Afcl1165dSoVFe3v7lClTTp8+rYRYhydOnHjhhRd+//vfj+kBhGKnTZtm3yG2Mz09PZbZ27djL1269Nxzz9nf6rH72iXdyP4+j3VpTA+gtfpnP/uZAtVJu+mFCxcePHiwePHizZs39/f3q8Ff//rXS5YssY/sa1jOnj37wIEDOq8WNNK0ICtlH+m8ypb0v/jii3IFuovdV49mlkCHozxajdrWsddee03t60bqcGtrKx4gO9Z4getVVAqnirF5aYUHGI9ZAWOivLytrU3ruwo61Crf2dk5d+7cFStWNMPSXFEyDu904ewTfjJqVY/lq+RLYr2/Eyx0aRQPoKVv586dyqrtxXUlqUePHlXZYpWt2huYHg+gtXT+/PnJPxIqrl+/rlx54sSJU6dOnTx58u7du+N3XI8fPy6/obvoqrLnjRs3WpfG9ABK3Pfv369Oqk3Fqmx3PHv2bNygXI2WdHkAeRgV9BR6lsFn+u7lnjVr1ty5c0chI50X6p5Oxq/dXLx4UY3bd53tzEiPNlTtTz/9VN2wW6xfv/7tt9/GA2THGi9wvYpK4VQxNmcPoFNNyzjMChiTS5cuaXuwv/4Wo8P33ntPvyOVL1++fOHCBdtaent7z5w5s23btiNHjjx8+FCXhM4/eDD8/7zzXVsJFK5q9ocsNP6T/8HN3r17R9rqYCgZh7fCbQ4GobUvKsFYZNSqHstXyZfEvDxARu7fv5/83KOcgJa15H8E5kEhCxYsaG9vj44TKN/VVXu5PYl9FLPmc5ijIw9gDsFiaz6uOezJGD3RsLcb6byHkR6tBu0LPT09zfYCU11nX7r1PAlru5+8tOJ9gLrPiqgEo2KfRj1w4MDQlN3Y9JevbWljULKuyvv27VPKvnjx4qVLl9rrVfZ6z/oh//OOtRBj1ewlNF1tbW1988031aYcxfxB4g8gwehkHN7pwvN6/SOUKsZm1Koey1fJl8SSeIDsKAnWCml/Gig6VR9iDxAdQ4mp6+yzxgtcr6JSOFWMzUsrPMB4zAoYE2X227ZtmzBhwty5c3fv3n3lypWal45iD3Dp0iUZAPtTd+KTTz6ZPHly0gMM+z/vJKnxALpp/Ie67eti9m47jEnG4Z0unH3CDx4glMbwADt37nzuuedaWlo+/fTT6FTdwANUiLrOPmu8wPUqKoVTxVg8QG6x4zArwMPAwMDly5fXr1+vLFy6TZw4cdWqVdevX7ersQc4fvz47Nmz45fqk3+/wpL7OKEXOm+XktR4gOT/LGOXhr51AMOScXinC2ef8IMHCKUxPMCf/vSnixcvjvQJnHzp6urq6Oiwb+JCyanr7LPGC1yvolI4VYzFA+QWOw6zAkLp6elpb2+fO3euEvQvv/xSZ5TKmweoednJ/l6EJfpDM/hBCzCGB0i2hgcIIuPwThfOPuEHDxBKw3wWCGAodZ191niB61VUCqeKsXiA3GLHYVZAOq5evTpz5kx7XV+p/LAeQGd03hJ9PMA4k3F4pwtnn/CDBwgFDwANTF1nnzVe4HoVlcKpYiweILfYcZgVMDpPnz7dtWvXG2+8oYQ+OjVIV1dXS0tLjQc4e/asTtpf9RGaCbNnz7ZEHw8wzmQc3unC2Sf84AFCwQNAA1PX2WeNF7heRaVwqhiLB8gtdhxmBYzJJ598MmXKlK1bt964cWNg8H/DuX79+o9//OP4r/QolTcPYEn/li1bent7Hz58qJDW1lZL9PEA40zG4Z0unH3CDx4gFDwANDB1nX3WeIHrVVQKp4qxeIDcYsdhVsCYKO//53/+57a2tgl/+X+CR/pOsMrx/yMzY8aM06dPx/+XDR5gnNGvICqlIl04+4QfPEAoeABoYOo6+6zxAterqBROFWPxALnFjsOsAD/9g/+njOc/eTHs+wBD/wAojAMZh3e6cPYJP3iAUPAA0MDUdfZZ4wWuV1EpnCrG4gFyix2HWQE5cuvWrUWLFh08eND+N7HLly/PmDFj2P8LE+pNxuGdLpx9wg8eIBQ8ADQwdZ191niB61VUCqeKsXiA3GLHYVZAjij1P3bs2LRp01pbW2fNmjVp0qRt27al+1/lISMZh3e6cPYJP3iAUPAA0MDUdfZZ4wWuV1EpnCrG4gFyix2HWQG509fXd/Xq1StXrty/fz86BeNOxuGdLpx9wg8eIBQ8ADQwdZ191niB61VUCqeKsXiA3GLHYVYANCQZh3e6cPYJP3iAUPAA0MDUdfZZ4wWuV1EpnCrG4gFyix2HWQHQkGQc3unC2Sf84AFCwQNAA1PX2WeNF7heRaVwqhiLB8gtdhxmBUBDknF4pwtnn/BTTg9QZuQBohJAIxLNwzpgjRe4XkWlcKoYiwfILXYcZgVAQ5JxeKcLZ5/wU0IPUHJ4HwAgHbZcFLheRaVwqhiLB8gttq77XBNuotA8ZBze6cLZJ/zgAULBAwCkw5aLAterqBROFWPxALnF1nWfa8JNFJqHjMM7XTj7hB88QCh4AIB02HJR4HoVlcKpYiweILfYuu5zTbiJQvOQcXinC2ef8IMHCAUPAJAOWy4KXK+iUjhVjM3ZA+hU01LXfa4JN1FoHjIOb4VHkzAErX1RCcYio1ZNuHzhAQDSkW49T8La7icvrXgfoL5pehNuotA8ZBze6cLzev0jlCrGZtSqCZcvPABAOmy5KHC9ikrhVDE2L63wAHgAgJRkHN7pwtkn/OABQsEDAKTDlosC16uoFE4VY/EAucXWdZ9rwk0UmoeMwztdOPuEHzxAKHgAgHTYclHgehWVwqliLB4gt9i67nNqHKCBiQZ6KtKFs0/4wQOEggcASIctFwWuV1EpnCrG4gFyi23CfQ6gDOABPGSJxQOEggcASAceIJQyaIUHwAMAFAMewEOWWDxAKHgAgHTgAUIpg1Z4ADwAQDHgATxkicUDhIIHAEgHHiCUMmiFB8ADABQDHsBDllg8QCh4AIB04AFCKYNWeAA8AEAx4AE8ZInFA4SCBwBIBx4glDJohQfAAwAUAx7AQ5ZYPEAoeACAdOABQimDVngAPABAMeABPGSJxQOEggcASAceIJQyaIUHwAMAFAMewEOWWDxAKHgAgHTgAUIpg1Z4ADwAQDHgATxkicUDhIIHAEgHHiCUMmiFB8ADABQDHsBDllg8QCh4AIB04AFCKYNWeAA8AEAx4AE8ZInFA4SCBwBIBx4glDJohQfAAwAUAx7AQ5ZYPEAoeACAdOABQimDVngAPABAMeABPGSJxQOE0lQeoL+//8+DqBCdAkgLHiCUMmiFB8ADABQDHsBDllg8QCjN4AG++eabM2fObN269cUXX9SvWKigQ53UpagSQCC2XBS4XkWlcKoYiwfILdYGLgCMM+mmHvuEHzxAKA3vAT788MPVq1e/8cYbH3zwwddff20nVdChTuqSKthJyEITvseCBwilDFpFHkDNNS14AIBC0NSLJmEIt2/fjkowFhm1auC1saur68yZM5cuXRoYGIhODSIPoDM6r6uqE50dlYMHDz777LOfffZZdFxifv3rX//H//gfz507Fx0PQZdUQdWi47EYSUbRwDKOQjO/x6KHjRaOtLC2+8lLK94H4H0AgGJIN/W0bEWlcBpgvQoio1YNvDYq49TTzZ49u0YieYDu7u758+frqupEZ0elKsnr+++/39bW9tVXX0XHI6AKqqbK0fGojCSjaFQZR6HJ32Ox5aLA9SoqhVPF2Ly0wgPgAQCKId3UY5/wk1GrBl4blXG2tLTMnDnz5MmT0alB5AHa29unTZs2adKkRkpeb9++vXTp0n/913+NjkdF1VRZIdHxyIwko2hIGUch9/dYKgceIJQyaIUHwAMAFAMewEOWWDzASCjjnD179muvvbZy5cre3t7o7KAHWL9+vc7rajJ5VZ1Tp05tHWTXrl3Xrl2LLgxJXgcGBi5fvrxjxw7V1E+Vh35OZvw5ceKE+hMdOFBlhUQHIzOSjE+ePGlIGUeiHu+xVA48QChl0AoPgAcAKAY8gIcssXiAkVDGOWfOnGPHjinvvHTpUnR20AO0tLTovK7GyeuDBw+WL18+Y8aMTZs2KSVVGjd58uQPPvjAriaTV+WpOpw0adKaNWsOHz6snyor2VVObJWLQj353e9+Fx04UGWFRAcjM5KMV69ebUgZh6VO77FUDjxAKGXQCg+ABwAoBjyAhyyxeICRsOS1s7Nz/vz5e/bsic4OegCd0flk8nrmzBllq/HHPJTLLl68WOns48ePdZhMXpUHT5069cCBA/aiteWyNfnx+PPo0aMXXngh6DupqqyQ6GBkRpLx6NGjjSfjSNTpPZbKgQcIpQxa4QHwAADFgAfwkCUWDzASlrzevn1bmauy1e7ubp1UVioPsHv3bp1PJq9D2bRpk4WrnExeFTtr1qzkZ0JU1pn9+/dHxwXxzDPPRCU3npCRZFRy35AyDkud3mOpHHiAUMqgFR4ADwBQDHgAD1li8QAjESevly5dUur50Ucf6eTFixflAXRmaPJ67dq1Xbt2KbWdPciUKVOGTV6V1E6dOnXDhg1b/4LKOqPzg80Uw9OnT6dNmxb6PoBCooORGUnGlpaWxpNxWOr3HkvlwAOEUgat8AB4AIBiwAN4yBKLBxiJOHnt7e1duXLl+vXr+/v7t2/fLg+gMzXJ6wcffDB58uSFCxeeOHHizCDLli1zJq9G4Z/9+MlPfhL6WrVCooORGUlG+4pw48k4LHV6j6Vy4AFCKYNWeAA8AEAx4AE8ZInFA4xEnLyqfPLkyVmzZl26dGn+/PnyADqTTF4fP368fPlyZa49PT3fRQ5+PF3p6bDJ65YtW+LzpeLXv/61cujowIEqe/6K5UgyHj16VGcaT8ah1O89lsqBBwilDFrhAfAAAMWAB/CQJRYPMBLJ5FUqzZ49e/369XPnzh3qAZSxvfLKK8pW7fup4ssvv1SyO2zyqjx40qRJyT8S/+jRo3/7t38LyhHrwY0bN5SC+/92jSorJDoemZFktIHXeDIOS53eY6kceIBQyqAVHgAPAFAMeAAPWWIzatUkHkBZ6fbt2/Wwyl+HegD7U/etra2ff/65av77v/+78mOlszpju2cyee3u7m5ra1MS3NnZqco9PT3KemfOnPnFF1/oarGcOXPmhz/8YfKLtsOiCqqmytHxqIwko/0Rz4aUcSh1eo+lcthyUeB6FZXCqWIsHiC32Abe5wDKTLqpxz7hBw8wEsnkVZw/f37KlCnnzp0b6gGEMlHlo1JDKGft6Oiw+jr86KOPksmruHHjxrJlyyZMmGD158+ff+HCBbtUOCdOnFi0aFHy9fUadEkV/B+7H0lGO2xUGWuo03sslUO/Jv0scL2KSuFUMRYPkFusDdzmpKura/CrWcNw69atqBKMC9oFNRT1MzpuAtJNPfYJP3iAUMwDDMVejRYqRKdGpa+vTxlwCT+78o//+I8rVqx44403Pvjgg6+//tpOqqBDndQlVbCT9aBhZKxBO2bu77FUDjxAKGXQCg/Q1B7g4MGDevxhKSQZvXHjxt69e+/fvx8dNxN4ACfsE37wAKGM5AEaibt3754+ffrnP//5yy+//INBVNChTupSVAkCyf09lsphy0WB61VUCqeKsXiA3GKbcJ+LqXn7tXDOnj2bfGe5qcADOGGf8IMHCKUZPADUiWLfYykcPEAoZdAKD4AHGMMDPH369OOPP962bdvWrVt37dqlyvHbuB0dHW+//fbNmzcPHDiggr1+39vbe+rUKat87dq1Gzdu/M3f/E1nZ6eFCKX4e/fuVQWhmqpv50+cOPHSSy/Zn4Ue9sUSu11PT0/cn2S4SHZ1x44dly9fTr7jrJpnzpwZ9kGGvfTw4cN33nmnvb3d6ogrV66ogn5Gx4OJe/zgowilx5cImmvvvfeeCvZh0EePHh05ciTuKh7ACfuEHzxAKHgAyEIzv8eCBwilDFrhAfAAo3mABw8erFq1asqUKRs3bjx8+PDSpUufeeYZRVl2q8KcOXOUwk6fPl2Xuru7VX/58uWqv27dup/+9Kfz5s176623dIs4tVUCPXPmzLa2tv379ysbnjFjxuLFi+2Ff+X9P/zhD0fxANbbN99888UXX1Tq/Morr0ycOFGF/v5+XdVPle3WKtR09ZtvvlmxYoXCf/KTn1jspEmT7OpIl9Tg2rVrV69e3dfXN3j/b/WkGi36aYc6r6tWYXSh9PhqX8ZAQunZr169GgulO0oKPZHuq8bxAGPCPuEHDxAKHgAgHbZcFLheRaVwqhiLB8gttgn3uRjLqkfxAMePH588efLp06ftUBntO++8oyReWawOFS71lMsqo7UK7e3tyn1Pnjxphzdu3JANmDBhgqW2qqaMf9myZXF9swR79uyxw02bNo3yWSC7nVJ8S/qtM/IMly5d0qGa0rPY/00j7E/RzZ07V85Eh+fPn1dmf/bsWbuqWGXeK1eu1GAY5ZIef/bs2Tdv3tT5e/fuLVq0SHfXT5V1Rud1VXVUHl0oPb56LiniPwdRI5QEkSyqgwcYE/YJP3iAUPAAAOmw5aLA9SoqhVPFWDxAbrFNuM/FKKueMmWKfp75Ph0dHb29vfY694IFC5JvYl68eFEhlvgqMM7vjR07dsyaNSv55xEscbc6FhsnvkKZ+tq1a5cuXWp/+WFMD1BzO2vw8OHD0fH3Uf3Y4VjNAwcOKDu3qzGjXFLsc889J5Ogcmdnp5J4iSNBurq6dEbndVV1xhTKPID6Y5fEUKFUMxaqSUg39dgn/OABQsEDAKTDlosC16uoFE4VY3P2ADrVtDThPhdjCfpQLBFXXv7KIMk/zaZUeMaMGZbOJpNsQ0l8/DK5YemvpbZWXrFixdYEP/zhD+O8f0wPUHO7ZGeEAvfu3bt8+fLZg0yfPj2u39/fv23bNlmImTNn6i7/43/8D3szYfRL9tr//v37VZZ1UVlZu36ajdm9e7c97JhCJUUwhj7p0DoNj543moQhaO2LSjAWGbXSLyj6VTUNeACAdKRbz5OwtvvJSyveB2j29wFqsuok9tGdmtTWPgBjn96pCX/69OlPfvKTmvrJ1NbKNR5AxF+rDfUAyc7Yx4oUfuTIEXs3Y8OGDcn6AwMDf/zjH3/2s589//zz6oYu/eY3vxnz0o4dO1avXt3b27t582b7JoB+Cnvt386MKVRNfm9C4QH0vFEphLxe/wilirEZtUr3C6o0eACAdNhyUeB6FZXCqWJsXlrhAfAAI3qAYV/eVmWF2MvbQ8OHJvEnT56MU9uOjo6aD/PU4PEAyT/Lk+zMli1b4v923ti/f/9IT6f5s2zZMuXoQydSzSX1Vl364osvFixYYN8ZsDcE1OysWbPsWcYUStViEYyhT6rGa+o0POmmXl5rXyhVjM2oVROujXgAgHTYclHgehWVwqlibF5a4QHwACN6ALFjx474i62GMuBJkybZR+SHhtec6e/vX7duXZzafvXVV8qbt2/fHn/yXgVV/vrrr+3MmB5ATcXf+hVq9plnnrHGFRt/r0D09PQoU4878+WXX547d67vL3/hRyjKro5ySWX1WV3at2/f3Llz7WsA+jlv3ry9e/cmLcToQqnBWARDzxJ/m1no8SVLTZ2GJ93UY5/wgwcIBQ8AkA5bLgpcr6JSOFWMxQPkFtuE+1zMmB7giy++UGr75ptvdnd3K0/t7OxUKrxixQpLtYeGq6wzy5Ytu379ukLeeeedH/3oR3FqqxZ+8YtfTJ48+b333pM9ECokv9SrTFrhypuH/c/kdbsJEyYo/1Y3dFVzYPHixW1tbfaXf/bs2aOs+sMPP7RL8h6rV69W47/97W91tb293b6hq56rgvJ+ddJiR7mkQPvMT0tLS2ww7EsCMgBr16598uSJzojRhRrqAUyo1157Tf7HdJDTUDfwAGPCPuEno1ZNuDbiAQDSYctFgetVVAqnirF5aYUHwAOM5gHEhQsX5s+fL5XExIkTlVvfuXPHLg0NV/r7j//4j62traqsXH/Xrl2nT59WOU5te3t7dVKXBtv77pP3MgBKgu2qfaZf52s+V2PY7f7bf/tvSq8tXAVl23b15s2bS5YssfOq9qtf/eoPf/jDrFmzdKhA3UI30nmrIJTHy6gocJRLhsJ10j76b2zZskVn7G/+xIwi1FAPIKH+/u//Pr6pev6b3/xGh3iAMWGf8IMHCAUPAJAOWy4KXK+iUjhVjMUD5BbbhPtcCu7fv9/d3R0n636U1MYfiYl5+vSpWhv2xX7d4u7du6oQHSeILYeiFDtsuPVz2HBhgbdv305+8scY5VIQQUKpmirb96GbEDyAhyyxeIBQ8AAA6cADhFIGrfAAeIA8+fd///clS5bE/1WWctzNmzcP+9XbFAx92wEqDR7AQ5ZYPEAoeACAdOABQimDVngAPECePHjwYPny5VOmTNm6devx48dfffXVZ555Rrn70BfsU4AHaDDwAB6yxOIBQsEDAKQDDxBKGbTCA+ABcqa3t/fUqVNvvPHG/Pnz5QQuX76ciwEQMhVtbW3Jv70DlQYP4CFLLB4gFDwAQDrwAKGUQSs8AB4AoBjwAB6yxOIBQsEDAKQDDxBKGbTCA+ABAIoBD+AhSyweIBQ8AEA68AChlEErPAAeAKAY8AAessTiAULBAwCkAw8QShm0wgPgAQCKAQ/gIUssHiAUPABAOvAAoZRBKzwAHgCgGPAAHrLE4gFCwQMApAMPEEoZtMID4AEAigEP4CFLLB4gFDwAQDrwAKGUQSs8AB4AoBjwAB6yxOIBQsEDAKQDDxBKGbTCA+ABAIoBD+AhSyweIBQ8AEA68AChlEErPAAeAKAY8AAessTiAULBAwCkAw8QShm0wgPgAQCKAQ/gIUssHiAUPABAOvAAoZRBq8gD6FTTggcAKARNvWgShqC1LyrBWGTUCg8AAE7SredJWNv95KUV7wPwPgBAMaSbenm9/hFKFWMzaoUHAAAntlwUuF5FpXCqGJuXVngAPABAMeABPGSJxQOEggcASAceIJQyaIUHwAMAFAMewEOWWDxAKHgAgHTgAUIpg1Z4ADwAQDHgATxkicUDhIIHAEgHHiCUMmiFB8ADABQDHsBDllg8QCh4AIB04AFCKYNWeAA8AEAx4AE8ZInFA4SCBwBIBx4glDJohQfAAwAUAx7AQ5ZYPEAoeACAdOABQimDVngAPABAMeABPGSJxQOEggcASAceIJQyaIUHKLsH6O3t7ejo+Pjjjx89ehSd+gsHDx589tlnP/vss+g4G7dv354zZ86mTZuiYzf5dgPqxMDAwPXr1/XL2rp1q36qrDPRtYLAA3jIEosHCAUPAJAOPEAoZdAKD1B2D3Du3LlJkyZNmDChvb09OvUX8AAQc+PGjb17996/fz86/j5ykj/72c80iiZPnvzCCy/op8rbtm3r7++PahQBHsBDllg8QCh4AIB04AFCKYNWeIBSe4AnT56sX79+0aJFS5YsWblypTK56MIgeACIOXv2rH59+iVGx9/n+PHjzzzzzP79+y3p10B69913dWaosRxP8AAessTiAULBAwCkAw8QShm0wgOU2gNcvXp15syZR48eVQ6ngg6jC4Mkk++Ojo6333775s2bBw4cUMFeD3769OnHH3+8bdu2rVu37tix4/Lly8mPf6j8T//0T3b11KlTX331lXmAR48e7du378iRI3IgUdVBN6IzOj/SR5I+/fTT3/3ud9aaaiarjdSN7u7ut95668SJE1bN+Oabb375y18eO3bM7q6kdu/evQoU6mSNC6pBV1XHKu/atevatWvRhW+/7ezs/Ju/+ZsbN26on+qDKqjZu3fvRpeHQ+FqxFobeuuHDx/qMXVJz6Wn0zNGF77/vKqjmtGF719S4/rdxb8R9VAn9dMORfKMfqH6teq3rD6bIHoKPYvVlIYvvfTS1KlTN2zYUKOnkKSvDKJCdOrbbzVUZs+encLy5QgewEOWWDxAKHgAgHTgAUIpg1Z4gFJ7AGX/lvrr962Mbc+ePdGFQZIeQGVl8MoLp0+fvnTpUqXX/f39yhSnTJmybt06FXTymWeeUTVLOvVTZZ159dVXDx8+vGbNmoULF+pelhTqRjWWwzqwe/fu6DiBdeONN9548cUXdaPVq1dPnDhx/fr1lsSP0g1VWLt27YIFC5K5+Pnz5ydPnmyvT1+5ckXdaGtr279/vzL4GTNmLF68eKSXuh88eLB8+XLV0SPoRopSOx988IFd/eijj9TJnTt3zps376c//ak6oy6pNUVZhRoUqArqrZqyymo8rqy8vKWlRYKrKXteVbOX2JVnv/766/a86on6ozvKe+iSwletWqVLGzdulOY1vxH1UENRP7+7wSDJM/YujW6nX5NaVkGHSvovXbqkq8r7f/jDH47kAYRu8fjx4+hgEGtwy5Yt0XERpJt67BN+MmpV5rWxTuABANJhy0WB61VUCqeKsXlphQcorwdQyqgk1ZJp5XDbt2+fP3++kvvo8hAPoAdJ5qlKoHVVLsIO1Yiamjt3rrVgOb2ySctc1f6BAwfUgnkAe/9BbX4XOcjJkyfjjLMGu/XmzZvjptTVWbNmffXVVzocvRvK9ZWpK++3q0I2Rh1T9+zxly1blnwi9arGCMWcOXNGTZ07d84OLVyCWO5r+XSyNXVJ6fjFixftMMnDhw9rPnylfipf7+joUNkeYdGiRT09PXZV4sRPoZp63rjZL7/8UlLooVQ+fvy4qp0+fdouSah33nkn9loeD6CWL1++bFftdxS7Mv3iVGEkg1SDbq3fmh7/k08+iU4VgZ4uKoXAPuEno1bpfkGVBg8AkA5bLgpcr6JSOFWMzUsrPEB5PYDSWWVpcVKrgjLI5Ae4azzAhAkTkhnkUJL1lbBOmjRJyatdEl1dXS0tLeYB+vr6Vq9eHb9Mbi/YD/1CgqFm1VQyj0/eaCjJq7du3VLmaimykDGQz5GFUJKqNFqPn+yhdWPp0qXJz7SMQjIttnxaWbhdEskMe0zUW/VZPVdZ3kZpffItEZkf9Vy9sh7KHty7d88u6UFkFYSkk6Q1b3rYM1qvhvYnecY8gFrQr8au2hn7fQm/B1BP3nrrLf3KDh8+rO5FZ4sg3dRjn/BTCQ+gu5QHeYCoBNAcRPMwM9ZUgetVVAqnirF4gNxic5wDOWIvNidTRnthO5mIJ5PpYdNuZYR79+5dvnz57EGmT58e1xmacdbklMlX6C3rTSbQSYbeuubMKN1QDqqMP37MpO2xHq5YsWJrgh/+8IejZLr2CX6pZDdSU3Hloc879EwSiXzq1Kmf/OQnc+fOVVOtra2yWOYB1HP138o1DPvJe2PYS52dnTNmzLCmRu9hzW9H1JxxegCNolWrVsnsffLJJ8UaAKGni0ohsE/4qYoHiEolgPcBoKnIcfZZUwWuV1EpnCrG4gFyiy3VDhRjn/RQ32pI5tbJVLsm7Rb2yRnlhUeOHDkzyIYNG+I6//AP/6DWkhlnTU6ZfEle2b/y4JHG3NBbJ8+M3g1heb/Mhm60efPm+EV0y4BrPICIv/FcwwcffCDTsnDhwhMnTtiNli1bFqfFyXzaGHomRomyHIt6tWPHDmtKT6RD/dRV9Vz9t3INo3gAs3A1l+yLufbpptF7mJcH0L3U+fgDRcWip4tKIbBP+MEDhIIHgKYix9lnTRW4XkWlcKoYiwfILbZUO1CM5Wp/+7d/azmooUOdjD8Qn0y1k2Vjy5Ytra2tyd/v/v374zpDM86hfyhGN9KZrq6u1atXmxmILnyfobdOnhm9G+Lu3bsLFixQtm2fC4qfrqOjY8xPN8U8fvxYWbsMQPwZffVWZiOdB7Bb/93f/V10/JdvNVjer57H5RpG8QDDXko2NXoP8/IAMkiHDh2KP1BULHq6qBQC+4QfPEAoeABoKnKcfdZUgetVVAqnirF4gNxiS7UDGfYa/NDP39sHhOJvBidT7WTZUFKY/Oi8kuNFixbFdSz7jBNucW7wPyNLZpmqM2PGjF27dj3//PP2+ZxhGXrr5JnRu2GoG7IBSk9bWlriP0ZkH0BKeg8VFPX1118PdSOWYSvpjy/Zl3HTeQCdVA+V99uh2nznnXdU2ZJ1My3J3456pRvZH+SRmYm/5ivUMdX867/+a7mUmkvi5MmT8VcpzHicPXvWLummUj7uYV4eoFSkm3rsE37wAKHgAaCpyHH2WVMFrldRKZwqxubsAXSqaSnVDmTYX6FJfv03RhlhfGl0D6DEeurUqR9++KGySQ2XdevWrV69esqUKb/97W911ZJmpaQXLlyQtejs7Fy4cGH8nWBDOa7yVyWp8ZeDh2V0DzB6N4xLly7p1nPnzk0m1qr/i1/8YvLkye+9917/ICoo8PDhw1Yhibmj1tbWzz//XIH//u//vnz5cj1g/BbE0Ix/6JkY9Ud91t3VmUePHh04cEAdk1ZKytW4KqgP6onO37t3T2Zj2bJl8hsq6NIXX3yhmj/+8Y91qKsyD/p92Teb7dKbb74pC6d2pLkeecWKFWaQ7DvZr732mkyOPax+I7qL9XBMDyCDIc1lJ+SyrJNDkQ+RSqLm74QWhfSPJmEIGkVRCcYio1bjszaWagXGA0BTkePsS7eeJ2Ft95OXVrwPUK4dyFDGWfNnQGOSbxGM7gFu3ry5ZMkSPZ3QpV/96ld/+MMflKrqUJVVQUlnW1ubVZgxY8bp06eVNCezTCGzEX8XdiSG3jp5ZsxuCDMkOpP8K0BCz6i0WzZgMPq7cCXfyo+jy9/HUmqrqdS/o6NDCbFyaB0qjRZWiGqP6gF0C9134sSJqqCfGzZsUMKt3F2H6qd6qwqHDh2yxoXuKysVBX/7rcpxT1RHNeM+65J+fXZJLcsR3blzxy4pcT927Ji1Kc2Vqav/emTr4ZgewL53oVjroZ2swXQepcI4o95GpRC09kWlcBpgvQoio1bpfkGhjM9dnOABoKnIcfZZUwWuV1EpnCrG5qUVHqCMHiBH7t+/L9uQ/F9skyjv7OnpGaWCPEDy8zmpGb0bo6MoxY7y8naMPY6npoe+vj7l2aN8dN46NuwXlMUoj2yXhjUzOqlL6XJ0xd69ezedyIWQbuqxT/jBA4SCB4CmIsfZZ00VuF5FpXCqGIsHyC22VDtQqVAyvWjRoi1btjwZ/B9/AfIl3dRjn/CDBwgFDwBNRY6zz5oqcL2KSuFUMRYPkFtsqXagktDZ2fnTn/50zpw58+bNu3HjRnQWIFfSTT32CT94gFDwANBU5Dj7rKkC16uoFE4VY/EAucWWagcqCZcvX16wYMHPf/7zmzdvRqcA8ibd1GOf8IMHCAUPAE1FjrPPmipwvYpK4VQxFg+QW2ypdiCA5iHd1GOf8IMHCAUPAE1FjrPPmipwvYpK4VQxFg+QW2ypdiCA5iHd1GOf8IMHCAUPAE1FjrPPmipwvYpK4VQxFg+QW2ypdiCA5iHd1GOf8IMHCAUPAE1FjrPPmipwvYpK4VQxFg+QW2ypdiCA5iHd1GOf8IMHCKUJPYD9PeKhf634xIkThw4dGuWPI0MDkOPss6YKXK+iUjhVjMUD5BZbqh0IoHlIN/XYJ/zgAUJpKg9w/fr1l19+ecKECfoVCBWWLVsW/x2InTt3luf/FIc6kePss6YKXK+iUjhVjMUD5Bab4xwAAD/pph77hB88QCjN4wG6u7vb2to2bNiggg4HBgbsv1pfsWJFSf4fcRgHcpx91lSB61VUCqeKsXiA3GJLtQMBNA/pph77hB88QCjN4wEuXbo0a9asK1euRMeD6PC9996zIXf58uULFy7YfxDZ29t75syZbdu2HTly5OHDh7okdP7BgwcdHR1yETrcMYgK9t+0d3V16ZICVRZq88MPP7x165ZdOn/+vNo5derU1q1bDx8+fPv2basG40yOs8+aKnC9ikrhVDEWD5BbbKl2IIDmId3UY5/wgwcIpXk8QGdn54wZMw4cOGAp+1A2bdr0yiuvfPPNN/39/crUVXnfvn179+5dvHjx0qVLdVV1lLvPmTNn/fr1q1atOnbs2Jo1a6ZMmfLRRx/p0sGDB3UpTu4/++yzZ599Nr40c+bMl19+eePGje+++66qzZ8/n/+LphBynH3WVIHrVVQKp4qxeIDcYku1AwE0D+mmHvuEHzxAKM3jAZTZb9u2bcKECXPnzt29e/eVK1dqvv4be4BLly7JAJw7d87Of/LJJ5MnT056gHXr1tn3iVVZ9mDLli0qj+4BdN+TJ0/apatXr8oSHD9+3A5hPMlx9llTBa5XUSmcKsbiAXKLLdUOBNA8pJt67BN+8AChNNV3ggcGBi5fvrx+/frp06frtzBx4sRVq1Zdv37drsYeQNn57Nmz49fp7927t2jRoqQHiLN5ofN2aXQP0NLS0tXVZZd0C93IomCcyXH2WVMFrldRKZwqxuIBcost1Q4E0Dykm3rsE37wAKE0lQdI0tPT097ePnfu3FmzZn355Zc6o6TcPEBNNv/kyZO1a9daym4ewDJ74zsH4PAAyUt4gALJcfZZUwWuV1EpnCrG4gFyiy3VDgTQPKSbeuwTfvAAoTStBzDsYzn2ur6S8mE9QDJlxwNUnRxnnzVV4HoVlcKpYiweILfYUu1AAM1DuqnHPuEHDxBKk3iAp0+f7tq164033lD+HZ0apKurq6WlpcYDnD17NvnRHQ2q2bNnW8o+igc4fPhwMtG/ePFi8uvC8gNyBXbJPly0e/duO4TxJMfZZ00VuF5FpXCqGIsHyC22VDsQQPOQbuqxT/jBA4TSPO8DfPLJJ0rKt27deuPGjYGBAbmC69ev//jHP47/RI9SefMAlvRv2bKlt7f34cOHCmltbbVEfxQPcP78ebXf3t6uxjWW1qxZM3ny5NgDTJgw4Wc/+5ka1FXVmTZt2oULFwYbgHElx9lnTRW4XkWlcKoYm7MH0KmmpVQ7EEDzoKkXTcIQtPZFJRiLjFqNz9pYqhW4eTyAku9//ud/bmtri/+f4JG+E6xyR0eH8n7VmTFjxunTpzdu3GiJ/igeQIHr16+3xltaWlQnrikPIFOxf//+Z599durUqbqvyvYfEcA4o99OVMqMmooWjrSwtvvJSyveByjXDgTQPKSbenm9/hFKFWMzajU+a2OpVuAm/D5Af39/9yBPnz6NTo2Kknt5A/sDoGOiyj09PfIb0fEg8fcB7NY1f5MUxpMcZ581VeB6FZXCqWJsXlrhAfAAAMWQbuqxT/jBA4TS5N8JHpZbt24tWrRIibul8pcvX54xY0Z7e7tdTUHsAaJjKI4cZ581VeB6FZXCqWIsHiC32FLtQADNQ7qpxz7hBw8QCh5gKEr9jx07Nm3atNbW1lmzZk2aNGnbtm32n4KlAw9QHnKcfdZUgetVVAqnirF4gNxiS7UDATQP6aYe+4QfPEAoeICR6Ovru3r16pUrV+7fvx+dSktXV1dHR0dvb290DMWR4+yzpgpcr6JSOFWMxQPkFluqHQigeUg39dgn/OABQsEDQFOR4+yzpgpcr6JSOFWMxQPkFluqHQigeUg39dgn/OABQsEDQFOR4+yzpgpcr6JSOFWMxQPkFluqHQigeUg39dgn/OABQsEDQFOR4+yzpgpcr6JSOFWMxQPkFluqHQigeUg39dgn/OABQsEDQFOR4+yzpgpcr6JSOFWMxQPkFluqHQigeUg39dgn/OABQsEDQFOR4+yzpgpcr6JSOFWMxQPkFluqHQigeUg39dgn/OABQsEDQFOR4+yzpgpcr6JSOFWMxQPkFluqHQigeUg39dgn/OABQsEDQFOR4+yzpgpcr6JSOFWMxQPkFluqHQigeUg39dgn/OABQsEDQFOR4+yzpgpcr6JSOFWMxQPkFluqHQigeUg39dgn/OABQsEDQFOR4+yzpgpcr6JSOFWMxQPkFluqHQigeUg39dgn/OABQsEDQFOR4+yzpgpcr6JSOFWMxQPkFluqHQigeUg39dgn/OABQsEDQFOR4+yzpgpcr6JSOFWMxQPkFluqHQigeUg39dgn/FTFA5QHeYCoBNAcRPMwM9ZUgetVVAqnirF4gNxic5wDAOAn3dRjn/BTCQ9QKngfACAdeIBQyqAVHgAPAFAMeAAPWWLxAKHgAQDSgQcIpQxa4QHwAADFgAfwkCUWDxAKHgAgHXiAUMqgVeQB1FzTggcAKARNvWgShnD79u2oBGORUSs8AAA4SbeeJ2Ft95OXVrwPwPsAAMWQbupp2YpK4TTAehVERq3wAADgxJaLAterqBROFWPz0goPgAcAKAY8gIcssXiAUPAAAOnAA4RSBq3wAHgAgGLAA3jIEosHCAUPAJAOPEAoZdAKD4AHACgGPICHLLF4gFDwAADpwAOEUgat8AB4AIBiwAN4yBKLBwgFDwCQDjxAKGXQCg+ABwAoBjyAhyyxeIBQ8AAA6cADhFIGrfAAeACAYsADeMgSiwcIBQ8AkA48QChl0AoPgAcAKAY8gIcssXiAUPAAAOnAA4RSBq3wAHgAgGLAA3jIEosHCAUPAJAOPEAoZdAKD4AHACgGPICHLLF4gFDwAADpwAOEUgat8AB4AIBiwAN4yBKLBwgFDwCQDjxAKGXQCg+ABwAoBjyAhyyxeIBQ8AAA6cADhFIGrfAAeACAYsADeMgSiwcIBQ8AkA48QChl0AoPgAcAKAY8gIcssXiAUPAAAOnAA4RSBq3wAHgAgGLAA3jIEosHCAUPAJAOPEAoZdAKD4AHACgGPICHLLF4gFDwAADpwAOEUgat8AB4AIBiwAN4yBKLBwgFDwCQDjxAKGXQCg+ABwAoBjyAhyyxeIBQ8AAA6cADhFIGrfAAeACAYsADeMgSiwcIBQ8AkA48QChl0CryADrVtOABAApBUy+ahCFo7YtKMBYZtcIDAICTdOt5EtZ2P3lpxfsAvA8AUAzppl5er3+EUsXYjFrhAQDAiS0XBa5XUSmcKsbmpRUeAA8AUAx4AA9ZYvEAoeABANKBBwilDFr9P1ry+Mc//vGPf/zjH//4xz/+Nc8/3gfgfQCAYuB9AA9ZYnkfIBRtilEJoDimbbkXlaoD7wOEUgat8AB4AIBiwAN4yBKLBwgFDwBlAA8QShXX5zJohQfAAwAUAx7AQ5ZYPEAoSQ/Q29vb0dHx8ccfP3r0KDr1Fw4ePPjss89+9tln0XE9+eabb14ZRIXolI+PPvpIv0H9jI6hHAwMDFy/fl1DaOvWrfqpss5E1/4CHiCUKq7PZdAKD4AHACgGPICHLLF4gFCSHuDcuXOTJk2aMGFCe3t7dOov4AHAyY0bN/bu3Xv//n07lLH82c9+pkE1efLkF154QT9V3rZtW39/v1Uw8AChVHF9LoNWeAA8AEAx4AE8ZInFA4QSe4AnT56sX79+0aJFS5YsWblypVI3O2/gAcDJ2bNn58yZc/v2bTs8fvz4M888s3//fkv6Na7effddnanxmXiAUKq4PpdBKzwAHgCgGPAAHrLE4gFCiT3A1atXZ86cefToUSVtKujQzhtJD9DR0fH222/fvHnzwIEDKtgrvgMDA5cvX96xY8fWrVv1U+Waz3tcu3Zt165duipOnTpV4zE+/fRTiz1y5MitW7fMA9y5c2ffvn06I38S1Rv0Kjqj80M/sBR7gD/+8Y/W2t69e+/evRtdHmTYbnR3d7/11lsnTpywOoYcyC9/+ctjx47Z3R8+fKj7WqAKOrRqw/L06dOPP/5427ZtqlyjRmdn59/8zd/cuHEjfuShnaxB+bTqDN55mFsn71VzdZRLNb+v8+fPq7Jd0i9Uv9akGskzfX19hw4dUln6myBq/5/+6Z/sAXX+pZdemjp16oYNG1Qe1s5p5MyePXvTpk3R8SB4gFCquD6XQSs8AB4AoBjwAB6yxOIBQok9gLJ/S/2loVK0PXv22Hkj6QFUnjNnjhLH6dOnL126VAm08j+dnDRp0po1aw4fPqyfKivVjnP3Dz74YMqUKaqslHHdunUqL1++/MGDB/HVyZMnt7W1KXbjxo3z58+fO3euJY7qRo0hse7t3r07Ok5gHmD9+vXz5s376U9/ajdavHhx8kbDdkP9XLt27YIFC5K5uNJi9cperlbKrjb11LqvUEF9qLFJMf39/WpfjesWKuh2zzzzjPSxLFmdlJI7d+4cqZM1XLlyRQpIHDWlvHnGjBkKVH/sqiR6/fXX7V41V0e5pB4qcU/+viZOnKj27aV6WQ49YDJHT56xtH7VqlUrVqxYvXq1otS3+PNjyvt/+MMfxh5AZ/TUjx8//q6Vv2CtbdmyJToeBA8QShXX5zJohQfAAwAUAx7AQ5bYjFo1rQdQAqo0VNmzsmElbdu3b1ciruTe6ogaDyChkkn8pUuXlPYdOHDA0lyzBKqv8zp8+PBhzeeLlC8qLe7o6FDZbr1o0aKenh67evr0aaWn5gHs3Qm1ZpfEyZMndS9ruQbzAMuWLYs7JmOjJPjixYsqj94NlZXxK++3S0ImR4m+RpQ0kTKyJXHmbZbA5LIzSZS169l1azuMw03P0TtZw9OnT80Uxb8Lk1qJux2q27pXHPvll1/OmjVLPR/90ieffKKHjX9fQqrqzLlz51T2eAD9gvRrsqvqm3ooE2VqqJoqK8Su1mBjQ8+rPkSnBsEDhFLF9bkMWuEB8AAAxZBu6rFP+MEDhGIeQMmf0jJLAe0wfgncqPEAEyZMUC5rl8Tu3buVX3711VfR8bffqqwz+/fvj46/j9pRa5bZd3V1tbS0qAW7JO7evbtgwQLzAH19fatXr45fJleWqVxz6NcVDEuvjx8/Hh3/5Uyyq0mS3bh165YyV0uRheW18kLKWe1Zkj0UOpRDuHnzZnQ8Kkn1QjtZQzIdNzVkn+7dixJo9VZWSvT39490SQU9pjSX8nZJ2DPa43s8QPI9Eztjvy8djuIB9Ft766235B/kYdSN6OwgeIBQqrg+l0ErPAAeAKAY0k099gk/eIBQ5AHshepkVmevzSdT7RoPEJcNpX328Y+tf0FlnYnzSLVz6tSpn/zkJ3PnzlXq3NraKhdhyXcyETdqcsrkK/SWqiYT6CRDk+maM6N0QympMv5YhKQpsh6+9NJL0bMNosMaEZIoA967d+/y5ct1FzF9+vS48pidrME+0//Tn/5UnkRN6fEnTpyYTMdjoZKMckkMTdPleaSJNevxAMmWa84MbdzQoFq1apW8xyeffFJjAAQeIJQqrs9l0AoPgAcAKIZ0U499wg8eIBR5APu8jZ69hmSOG+oBDPtEuJI/ZcNKqXfs2HFmELWgQ0u+7cMtVjZqcsrkS/LK/pUHj/RbHj29Hr0bwvJ+mQ3daPPmzfGL6HpSPW+NBxD21V6LTWKf4FcefOTIEbuRlEnnAeyrBUr6N27c+A//8A9q6r333lPjI6XjMaNckqmQC6pJ01Vt6dKlOq+rdfIAe/bskQiXL1+Ojr8PHiCUKq7PZdAKD4AHACiGdFOPfcIPHiAUeQBLzv72b//WElZDhzoZfzNYiXKcxSbLxpYtW4ZN+4yOjo4JEyb83d/9XXT8l0/MW/JtGXaciAvLR5NZprqh1L+rq2v16tVmBux8DaOn16N3Q9hnkOQQ7HNB8bN3dnbOmDEj2cPRkRqtra3JTGP//v2xYqN3sga79a5du+JHTv5RnZrkO8kol8TQND2Z5SfLRvLM0JZrzgxt3JAhPHToUF9fX3T8ffAAoVRxfS6DVngAPABAMaSbeuwTfvAAocgDzJ8/f+gn7O0DQrpk30ZN5v3JsnHy5MlJkybFXycQjx49+rd/+zdLCpXdqr4SbrukdPadd96R1JZVW8Kd/H6tvS+RzDJ1L0uFn3/++eRdahg9vR69G4byftkAZastLS3xn/25d+/eokWLaiT64x//+L/+1/+K/55mEiXB8jBx53t6ehSezgMoRIFnz56NjgellpOJE3Q5FmkVd1U3VT//+q//+vHjx6NcOn78eM3v6+LFi1OmTLEPWdnngjZs2BAbj9/+9re6mtEDjA4eIJQqrs9l0AoP8N3ABYBCiCZhCOwTfvAAocgDDP0PmwxlpfGl0T2Assa2tjYljp2dnUoclfUqg1QC+sUXX+iqfdrnF7/4hXJoeYMDBw4oGdVVe3lbqf+WLVsmT5586tSp/v5+/QZff/311tbWZJapQIUobR3lb2iK0dPr0bth9VVH2b8eRJeSGb+SY0khz6BA5f0dHR0K3LZtW+xbkshI6EYffvihmtXjrFu3bvXq1cqhlUnr6uidrEHhs2fPVvjDhw8ljgyAZFH31qxZY3/HUwqrJz/+8Y+//PJLeRX1UP1UtdEv3bx5U+5OzsTSId1l2bJlOmNfcbbvYSv2woULekD9TmVpZs2a5fQA8h4aHufPn7fvH1sdGQ/ZPFHzd0Jj8AChVHF9LoNWeIAwGKN+0MoPWvlBKz8ZtbJNvamw9wHsxf4a7IP4lg2P7gHEjRs3lEdOmDBBGgoFKoO0S8pWlWdPnDhR5/VT9uD27dtvvvmmDi1xvHPnju5iscqVjx07tnHjxjinNGRFVCH5mv1QRk+vx+yG6lg6qzOWK8co7z969KieWpeEHIu8hPxAdPn7KJNesmSJ1VTIr371qz/84Q/KoXWo/o/eyRqUQ0sNaaIKenwp/Kc//Wnnzp0qx6+1S2e5AlUQqnno0CGzB6Nfun79+ssvv2ya66fKOmOXhPL+OFCFixcvShanB7CvQyhwlDpDwQOEUsX1uQxa4QHCYIz6QSs/aOUHrfxk1Mo29aZCHiAq5UFfX58S02HzPLs00sfBxf379+U64iS1BnmA5OdzUjNmN0ZBGXlPT486OexHgGqwx/HUHBNpoqZGyp6NUW43yiW1OZIa9rDJ1/L9qMN3794NenY8QChVXJ/LoFXkAXQKPEj3qARjgVZ+0MoPWvnJqBUeoJwoE120aNGWLVuG/ewNNAAV9QDRwpEW1nY/eWnF+wBhSPeoFA5a+UErP2jlB6386L54gLLR2dn505/+dM6cOfPmzRv2D3FCY8D7AKFUcX0ug1Z4gDAYo37Qyg9a+UErPxm1ak4PoPSrtP9+sOnu/7v25sT1X0/d3FNziX8N9i8akdUBDxBKGbTCA4TBGPWDVn7Qyg9a+cmoFe8DAIATPEAoZdAKDxAGY9QPWvlBKz9o5SejVngAAHCCBwilDFrhAcJgjPpBKz9o5Qet/GTUCg8AAE7wAKGUQSs8QBiMUT9o5Qet/KCVn4xa4QEAwAkeIJQyaIUHCIMx6get/KCVH7Tyk1ErPAAAOMEDhFIGrfAAYTBG/aCVH7Tyg1Z+MmqFBwAAJ3iAUMqgFR4gDMaoH7Tyg1Z+0MpPRq3wAADgBA8QShm0wgOEwRj1g1Z+0MoPWvnJqBUeAACc4AFCKYNWeIAwGKN+0MoPWvlBKz8ZtcIDAIATPEAoZdAKDxAGY9QPWvlBKz9o5SejVngAAHCCBwilDFrhAcJgjPpBKz9o5Qet/GTUCg8AAE7wAKGUQSs8QBiMUT9o5Qet/KCVn4xa4QEAwAkeIJQyaIUHCIMx6get/KCVH7Tyk1ErPAAAOMEDhFIGrfAAYTBG/aCVH7Tyg1Z+MmqFBwAAJ3iAUMqgFR4gDMaoH7Tyg1Z+0MpPRq3wAADgBA8QShm0wgOEwRj1g1Z+0MoPWvnJqBUeAACc4AFCKYNWeIAwGKN+0MoPWvlBKz8ZtcIDAIATPEAoZdAq8gA6BR6ke1SCsUArP2jlB638ZNQKDwAATrRcRAtHWljb/eSlFe8DhCHdo1I4aOUHrfyglR+08qP74gEAwAnvA4RSBq3wAGEwRv2glR+08oNWfjJqhQcAACd4gFDKoBUeIAzGqB+08oNWftDKT0at8AAA4AQPEEoZtMIDhMEY9YNWftDKD1r5yagVHgAAnOABQimDVniAMBijftDKD1r5QSs/GbXCAwCAEzxAKGXQCg8QBmPUD1r5QSs/aOUno1Z4AABwggcIpQxa4QHCYIz6QSs/aOUHrfxk1AoPAABO8AChlEErPEAYjFE/aOUHrfyglZ+MWuEBAMAJHiCUMmiFBwiDMeoHrfyglR+08pNRKzwAADjBA4RSBq3wAGEwRv2glR+08oNWfjJqhQcAACd4gFDKoBUeIAzGqB+08oNWftDKT0at8AAA4AQPEEoZtMIDhMEY9YNWftDKD1r5yagVHgAAnOABQimDVniAMBijftDKD1r5QSs/GbXCAwCAEzxAKGXQCg8QBmPUD1r5QSs/aOUno1Z4AABwggcIpQxa4QHCYIz6QSs/aOUHrfxk1AoPAABO8AChlEErPEAYjFE/aOUHrfyglZ+MWuEBAMAJHiCUMmiFBwiDMeoHrfyglR+08pNRKzwAADjBA4RSBq3wAGEwRv2glR+08oNWfjJqhQcAACd4gFDKoBUeIAzGqB+08oNWftDKT0at8AAA4AQPEEoZtIo8gE6BB+kelWAs0MoPWvlBKz8ZtcIDAIATLRfRwpEW1nY/eWnF+wBhSPeoFA5a+UErP2jlB6386L54AABwwvsAoZRBKzxAGIxRP2jlB638oJWfjFrhAQDACR4glDJohQcIgzHqB638oJUftPKTUSs8AAA4wQOEUgat8ABhMEb9oJUftPKDVn4yaoUHAAAneIBQyqAVHiAMxqgftPKDVn7Qyk9GrfAAAOAEDxBKGbTCA4TBGPWDVn7Qyg9a+cmoFR4AAJzgAUIpg1Z4gDAYo37Qyg9a+UErPxm1wgMAgBM8QChl0AoPEAZj1A9a+UErP2jlJ6NWeAAAcIIHCKUMWuEBwmCM+kErP2jlB638ZNQKDwAATvAAoZRBKzxAGIxRP2jlB638oJWfjFrhAQDACR4glDJohQcIgzHqB638oJUftPKTUSs8AAA4wQOEUgat8ABhMEb9oJUftPKDVn4yaoUHAAAneIBQyqAVHiAMxqgftPKDVn7Qyk9GrfAAAOAEDxBKGbTCA4TBGPWDVn7Qyg9a+cmoFR4AAJzgAUIpg1Z4gDAYo37Qyg9a+UErPxm1wgMAgBM8QChl0AoPEAZj1A9a+UErP2jlJ6NWeAAAcIIHCKUMWuEBwmCM+kErP2jlB638ZNQKDwAATvAAoZRBKzxAGIxRP2jlB638oJWfjFrhAQDACR4glDJohQcIgzHqB638oJUftPKTUSs8AAA4wQOEUgatIg+g5sDD7du3oxKMBVr5QSs/aOUno1Z4AABwouUiWjjSwtruJy+teB8gDEkWlcJBKz9o5Qet/KCVH90XDwAATngfIJQyaIUHCIMx6get/KCVH7Tyk1ErPAAAOMEDhFIGrfAAYTBG/aCVH7Tyg1Z+MmqFBwAAJ3iAUMqgFR4gDMaoH7Tyg1Z+0MpPRq3wAADgBA8QShm0wgOEwRj1g1Z+0MoPWvnJqBUeAACc4AFCKYNWeIAwGKN+0MoPWvlBKz8ZtcIDAIATPEAoZdAKDxAGY9QPWvlBKz9o5SejVngAAHCCBwilDFrhAcJgjPpBKz9o5Qet/GTUCg8AAE7wAKGUQSs8QBiMUT9o5Qet/KCVn4xa4QEAwAkeIJQyaIUHCIMx6get/KCVH7Tyk1ErPAAAOMEDhFIGrfAAYTBG/aCVH7Tyg1Z+MmqFBwAAJ3iAUMqgFR4gDMaoH7Tyg1Z+0MpPRq3wAADgBA8QShm0wgOEwRj1g1Z+0MoPWvnJqBUeAACc4AFCKYNWeIAwGKN+0MoPWvlBKz8ZtcIDAIATPEAoZdAKDxAGY9QPWvlBKz9o5SejVngAAHCCBwilDFrhAcJgjPpBKz9o5Qet/GTUCg8AAE7wAKGUQSs8QBiMUT9o5Qet/KCVn4xa4QEAwAkeIJQyaIUHCIMx6get/KCVH7Tyk1ErPAAAOMEDhFIGrfAAYTBG/aCVH7Tyg1Z+MmqFBwAAJ3iAUMqgVeQBdAo8SPeoBGOBVn7Qyg9a+cmoFR4AAJxouYgWjrSwtvvJSyveBwhDukelcNDKD1r5QSs/aOVH98UDAIAT3gcIpQxa4QHCYIz6QSs/aOUHrfxk1AoPAABO8AChlEErPEAYjFE/aOUHrfyglZ+MWuEBAMAJHiCUMmiFBwiDMeoHrfyglR+08pNRKzwAADjBA4RSBq3wAGEwRv2glR+08oNWfjJqhQcAACd4gFDKoBUeIAzGqB+08oNWftDKT0at8AAA4AQPEEoZtMIDhMEY9YNWftDKD1r5yagVHgAAnOABQimDVniAMBijftDKD1r5QSs/GbXCAwCAEzxAKGXQCg8QBmPUD1r5QSs/aOUno1Z4AABwggcIpQxa4QHCYIz6QSs/aOUHrfxk1AoPAABO8AChlEErPEAYjFE/aOUHrfyglZ+MWuEBAMAJHiCUMmiFBwiDMeoHrfyglR+08pNRKzwAADjBA4RSBq3wAGEwRv2glR+08oNWfjJqhQcAACd4gFDKoBUeIAzGqB+08oNWftDKT0at8AAA4AQPEEoZtMIDhMEY9YNWftDKD1r5yagVHgAAnOABQimDVniAMBijftDKD1r5QSs/GbXCAwCAEzxAKGXQCg8QBmPUD1r5QSs/aOUno1Z4AABwggcIpQxa4QHCYIz6QSs/aOUHrfxk1AoPAABO8AChlEErPEAYjFE/aOUHrfyglZ+MWuEBAMAJHiCUMmgVeQCdAg/SPSrBWKCVH7Tyg1Z+MmqFBwAAJ1ouooUjLaztfvLSivcBwpDuUSkctPKDVn7Qyg9a+dF98QAA4IT3AUIpg1Z4gDAYo37Qyg9a+UErPxm1wgMAgBM8QChl0AoPEAZj1A9a+UErP2jlJ6NWeAAAcIIHCKUMWuEBwmCM+kErP2jlB638ZNQKDwAATvAAoZRBKzxAGIxRP2jlB638oJWfjFrhAQDACR4glDJohQcIgzHqB638oJUftPKTUSs8AAA4wQOEUgat8ABhMEb9oJUftPKDVn4yaoUHAAAneIBQyqAVHiAMxqgftPKDVn7Qyk9GrfAAAOAEDxBKGbTCA4TBGPWDVn7Qyg9a+cmoFR4AAJzgAUIpg1Z4gDAYo37Qyg9a+UErPxm1wgMAgBM8QChl0AoPEAZj1A9a+UErP2jlJ6NWeAAAcIIHCKUMWuEBwmCM+kErP2jlB638ZNQKDwAATvAAoZRBKzxAGIxRP2jlB638oJWfjFrhAQDACR4glDJohQcIgzHqB638oJUftPKTUSs8AAA4wQOEUgat8ABhMEb9oJUftPKDVn4yaoUHAAAneIBQyqAVHiAMxqgftPKDVn7Qyk9GrfAAAOAEDxBKGbTCA4TBGPWDVn7Qyg9a+cmoFR4AAJzgAUIpg1Z4gDAYo37Qyg9a+UErPxm1wgMAgBM8QChl0AoPEAZj1A9a+UErP2jlJ6NW2tSbDXmAqAQAgdi6YQtICljb/eSlVeQBdAo8SPeoBGOBVn7Qyg9a+UErP6aVPACMCePKD1r5QSs/eWnF+wBhSPeoFA5a+UErP2jlB638NKdW6T4L1JxapQOt/KCVH7Tyk7wvHiAMxqgftPKDVn7Qyg9a+TGt8AAeGFd+0MoPWvnJSys8QBiMUT9o5Qet/KCVH7TyY1rhATwwrvyglR+08pOXVniAMBijftDKD1r5QSs/aOXHtMIDeGBc+UErP2jlJy+t8ABhMEb9oJUftPKDVn7Qyo9phQfwwLjyg1Z+0MpPXlrhAcJgjPpBKz9o5Qet/KCVH9MKD+CBceUHrfyglZ+8tMIDhMEY9YNWftDKD1r5QSs/phUewAPjyg9a+UErP3lphQcIgzHqB638oJUftPKDVn5MKzyAB8aVH7Tyg1Z+8tIKDxAGY9QPWvlBKz9o5Qet/JhWeAAPjCs/aOUHrfzkpRUeIAzGqB+08oNWftDKD1r5Ma3wAB4YV37Qyg9a+clLKzxAGIxRP2jlB638oJUftPJjWuEBPDCu/KCVH7Tyk5dWeIAwGKN+0MoPWvlBKz9o5ce0wgN4YFz5QSs/aOUnL63wAGEwRv2glR+08oNWftDKj2mFB/DAuPKDVn7Qyk9eWuEBwmCM+kErP2jlB638oJUf0woP4IFx5Qet/KCVn7y0wgOEwRj1g1Z+0MoPWvlBKz+mFR7AA+PKD1r5QSs/eWmFBwiDMeoHrfyglR+08oNWfkwrPIAHxpUftPKDVn7y0goPEAZj1A9a+UErP2jlB638mFZ4AA+MKz9o5Qet/OSlFR4gDMaoH7Tyg1Z+0MoPWvkxrfAAHhhXftDKD1r5yUsrPEAYjFE/aOUHrfyglR+08mNa4QE8MK78oJUftPKTl1aRB9Ap8CDdoxKMBVr5QSs/aOUHrfyYVvIAMCaMKz9o5Qet/OSlFe8DhCHdo1I4aOUHrfyglR+08tOcWvE+gAfGlR+08oNWfvLSCg8QBmPUD1r5QSs/aOUHrfyYVngAD4wrP2jlB6385KUVHiAMxqgftPKDVn7Qyg9a+TGt8AAeGFd+0MoPWvnJSys8QBiMUT9o5Qet/KCVH7TyY1rhATwwrvyglR+08pOXVniAMBijftDKD1r5QSs/aOXHtMIDeGBc+UErP2jlJy+t8ABhMEb9oJUftPKDVn7Qyo9phQfwwLjyg1Z+0MpPXlrhAcJgjPpBKz9o5Qet/KCVH9MKD+CBceUHrfyglZ+8tMIDhMEY9YNWftDKD1r5QSs/phUewAPjyg9a+UErP3lphQcIgzHqB638oJUftPKDVn5MKzyAB8aVH7Tyg1Z+8tIKDxAGY9QPWvlBKz9o5Qet/JhWeAAPjCs/aOUHrfzkpRUeIAzGqB+08oNWftDKD1r5Ma3wAB4YV37Qyg9a+clLKzxAGIxRP2jlB638oJUftPJjWuEBPDCu/KCVH7Tyk5dWeIAwGKN+0MoPWvlBKz9o5ce0wgN4YFz5QSs/aOUnL63wAGEwRv2glR+08oNWftDKj2mFB/DAuPKDVn7Qyk9eWuEBwmCM+kErP2jlB638oJUf0woP4IFx5Qet/KCVn7y0wgOEwRj1g1Z+0MoPWvlBKz+mFR7AA+PKD1r5QSs/eWmFBwiDMeoHrfyglR+08oNWfkwrPICHosbV//2//zcqhVNU7L1796JSOFV8XrTyUwat8ABhsKf6QSs/aOUHrfyglR/TCg/goahx1cy5Wiho5ad5tfr22/8/tE3QosP7F/kAAAAASUVORK5CYII=;" vertex="1" parent="1">
          <mxGeometry x="410" y="160" width="275" height="161.78" as="geometry" />
        </mxCell>
        <mxCell id="1zaY6Ha-qX9hshtsLtst-5" style="edgeStyle=orthogonalEdgeStyle;rounded=0;orthogonalLoop=1;jettySize=auto;html=1;" edge="1" parent="1" source="1zaY6Ha-qX9hshtsLtst-4" target="1zaY6Ha-qX9hshtsLtst-3">
          <mxGeometry relative="1" as="geometry" />
        </mxCell>
        <mxCell id="1zaY6Ha-qX9hshtsLtst-6" style="edgeStyle=orthogonalEdgeStyle;rounded=0;orthogonalLoop=1;jettySize=auto;html=1;entryX=0.25;entryY=0.1;entryDx=0;entryDy=0;entryPerimeter=0;" edge="1" parent="1" source="1zaY6Ha-qX9hshtsLtst-4" target="1zaY6Ha-qX9hshtsLtst-2">
          <mxGeometry relative="1" as="geometry" />
        </mxCell>
        <mxCell id="1zaY6Ha-qX9hshtsLtst-4" value="Interacting with the auth system" style="rhombus;whiteSpace=wrap;html=1;" vertex="1" parent="1">
          <mxGeometry x="220" y="175.44" width="110" height="130.89" as="geometry" />
        </mxCell>
        <mxCell id="1zaY6Ha-qX9hshtsLtst-9" style="edgeStyle=orthogonalEdgeStyle;rounded=0;orthogonalLoop=1;jettySize=auto;html=1;entryX=0.5;entryY=1;entryDx=0;entryDy=0;" edge="1" parent="1" source="1zaY6Ha-qX9hshtsLtst-8" target="1zaY6Ha-qX9hshtsLtst-4">
          <mxGeometry relative="1" as="geometry" />
        </mxCell>
        <mxCell id="1zaY6Ha-qX9hshtsLtst-11" style="edgeStyle=orthogonalEdgeStyle;rounded=0;orthogonalLoop=1;jettySize=auto;html=1;entryX=0.5;entryY=0;entryDx=0;entryDy=0;" edge="1" parent="1" source="1zaY6Ha-qX9hshtsLtst-8" target="1zaY6Ha-qX9hshtsLtst-10">
          <mxGeometry relative="1" as="geometry" />
        </mxCell>
        <mxCell id="1zaY6Ha-qX9hshtsLtst-8" value="user specific database record" style="shape=cylinder3;whiteSpace=wrap;html=1;boundedLbl=1;backgroundOutline=1;size=15;" vertex="1" parent="1">
          <mxGeometry x="280" y="341.78" width="60" height="80" as="geometry" />
        </mxCell>
        <mxCell id="1zaY6Ha-qX9hshtsLtst-10" value="" style="shape=image;verticalLabelPosition=bottom;labelBackgroundColor=default;verticalAlign=top;aspect=fixed;imageAspect=0;image=data:image/png,iVBORw0KGgoAAAANSUhEUgAABDMAAAJTCAIAAACaccqMAAAAAXNSR0IArs4c6QAAAARnQU1BAACxjwv8YQUAAAAJcEhZcwAADsMAAA7DAcdvqGQAAOZbSURBVHhe7P35m1VFtq4Nf39cgWJTAoJNIWxR7KAU+w4VEZUNKiJbLCwRsRTsSktLsRfEjsKNikqJAi9yUFQ8533F7sKtl/rd5pjECWKutfJZ5ERywnP/kNdsYsSMeCJGxBhzrcz8//1/Q+b/McYYY4wxxhxmVMlAczgzMcYYY4wxxvRNlQw0hzMTY4wxxhhjTN9UyUBzODMxxhhjjDHG9E2VDDTHUDOT//f//X+rphljjDHGGGMOG0gEqpSgIYaUmdAaZybGGGOMMcYchkQuUCUGTdBMZvKrMcYYY4wx5rBheGUm0ZT/83/+zxAzE6qqjvqnjbb/63/9r+qof6yVjrXSsVY61krHWulYKx1rpWOtdKyVTv5cUgASgcgIuN4Izkz2h6HY2nN0rJWOtdKxVjrWSsda6VgrHWulY610mtJq2GUmtOZ//+//7cykL+w5OtZKx1rpWCsda6VjrXSslY610rFWOk1pRQpAIhDJCdcbwZnJ/jAUW3uOjrXSsVY61krHWulYKx1rpWOtdKyVTlNaOTMpaaOtPUfHWulYKx1rpWOtdKyVjrXSsVY61kqnKa2cmZS00daeo2OtdKyVjrXSsVY61krHWulYKx1rpdOUVs5MStpoa8/RsVY61krHWulYKx1rpWOtdKyVjrXSaUorZyYlbbS15+hYKx1rpWOtdKyVjrXSsVY61krHWuk0pZUzk5I22tpzdKyVjrXSsVY61krHWulYKx1rpWOtdJrSyplJSRtt7Tk61krHWulYKx1rpWOtdKyVjrXSsVY6TWnlzKSkjbb2HB1rpWOtdKyVjrXSsVY61krHWulYK52mtHJmUtJGW3uOjrXSsVY61krHWulYKx1rpWOtdKyVTlNaOTMpaaOtPUfHWulYKx1rpWOtdKyVjrXSsVY61kqnKa2cmZS00daeo2OtdKyVjrXSsVY61krHWulYKx1rpdOUVs5MStpoa8/RsVY61krHWulYKx1rpWOtdKyVjrXSaUorZyYlbbS15+hYKx1rpWOtdKyVjrXSsVY61krHWuk0pZUzk5I22tpzdKyVjrXSsVY61krHWulYKx1rpWOtdJrSyplJSRtt7Tk61krHWulYKx1rpWOtdKyVjrXSsVY6TWnlzKSkjbb2HB1rpWOtdKyVjrXSsVY61krHWulYK52mtBrWmUl11QwGs6E6MoNhrXSslY610rFWOtZKx1rpWCsda6XToFb+zGQf2mjLbKiO+sda6VgrHWulY610rJWOtdKxVjrWSsda6eTP9be5Stpoa8/RsVY61krHWulYKx1rpWOtdKyVjrXSaUorZyYlbbS15+hYKx1rpWOtdKyVjrXSsVY61krHWuk0pZUzk5I22tpzdKyVjrXSsVY61krHWulYKx1rpWOtdJrSyplJSRtt7Tk61krHWulYKx1rpWOtdKyVjrXSsVY6TWnlzKSkjbb2HB1rpWOtdKyVjrXSsVY61krHWulYK52mtHJmUtJGW3uOjrXSsVY61krHWulYKx1rpWOtdKyVTlNaOTMpaaOtPUfHWulYKx1rpWOtdKyVjrXSsVY61kqnKa2cmZS00daeo2OtdKyVjrXSsVY61krHWulYKx1rpdOUVs5MStpoa8/RsVY61krHWulYKx1rpWOtdKyVjrXSaUorZyYlbbS15+hYKx1rpWOtdKyVjrXSsVY61krHWuk0pZUzk5I22tpzdKyVjrXSsVY61krHWulYKx1rpWOtdJrSyplJSRtt7Tk61krHWulYKx1rpWOtdKyVjrXSsVY6TWnlzKSkjbb2HB1rpWOtdKyVjrXSsVY61krHWulYK52mtHJmUtJGW3uOjrXSsVY61krHWulYKx1rpWOtdKyVTlNaOTMpaaOtPUfHWulYKx1rpWOtdKyVjrXSsVY61kqnKa2cmZS00daeo2OtdKyVjrXSsVY61krHWulYKx1rpdOUVs5MStpoa8/RsVY61krHWulYKx1rpWOtdKyVjrXSaUorZyYlbbS15+hYKx1rpWOtdKyVjrXSsVY61krHWuk0pdWwzkyqq2YwmA3VkRkMa6VjrXSslY610rFWOtZKx1rpWCudBrXyZyb70EZbZkN11D/WSsda6VgrHWulY610rJWOtdKxVjrWSid/rr/NVdJGW3uOjrXSsVY61krHWulYKx1rpWOtdKyVTlNaOTMpaaOtPUfHWulYKx1rpWOtdKyVjrXSsVY61kqnKa2cmZS00daeo2OtdKyVjrXSsVY61krHWulYKx1rpdOUVs5MStpoa8/RsVY61krHWulYKx1rpWOtdKyVjrXSaUorZyYlbbS15+hYKx1rpWOtdKyVjrXSsVY61krHWuk0pZUzk5I22tpzdKyVjrXSsVY61krHWulYKx1rpWOtdJrSyplJSRtt7Tk61krHWulYKx1rpWOtdKyVjrXSsVY6TWnlzKSkjbb2HB1rpWOtdKyVjrXSsVY61krHWulYK52mtHJmUtJGW3uOjrXSsVY61krHWulYKx1rpWOtdKyVTlNaOTMpaaOtPUfHWulYKx1rpWOtdKyVjrXSsVY61kqnKa2cmZS00daeo2OtdKyVjrXSsVY61krHWulYKx1rpdOUVs5MStpoa8/RsVY61krHWulYKx1rpWOtdKyVjrXSaUorZyYlbbS15+hYKx1rpWOtdKyVjrXSsVY61krHWuk0pZUzk5I22tpzdKyVjrXSsVY61krHWulYKx1rpWOtdJrSyplJSRtt7Tk61krHWulYKx1rpWOtdKyVjrXSsVY6TWnlzKSkjbb2HB1rpWOtdKyVjrXSsVY61krHWulYK52mtHJmUtJGW3uOjrXSsVY61krHWulYKx1rpWOtdKyVTlNaOTMpaaOtPUfHWulYKx1rpWOtdKyVjrXSsVY61kqnKa2GdWZSXTWDwWyojsxgWCsda6VjrXSslY610rFWOtZKx1rpNKiVPzPZhzbaMhuqo/6xVjrWSsda6VgrHWulY610rJWOtdKxVjr5c/1trpI22tpzdKyVjrXSsVY61krHWulYKx1rpWOtdJrSyplJSRtt7Tk61krHWulYKx1rpWOtdKyVjrXSsVY6TWnlzKSkjbb2HB1rpWOtdKyVjrXSsVY61krHWulYK52mtHJmUtJGW3uOjrXSsVY61krHWulYKx1rpWOtdKyVTlNaOTMpaaOtPUfHWulYKx1rpWOtdKyVjrXSsVY61kqnKa2cmZS00daeo2OtdKyVjrXSsVY61krHWulYKx1rpdOUVs5MStpoa8/RObS1+oMxxpjfkeG/L9RxzKBjrXScmfSCqqqj/mmjrT1H55DPTKojY4wxBxhnJn1hrXQOZ62cmZS00daeo+PMxBhjTCM4M+kLa6VzOGvlzKSkjbb2HB1nJsYYYxrBmUlfWCudw1krZyYlbbS15+g4MzHGGNMIzkz6wlrpHM5aOTMpaaOtPUfHmYkxxphGcGbSF9ZK53DWyplJSRtt7Tk6zkyMMcY0gjOTvrBWOoezVs5MStpoa8/RcWZijDGmEZyZ9IW10jmctXJmUtJGW3uOjjMTY4wxjeDMpC+slc7hrJUzk5I22tpzdJyZGGOMaQRnJn1hrXQOZ62cmZS00daeo+PMxBhjTCM4M+kLa6VzOGvlzKSkjbb2HB1nJsYYYxrBmUlfWCudw1mrYZ2ZVFfNYDAbqiMzGIe2Vs5MjDHmdyMyk9bhmEHHWuk0qJU/M9mHNtoyG6qj/rFWOsO/v85MjDHmd8OfmfSFtdI5nLXyt7lK2mhrz9FxZmKMMaYRnJn0hbXSOZy1cmZS0kZbe46OMxNjjDGN4MykL6yVzuGslTOTkjba2nN0nJkYY4xpBGcmfWGtdA5nrZyZlLTR1p6j48zEGGNMIzgz6QtrpXM4a+XMpKSNtvYcHWcmxhhjGsGZSV9YK53DWStnJiVttLXn6DgzMcYY0wjOTPrCWukczlo5Mylpo609R8eZiTEiu3fvvu2221avXl2d9wNW2FJDXsmOHTtuuummjRs3RpkG+eGHH5YuXbp/TTVmv3Fm0hfWSudw1sqZSUkbbe05Os5MzOHJt99+++c///naa6+tzvfy7rvv/vGPf3zxxRer84wvvvji5JNPvvvuu6vzfnjwwQenTp365Zdf5pX0eNYQid7tX1ON2W+cmfSFtdI5nLVyZlLSRlt7jo4zE3N48jtnJglnJuYQxplJX1grncNZK2cmJW20tefoODMxhydKZsJMW7Vq1a5dux5++OGlS5fiLPXMZM+ePatXr96xY0d++vbbb8fpTz/9tHbt2vfee2/z5s1c566YmVDymWeemTNnzn333ffNN99QYaoz3QIOOI3rOSkz2bJly4IFCyhJR37++ee4+8svv3z00Udcv+GGGx555BHqj+tFf3/44Qcufvrpp4sXL6bksmXLaHyUNKYjzkz6wlrpHM5aOTMpaaOtPUfn0NbKmYnphpKZRBZx5ZVXTpw48S9/+cvHH39cz0zIPa644op58+bF6bp16zC/+OKLI6zfuXMnJtSGFQdUGHX2zkx+/PFHMoHRo0ffeeedZAVnnXXW1KlTo6lff/319OnTqYGMBTjglIthmIje0Yxzzz2XYjNnzjzyyCNJLbhFWsIBz6XNTzzxxPnnnz9hwoStW7dyq+jv999//9xzz1ESc0rykybRwYEnGNMBZyZ9Ya10DmetnJmUtNHWnqPjzMQcnuiZyQUXXBCfS+RJRU78DgkVcsxdYv0zzzxz+/btnL722muYcNxXZrJ+/XpygDVr1sTpq6++OmrUqGjq8uXLTzjhhG3btsWtTZs2HX/88U8++WScJqJ3NINNhNNIn8hhSDa2bNlCDWQaUZKu0cG5c+eSsUTbUn+xPe20026//XZuccpPiqW7xtRxZtIX1krncNbKmUlJG23tOTrOTMzhiZ6ZkHjErTypyMHklFNO2bx5cyQAlL/wwgvJSbi1cOFCrnC9r8yEGk466aSdO3fG6VdffUWOQVOj/qgwbkUvZs+eHaeJuH7XXXdV5wMpE1e4/txzz5GZROIUcIv6eUq0LfX3nXfeGTduXP4hCU0tbI3JcWbSF9ZK53DWyplJSRtt7Tk6zkzM4YmemaTMIU8qciJzIOL/7LPPzjrrLFIUEhL4/vvvp0+fHoF+X5lJKhynkZDQ1Hqbu/UirudN5TgyEw7wi4K8bak9HFS3M2gwzY4CxhQwQ4b/vlDHMYOOtdJxZtILqqqO+qeNtvYcHWcm5vAkwv34glN1aYB33nnnuOOOi/8EUkTqcZqH+4l5A7z22mvnnXce0T8m559//gcffPAf//EfEcenZCOvRMxMUvpRz0PqV4K4njeV48hMli1blleeE21L7UGE0aNHOw8xOs5M+sJa6RzOWjkzKWmjrT1Hx5mJOWy544478t/ZgF9++eX2228/6aSTwi+KSD1PKgooQ9z/n//5n+QnnG7fvv3MM8+877774ltSXEnJRl5Jt8zkueeeO/744zdv3hynNIYmRfpB/alOYIM49dRTFy5cGKeJHpkJ6RP5xvr166sbv/5KbhZ/tivaltpDA4pfYvmf//mfH3/8sToxpoYzk76wVjqHs1bOTEraaGvP0Tm0tXJmYnqwY8eOiRMnTpky5b333iPgZr1dsmTJ0UcfTRAfv/NdROp5UlFAKvIf//Ef5A8kFZySAJx77rl/+tOfIlEBrPTMBK+kqtmzZ+/Zs+ebb7654YYbxo0bF5nJunXryCvIFmgh6QQNHjt27Pvvvx+GiR6Zyddff33WWWedd9554Uc7d+6cNm3a3LlzqS3altrz008/XXXVVUgUyRstueaaay688MLiUyZjEs5M+sJa6RzOWjkzKWmjrT1H59DWypmJ6Q3JycUXXzxy5EimCpAAEPSn//tRROp5UlHwww8/UE/+QcfChQtHjBiRbPvKTGD16tU0hiaRh6xcuXLmzJmRmZCQcMrFo446atSoUZSJL54V9MhMOKbXZCM0j/rpO/lG/N3haFveHnyN5CT0oTxW6ffyjanDPBn++0Idxww61krnsMhM6KRRYH+tjsxgHNpasU2GYxvTgx9//PHLL7/cvXt3dT7MiDQj/wNc5CfsDkNsMNXSa+XbWeRdLBTxH1qM6QFLbrX4tgrHDDrWSqdBrfyZyT600ZZRrI76x1rpDP/+OjMxbeSzzz4788wz7977pbK33347vsEVd40Ztvgzk76wVjqHs1b+NldJG23tOTrOTIwZbpCQrFix4thjjx03btwJJ5xw5JFHzpkzx796boY/zkz6wlrpHM5aOTMpaaOtPUfHmYkxw5Mffvhh06ZN77zzzrD9mpkxBc5M+sJa6RzOWjkzKWmjrT1Hx5mJMcaYRnBm0hfWSudw1sqZSUkbbe05Os5MjDHGNIIzk76wVjqHs1bOTEraaGvP0XFmYowxphGcmfSFtdI5nLVyZlLSRlt7jo4zE2OMMY3gzKQvrJXO4ayVM5OSNtrac3ScmRhjjGkEZyZ9Ya10DmetnJmUtNHWnqPjzMQYY0wjODPpC2ulczhr5cykpI229hwdZybGGGMawZlJX1grncNZK2cmJW20tefoODMxxhjTCM5M+sJa6RzOWjkzKWmjrT1Hx5mJMcaYRnBm0hfWSudw1sqZSUkbbe05Os5MjDHGNIIzk76wVjqHs1bOTEraaGvP0XFmYowxphGcmfSFtdI5nLVyZlLSRlt7jo4zE2OMMY3gzKQvrJXO4ayVM5OSNtrac3ScmRhjjGkEZyZ9Ya10DmetnJmUtNHWnqPjzMQYY0wjODPpC2ulczhr5cykpI229hwdZybGGGMawZlJX1grncNZK2cmJW20tefoODMxxhjTCM5M+sJa6RzOWg3rzKS6agaD2VAdmcE4tLVyZmKMMb8bkZm0DscMOtZKp0Gt/JnJPrTRltlQHfWPtdIZ/v1lmzTGGPO7Mfz3hTqOGXSslU5TWvnbXCVttLXn6FgrHWulY610rJWOtdKxVjrWSsda6TSllTOTkjba2nN0rJWOtdKxVjrWSsda6VgrHWulY610mtLKmUlJG23tOTrWSsda6VgrHWulY610rJWOtdKxVjpNaeXMpKSNtvYcHWulY610rJWOtdKxVjrWSsda6Vgrnaa0cmZS0kZbe46OtdKxVjrWSsda6VgrHWulY610rJVOU1o5Mylpo609R8da6VgrHWulY610rJWOtdKxVjrWSqcprZyZlLTR1p6jY610rJWOtdKxVjrWSsda6VgrHWul05RWzkxK2mhrz9GxVjrWSsda6VgrHWulY610rJWOtdJpSitnJiVttLXn6FgrHWulY610rJWOtdKxVjrWSsda6TSllTOTkjba2nN0rJWOtdKxVjrWSsda6VgrHWulY610mtLKmUlJG23tOTrWSsda6VgrHWulY610rJWOtdKxVjpNaeXMpKSNtvYcHWulY610rJWOtdKxVjrWSsda6Vgrnaa0cmZS0kZbe46OtdKxVjrWSsda6VgrHWulY610rJVOU1o5Mylpo609R8da6VgrHWulY610rJWOtdKxVjrWSqcprZyZlLTR1p6jY610rJWOtdKxVjrWSsda6VgrHWul05RWzkxK2mhrz9GxVjrWSsda6VgrHWulY610rJWOtdJpSitnJiVttLXn6FgrHWulY610rJWOtdKxVjrWSsda6TSllTOTkjba2nN0rJWOtdKxVjrWSsda6VgrHWulY610mtJqWGcm1VUzGMyG6sgMhrXSsVY61krHWulYKx1rpWOtdKyVToNa+TOTfWijLbOhOuofa6VjrXSslY610rFWOtZKx1rpWCsda6WTP9ff5ippo609R8da6VgrHWulY610rJWOtdKxVjrWSqcprZyZlLTR1p6jY610rJWOtdKxVjrWSsda6VgrHWul05RWzkxK2mhrz9GxVjrWSsda6VgrHWulY610rJWOtdJpSitnJiVttLXn6FgrHWulY610rJWOtdKxVjrWSsda6TSllTOTkjba2nN0rJWOtdKxVjrWSsda6VgrHWulY610mtLKmUlJG23tOTrWSsda6VgrHWulY610rJWOtdKxVjpNaeXMpKSNtvYcHWulY610rJWOtdKxVjrWSsda6Vgrnaa0cmZS0kZbe46OtdKxVjrWSsda6VgrHWulY610rJVOU1o5Mylpo609R8da6VgrHWulY610rJWOtdKxVjrWSqcprZyZlLTR1p6jY610rJWOtdKxVjrWSsda6VgrHWul05RWzkxK2mhrz9GxVjrWSmc4a/UHM2Q8r3SslY610rFWOm3XyplJSRtt7Tk61krHWukMZ60IrKsjs184M+kLa6VjrXSslU7btXJmUtJGW3uOjrXSsVY6w1krZyZDxJlJX1grHWulY6102q6VM5OSNtrac3SslY610hnOWjkzGSLOTPrCWulYKx1rpdN2rZyZlLTR1p6jY610rJXOcNbKmckQcWbSF9ZKx1rpWCudtmvlzKSkjbb2HB1rpWOtdIazVs5Mhogzk76wVjrWSsda6bRdK2cmJW20tefoWCsda6UznLVyZjJEnJn0hbXSsVY61kqn7Vo5Mylpo609R8da6VgrneGslTOTIeLMpC+slY610rFWOm3XalhnJtVVMxjMhurIDIa10rFWOsNZK2cmQyQyk4OCfVDHWulYKx1rpdOgVv7MZB/aaMtsqI76x1rpWCsda6VzoNvszGSI+DOTvrBWOtZKx1rptF0rf5urpI229hwda6VjrXSGs1bOTIaIM5O+sFY61krHWum0XStnJiVttLXn6FgrHWulM5y1cmYyRJyZ9IW10rFWOtZKp+1aOTMpaaOtPUfHWulYK53hrJUzkyHizKQvrJWOtdKxVjpt18qZSUkbbe05OtZKx1rpDGetnJkMEWcmfWGtdKyVjrXSabtWzkxK2mhrz9GxVjrWSmc4a+XMZIg4M+kLa6VjrXSslU7btXJmUtJGW3uOjrXSsVY6w1krZyZDxJlJX1grHWulY6102q6VM5OSNtrac3SslY610hnOWg2TzGTHjh233XYbP6vzjB63RLC96aabNm7cWJ03ijOTvrBWOtZKx1rptF0rZyYlbbS15+hYKx1rpTOctTrQmcnXX3991llnHXnkkWvWrKkudeLdd9896aST+FmdZ/S4JYLtH//4xxdffLE6bxRnJn1hrXSslY610mm7Vs5MStpoa8/RsVY61kpnOGt1oDMTEpLx48dPnjx57ty5v/zyS3W1hjOT/cA+qGOtdKyVjrXSaUorZyYlbbS15+hYKx1rpTOctTqgmQmpCAnJFVdc8fjjj5NdFDps2bJlwYIFc+bMWbVq1TvvvJOnHz1uJTZv3rx69eo9e/bEKZ194YUXPvvss7i1du3anTt3Lly4kDLOTOocrDZbKx1rpWOtdNqulTOTkjba2nN0rJWOtdIZzlod0MyEjpNUPPnkk19++eWkSZOWL19e3fj1V/KNsWPHXnLJJU888cS11157+eWXp/Sjx62cu+++++STT/7iiy/iNE8/+InJnwd45plnnJnUOVhttlY61krHWum0XStnJiVttLXn6FgrHWulM5y1OqCZCakICQlpCcd33HHHWWed9fXXX3P8008/XXXVVRdccEF84hEfrZA8kEL0uMVpTu/MhH6lRMiZSZ2D1WZrpWOtdKyVTtu1cmZS0kZbe46OtdKxVjrDWasDl5nE776TkMTp+vXrR48eHb8H/9VXX5155pkLFy6MW0DaEOlHj1vV+V56ZybHH3/85s2b67cax5lJX1grHWulY6102q6VM5OSNtrac3SslY610hnOWh24zIQk5OijjyYzeWaAxx9/fMKECbNmzfrll19IJ0gqSC2qor/+um7duvHjx5NC9LhVne+ld2bS7VbjODPpC2ulY610rJVO27VyZlLSRlt7jo610rFWOsNZqwOUmcSXsshMTsoYO3YsP1Gjnn6QNsQHIz1uVed7cWZiH9SxVjrWSsda6TSllTOTkjba2nN0rJWOtdIZzlodoMxk06ZNxx9//JNPPlmdD4AOZCbLly//9ttvp06dGp+fxC0uRvrR41acJpYtW5anH+vWrSMRcmYicrDabK10rJWOtdJpu1bOTEraaGvP0bFWOtZKZzhrdYAykzvuuIPcIP6GbyJ+nT1+D54CY8aMWb9+Pde3bNkyZcqUsWPHRvrR41bOa6+9RipC8kO19PSyyy4bNWqUMxORg9Vma6VjrXSslU7btXJmUtJGW3uOjrXSsVY6w1mrA5GZxN8I7vivFdPvwZOcXHzxxSNGjKABEyZMeOihh07a+6eBe9zK+fbbb6+66qoodvzxx0c24sxE5GC12VrpWCsda6XTdq2GdWZSXTWDwWyojsxgWCsda6UznLU6EJmJDtkFC3s9gYEet3LEYgeOyEwOCvZBHWulY610rJVOg1r5M5N9aKMts6E66h9rpWOtdKyVzoFu88HNTA4B/JlJX1grHWulY6102q6Vv81V0kZbe46OtdKxVjrDWStnJkPEmUlfWCsda6VjrXTarpUzk5I22tpzdKyVjrXSGc5aOTMZIs5M+sJa6VgrHWul03atnJmUtNHWnqNjrXSslc5w1sqZyRBxZtIX1krHWulYK522a+XMpKSNtvYcHWulY610hrNWzkyGiDOTvrBWOtZKx1rptF0rZyYlbbS15+hYKx1rpTOctXJmMkScmfSFtdKxVjrWSqftWjkzKWmjrT1Hx1rpWCud4ayVM5Mh4sykL6yVjrXSsVY6bdfKmUlJG23tOTrWSsda6QxnrZyZDBFnJn1hrXSslY610mm7Vs5MStpoa8/RsVY61kpnOGvlzGSIODPpC2ulY610rJVO27VyZlLSRlt7jo610rFWOsNZK2cmQ8SZSV9YKx1rpWOtdNqulTOTkjba2nN0rJWOtdIZzlo5Mxkizkz6wlrpWCsda6XTdq2cmZS00daeo2OtdKyVznDWypnJEHFm0hfWSsda6VgrnbZr5cykpI229hwda6VjrXSGs1bOTIaIM5O+sFY61krHWum0XStnJiVttLXn6FgrHWulM5y1cmYyRJyZ9IW10rFWOtZKp+1aOTMpaaOtPUfHWulYK53hrBWBtRkinlc61krHWulYK522a+XMpKSNtvYcHWulY610rJWOtdKxVjrWSsda6Vgrnaa0cmZS0kZbe46OtdKxVjrWSsda6VgrHWulY610rJVOU1o5Mylpo609R8da6VgrHWulY610rJWOtdKxVjrWSqcprZyZlLTR1p6jY610rJWOtdKxVjrWSsda6VgrHWul05RWwzozoZNG4YsvvqiOzGBYKx1rpWOtdKyVjrXSsVY61krHWuk0qJU/M9mHNtoyitVR/1grHWulY610rJWOtdKxVjrWSsda6Vgrnfy5/jZXSRtt7Tk61krHWulYKx1rpWOtdKyVjrXSsVY6TWnlzKSkjbb2HB1rpWOtdKyVjrXSsVY61krHWulYK52mtHJmUtJGW3uOjrXSsVY61krHWulYKx1rpWOtdKyVTlNaOTMpaaOtPUfHWulYKx1rpWOtdKyVjrXSsVY61kqnKa2cmZS00daeo2OtdKyVjrXSsVY61krHWulYKx1rpdOUVs5MStpoa8/RsVY61krHWulYKx1rpWOtdKyVjrXSaUorZyYlbbS15+hYKx1rpWOtdKyVjrXSsVY61krHWuk0pZUzk5I22tpzdKyVjrXSsVY61krHWulYKx1rpWOtdJrSyplJSRtt7Tk61krHWulYKx1rpWOtdKyVjrXSsVY6TWnlzKSkjbb2HB1rpWOtdKyVjrXSsVY61krHWulYK52mtHJmUtJGW3uOjrXSsVY61krHWulYKx1rpWOtdKyVTlNaOTMpaaOtPUfHWulYKx1rpWOtdKyVjrXSsVY61kqnKa2cmZS00daeo2OtdKyVjrXSsVY61krHWulYKx1rpdOUVs5MStpoa8/RsVY61krHWulYKx1rpWOtdKyVjrXSaUorZyYlbbS15+hYKx1rpWOtdKyVjrXSsVY61krHWuk0pZUzk5I22tpzdKyVjrXSsVY61krHWulYKx1rpWOtdJrSyplJSRtt7Tk61krHWulYKx1rpWOtdKyVjrXSsVY6TWnlzKSkjbb2HB1rpWOtdKyVjrXSsVY61krHWulYK52mtBrWmUl11QwGs6E6MoNhrXSslY610rFWOtZKx1rpWCsda6XToFb+zGQf2mjLbKiO+sda6VgrHWulY610rJWOtdKxVjrWSsda6eTP9be5Stpoa8/RsVY61krHWulYKx1rpWOtdKyVjrXSaUorZyYlbbS15+hYKx1rpWOtdKyVjrXSsVY61krHWuk0pZUzk5I22tpzdKyVjrXSsVY61krHWulYKx1rpWOtdJrSyplJSRtt7Tk61krHWulYKx1rpWOtdKyVjrXSsVY6TWnlzKSkjbb2HB1rpWOtdKyVjrXSsVY61krHWulYK52mtHJmUtJGW3uOjrXSsVY61krHWulYKx1rpWOtdKyVTlNaOTMpaaOtPUfHWulYKx1rpWOtdKyVjrXSsVY61kqnKa2cmZS00daeo2OtdKyVjrXSsVY61krHWulYKx1rpdOUVs5MStpoa8/RsVY61krHWulYKx1rpWOtdKyVjrXSaUorZyYlbbS15+hYKx1rpWOtdKyVjrXSsVY61krHWuk0pZUzk5I22tpzdKyVjrXSsVY61krHWulYKx1rpWOtdJrSyplJSRtt7Tk61krHWulYKx1rpWOtdKyVjrXSsVY6TWnlzKSkjbb2HB1rpWOtdKyVjrXSsVY61krHWulYK52mtHJmUtJGW3uOjrXSsVY61krHWulYKx1rpWOtdKyVTlNaOTMpaaOtPUfHWulYKx1rpWOtdKyVjrXSsVY61kqnKa2cmZS00daeo2OtdKyVjrXSsVY61krHWulYKx1rpdOUVs5MStpoa8/RsVY61krHWulYKx1rpWOtdKyVjrXSaUorZyYljdv+wRhjjDHGmEOXwyIzqa62HEYrtDbGGGOMMeYQIzKTKvAdMv7MZB8at3VmYowxxhhjDlUOl89M9huqqo76p3FbZybGGGOMMeZQxZnJIFBVddQ/jds6MzHGGGOMMYcqzkwGgaqqo/5p3NaZiTHGGGOMOVRxZjIIVFUd9U/jts5MjDHGGGPMoYozk0Ggquqofxq3dWZijDHGGGMOVZyZDAJVVUf907itMxNjjDHGGHOo4sxkEKiqOuqfxm2dmRhjjDHGmEMVZyaDQFXVUf80bvs7ZyarV6++7bbbdu/eXZ0bY4z5fdmxY8dNN920cePG6lzju+++u+++++bMmbN58+bqkjGmDeyfyx9KODMZBKqqjvqncduhZCZffPHFySeffPfdd1fne3nxxRf/+Mc/vvvuu9V5BoUxwbA6N8YY8/vC4swSzUJdnXdhz549a9eu5Wec3nLLLVjNnDnzcI5vjGkjmzZtmjx58muvvVadt43NA1Qn+4Uzk0Ggquqofxq3dWZijDGHFWJmQgYyZcqUtFxfO0AcG2PM78bs2bProWZfODMZBKqqjvqncdsDnZm8PcDWrVvnzZvHPufMxBhjfgdY8FetWvXll1+yArP8LliwgDX5l19+4VaRmbC1PfLIIzfccENeZvPmzZyOGTPm4YcfZulevXr1tAGeeeaZzz77jALbtm1btGgRVvzkeKCm3z5moeTOnTuff/75+OLue++9t379eg7im2A06eeff2YLWLx4Ma2ibfE4Y8wQ+frrr3Hq/LOFn376ae3atevWrSN2feGFF8Jz4bvvvnviiScKl8cZcdXkj5ziy+kjU6pds2bNDz/8EKeJb775JlYPPDoP7dJ13Py1117D67kY60PeQp5CC2knNVP/jh07tmzZQqvSWoHJc889N2nSpGuuuSZvT784MxkEqqqO+qdx2wOdmXD3tNNOmzJlykUXXcQUdGZijDG/A5F+nHvuuX/+85/vuusuDo4++ujIRvLM5P333x87dix3CSOIIY499thly5ZxnSDgjDPOOOaYYwgIVq5cSZrxpwEINUhUnn32WWqbOXMm8Q0/OeYKVt9++y2Pu/jiiydMmEBswabJmk9Ucf755xO4UPLII4+kKsqQqFx11VUYvvrqqxgaY4YIwT2uh1sR6McVYvGTTjrpwQcfzF2e6H/y5MlEZbj8nXfeOWbMmEWLFpGQ4MunnnoqUS5lvvrqqzPPPHP8+PGRRXCXdWDWrFnFewSqmjhx4tlnn80Kw6NZSd555510PT1i9OjRrBs//vhjPWi89tprWQ1YN9LSwVrE4nD99dezOLAW7d69m3WJhYjlaCi/pezMZBCoqjrqn8Ztf4fMhK2IVDhuOTMxxpjfgYhFrrzySgICTvfs2XPBBRew8RO+5GEKUcv06dPZ3QaMfl24cGGKTorlOn2b68svvyTZuP322yNM4efcuXPPOuusr7/+OsIL7lJmwOi3SnjW22+/zXFETieccEJ8xhLRD08cKGiMGSpkF/jX9u3b0ymZCRF57vK33HILfpdcnvCMDGTTpk0kIRMmTIjUgvKUOeecc6iBUxYEloU4TuSOzynrzGWXXYaDs9RwvXgEycn69esHzUySVeRCLE3ff/99t1CzL5yZDAJVVUf907jt75CZpH0uTp2ZGGPMgSZiERKP6jxbfvMwJSAOYIPjFvlGWqKL5TplJuvWrRszZgw/4zpQFZHHxo0bI7yYN29edWOgkqlTp3I9TqkhsiOOo3DUaYwZOvEhSaQQP/300xVXXBEfoSSXx+nwx/x1AA6Om2MS/hgrBqfY4rzhyzg7SUtKeIJ6VUH9jUM8YtmyZXFAtdWNWmaSW1EsbtWt9gNnJoNAVdVR/zRu+ztkJjG34hanmGAYp8YYYw4E9fQjLb/5rZ07d5577rlHHnnkuHHjiGmOO+64tEQXy/VveclAFpGv8EG6EuFFvikUW0CqBKJwOjXGDJFffvll1qxZJBVkI5s3bz7hhBPiGyvJ5SNsI/ArCJ8lMbjmmmt+/vlnKiFFISHBQ8k0SCrSC4VEVJU7e1C/nq7Ub+H+sT7EapDf4jhudXtQX9BHZya9oKrqqH8at2W0qqP+icx49uzZ1flennvuuXh/xnGaW3GLU2YY8yxOjTHGHAiUzIRQ47LLLps6dWr+5au0RBfL9UBO4czEmGENqQhuu337dlKL9L3K5PKcTpgwIffQnNdee23KlCmkNGefffY777zz2WefnXHGGRs2bIjPT6pCe+lWVT2RSFfqt3D/WB9iNchvcRy36lb7gTOTQaCq6qh/GrcdSmZCUn7VVVfl3yaEH3/88corr0xfPUxzK+5yygxLW50xxpgDQcQi+Xa+cOFCluuvvvoqhSnFlh9fHE9LdLFcD+QUv2URBC7HH398/qVzYqD4dnuP8CJOUyUQhdOpMWbokDCQkDzyyCMXX3zxHXfcEReTy8fveuW/Jf/zzz9///33cUwqcvrppy9dupSFgnA3vg+GC0+ePDn/9mYQVcXnM3GF+rEl9iuupxWjSGai/lgfYjXouHQ4M+mFM5M6ZNVjxoy55JJLtm7dyiT7/PPP58yZk/5OC6S5lU6dmRhjzIEmYhFCivh1c7YtYoJbbrkl3SKMIIY466yzZs2a9eOPPxKg/P3vfz/nnHPSb9CSb4wbNw7DiDBSUhGvn6ZOnRp7CvVPnDiRlZ9iPcKLOE2VQBROp8aYRpg3bx5+jb+vX78+riSX5/jJJ58kSFu5cuUvv/yC15PDnHjiif/+97+5FanCaaedds0113CXK/jv+PHjI1H5raJ9IdkYPXr0yy+/TOFYB26++WaO4/qbb75JmT179syePZtkaefOnZHMxNJBsaeffprVJtaHWA06Lh08+tRTT12wYAGthep2nxwumUl1teUMMTOB999/n1k7YsQIqgLm3+uvvx5zGoptiVNnJsYYc6CJWOSuu+5iTeaAJXr69OnsX+lWhCnPPfccYQpL98iRI9n7N27cSKxApMJBfE+dW5E8DOQUVRaxa9euyy677IgjjqAeDIlj4kPyHuFFnOaVROF0aoxpBBKSY4455oILLkj//SN3eYL75cuXczoQsv1h3Lhxq1evjmLw4IMPcpGfcbpu3TrWh/rfCw5+/PHHv/71r6NGjcIkXwe4vnTpUgxpBtdZguLr/fDqq6+StFCeFWnOnDl33nlnrA+xGnRcOnj0LbfcQnnaTEeq233CE8lMqsB3yPgzk31o3JbRqo6GBqkw+QZzqDo3xhhz8EixCPs6m1eP/wNAGPHll1+yhlfnGdxi4+gYlAAmGFKmOjfGtATyE5x3v/89SE63BSQeUQ8L43rHBacHNLVfk5zITKqT/snj52H9mcl+Q1XVUf80bttUZmKMMWb4kL8lNcaYwxlnJoNAVdVR/zRu68zEGGMOPZyZGGNM4MxkEKiqOuqfxm2dmRhjzKEHC/4LL7zw2WefVefGGHO44sxkEKiqOuqfxm2dmRhjjDHGmEMVZyaDQFXVUf80buvMxBhjjDHGHKo4MxkEqqqO+qdxW2cmxhhjjDHmUMWZySBQVXXUP43bOjMxxhhjjDGHKs5MBoGqqqP+adzWmYkxxhhjjDlUcWYyCFRVHfVP47bOTIwxxhhjzKGKM5NBoKrqqH8at3VmYowxxhhjDlWcmQwCVVVH/dO4LaNljDHGGGPMoYozk15QVXXUP220bWo29Iu10rFWOtZKx1rpWCsda6VjrXSslc7hrJUzk5I22tpzdKyVjrXSsVY61krHWulYKx1rpWOtdJrSyplJSRtt7Tk61krHWulYKx1rpWOtdKyVjrXSsVY6TWnlzKSkjbb2HB1rpWOtdKyVjrXSsVY61krHWulYK52mtHJmUtJGW3uOjrXSsVY61krHWulYKx1rpWOtdKyVTlNaOTMpaaOtPUfHWulYKx1rpWOtdKyVjrXSsVY61kqnKa2cmZS00daeo2OtdKyVjrXSsVY61krHWulYKx1rpdOUVsM6M6mumsFgNlRHZjCslY610rFWOtZKx1rpWCsda6VjrXQa1MqfmexDG22ZDdVR/1grHWulY610rJWOtdKxVjrWSsda6Vgrnfy5/jZXSRtt7Tk61krHWulYKx1rpWOtdKyVjrXSsVY6TWnlzKSkjbb2HB1rpWOtdKyVjrXSsVY61krHWulYK52mtHJmUtJGW3uOjrXSsVY61krHWulYKx1rpWOtdKyVTlNaOTMpaaOtPUfHWulYKx1rpWOtdKyVjrXSsVY61kqnKa2cmZS00daeo2OtdKyVjrXSsVY61krHWulYKx1rpdOUVs5MStpoa8/RsVY61krHWulYKx1rpWOtdKyVjrXSaUorZyYlbbS15+hYKx1rpWOtdKyVjrXSsVY61krHWuk0pZUzk5I22tpzdKyVjrXSsVY61krHWulYKx1rpWOtdJrSyplJSRtt7Tk61krHWulYKx1rpWOtdKyVjrXSsVY6TWnlzKSkjbb2HB1rpWOtdKyVjrXSsVY61krHWulYK52mtHJmUtJGW3uOjrXSsVY61krHWulYKx1rpWOtdKyVTlNaOTMpaaOtPUfHWulYKx1rpWOtdKyVjrXSsVY61kqnKa2cmZS00daeo2OtdKyVjrXSsVY61krHWulYKx1rpdOUVs5MStpoa8/RsVY61krHWulYKx1rpWOtdKyVjrXSaUorZyYlbbS15+hYKx1rpWOtdKyVjrXSsVY61krHWuk0pZUzk5I22tpzdKyVjrXSsVY61krHWulYKx1rpWOtdJrSyplJSRtt7Tk61krHWulYKx1rpWOtdKyVjrXSsVY6TWnlzKSkjbb2HB1rpWOtdKyVjrXSsVY61krHWulYK52mtBrWmQmdNApffPFFdWQGw1rpWCsda6VjrXSslY610rFWOtZKp0Gt/JnJPrTRllGsjvrHWulYKx1rpWOtdKyVjrXSsVY61krHWunkz/W3uUraaGvP0bFWOtZKx1rpWCsda6VjrXSslY610mlKK2cmJW20tefoWCsda6VjrXSslY610rFWOtZKx1rpNKWVM5OSNtrac3SslY610rFWOtZKx1rpWCsda6VjrXSa0sqZSUkbbe05OtZKx1rpWCsda6VjrXSslY610rFWOk1p5cykpI229hwda6VjrXSslY610rFWOtZKx1rpWCudprRyZlLSRlt7jo610rFWOtZKx1rpWCsda6VjrXSslU5TWjkzKWmjrT1Hx1rpWCsda6VjrXSslY610rFWOtZKpymtnJmUtNHWnqNjrXSslY610rFWOtZKx1rpWCsda6XTlFbOTEraaGvP0bFWOtZKx1rpWCsda6VjrXSslY610mlKK2cmJW20tefoWCsda6VjrXSslY610rFWOtZKx1rpNKWVM5OSNtrac3SslY610rFWOtZKx1rpWCsda6VjrXSa0sqZSUkbbe05OtZKx1rpWCsda6VjrXSslY610rFWOk1p5cykpI229hwda6VjrXSslY610rFWOtZKx1rpWCudprRyZlLSRlt7jo610rFWOtZKx1rpWCsda6VjrXSslU5TWjkzKWmjrT1Hx1rpWCsda6VjrXSslY610rFWOtZKpymtnJmUtNHWnqNjrXSslY610rFWOtZKx1rpWCsda6XTlFbOTEraaGvP0bFWOtZKx1rpWCsda6VjrXSslY610mlKK2cmJW20tefoWCsda6VjrXSslY610rFWOtZKx1rpNKXVsM5MqqtmMJgN1ZEZDGulY610rJWOtdKxVjrWSsda6VgrnQa18mcm+9BGW2ZDddQ/1krHWulYKx1rpWOtdKyVjrXSsVY61konf66/zVXSuO2333775wE4qC51YijP7Ws2LFy4MG/MSy+9NH78+HfffTdO+6JxrX755ZcHHnjgj3/84x/+8IcXX3yxulpjiFqJI1JHeS7N7tj4xrUSSbbbt28/4YQTaFi3FgZffPHFySeffO2113Iszqvvvvvu6aefnjNnzqJFi9atW/fzzz9zsd5mXPv5559/++23q/MBfvzxx1deeWXevHkLFix4+eWX9+zZw8Vky3zYunXr3XfffcMNNzz44IOffvppXE9whevcpQwlKZ8/l7vLli3j7ooVK7Zt21Zd3Uu92R11ptiqVavWrl37008/VZf2NgxDzB977DFE66gVxdavX//CCy8UNadmUwOuhzLVjf6pt5kGM7gh6euvv47C1Y29ROOfeeaZJ554giW3uqqBzrgnbe6oVW+SbVO7V7+00dZa6VgrHWslwvr5+OOPs5ayorKusrpWNwbqZG1nIc0pdor03M2bN1cl9iVtiBxUl/by6KOPfvbZZ3EXOu6V3ThYOjc1r5yZlDRuO2gc/MMPPyxdupQJnZ9u3LgxThX02RCNITmpzn/9ldjozDPP/Oqrr6rzfmhcqy+//HLChAlnnXUWbowO1dUaQ3kuWh2emQlNIjMhP2GxY9XLl7ycfjMTYt/jjz/+6KOPPumkk8aNGzdixIgLL7zw66+/LtrMqjpr1iyUiZoDRnnSpEmjRo3ClraNHDly8uTJO3bsCFtM5s+fT4Vjx46lAI+gJIlr2BJeL1++nCvHHXccd/lJSZZsplDY3nnnnVQYttzlmCwFqzDv2Ox6fym/ZMkSmp3PFjYn+nLEEUdgGA0Dkp+4m8NmQywe4XhcIf8hQKcxQJcxpPLzzjsPxaJAvxQ6s27QpJA0+oU3MabV7V9/ZdecO3cugsyYMYNbxx57bH2u9qDITB555JHVq1fHrUFhuCNJa2r36pcDZ9st7AAcbSjP7a1V7q11htjfNNbVJZkDp3NvDr151RtrpbN/tjt37iQ6irU6dijW1U2bNsVdXAMHYQHPKeKK9Fy8qSqxL8l5OaguZaTFudteGXfrHCydm5pXzkxKGrcdNA5m9jPbnnjiify0r3BBnw3MbwKyVDnR//nnn0+YlSK2vmhcq9ho8eHqvAtDeS5aDToi3VCei7b5gpJoXCuRZDtv3jyly31lJqQBrI8E1vEUZtGTTz555JFHMoJFm1euXDlmzBjmXlqI9+zZc/HFF0+cODF9mvHmm2+y0DMb40U+VRH9kxjEhzDE7tOnT8c1olXr168/5phjZs+eHa+OSEVuuOEGrrz88sucvvrqqwT9yZYyPDeFWd2aTZbOaQ6pBdsAIX4u3YMPPkjl9Ci8hkqmTp1KsSLZo8HTpk0j087DOxrG7nLdddfFuzeaR3DPlTvuuCMK9EuuM08k2cglffbZZ4vKWQFo6po1azhGZ7IURqHHW4CCPDNBEDo+qLfWaWr36pcDZ9st7ACWgqE8t7dWzkxyDr151RtrpbMftj/99NNVV13FtvX000/HlXfeeYdTLsanIrg2G8G6devibkd6PBdzagvziEmuuOKKjp+39Ngru0VuB0vnpuaVM5OSxm1jzgH9euihh4if5syZQ/wUU2rjxo2XXXYZUREFbrvtNqZpnJIwcLp7924K3HTTTYw3QRLBJeb33XffN998E5UDs3b58uXUya0FCxawkaTJii0X849fcAbiku3bt8cpsdSJJ55IUkTAdMstt6R3q9TJtgQR9gFDQ+WPPfYYxf71r3/FRfpLhbTq448/jis8mj7Sci6mYlAvtmzZsqVLl+Yh0erVq6+55hqCyzPOOCM1mwb885//5BRowJYtW7iYdKaeJMvixYtT+wNOuRi2VBJ9Qck0InQfMblLDdSTdAMUjltAU6Pm9FwCylWrVnXUnJ5GOBKnXEde6mdRiysFqZE92jBz5szUhgCtEJlBIfSkAC1BbWxJaxcuXMiVu+66KyZJtDm6HJ+VFbMCK2Zj9AWVmBt6ZsJwEHxHMhDQyDDPfWHHjh2nnHIK8TFtSFEU6QEL8f333x+nkMblk08+4ZTpd8455+S9RskUKpEYnH766fncxnfYJyLD5yeJR26bj0u3Zs+YMaM6HyBSC5RhK6JVNI+L7BwkPFyJ04CmMm/zGA5VKTZp0qQVK1akNnORvYQH5TkM9ZBORP34O8NKrlLd+/XX+pWCXGf8C8VySb/66qszzzwzj1xpCdldtKdbZoIayXGK1YaeRndQ/vrrrw9vZYHq8fYuwaSNkjGveEp81w6K6Y1Qya/5+dprr0WGCcxPBKEqdorkOBs2bIi7vcm16pfetkmW6nxfhvLc3j4Y89aZSTDoetWDg9Vma6XzO9uy9rI2smSleInFnz0r7QXsJoM6SLfnxtux22+/nbWOUyqk2sKRk22PvTJaUudg6dzUvHJmUtK4bcwhZiHxBxOdrZTjESNGPPnkk9xlgycJIWaiDDsu0VWcpsyE2U9hQnYy5uuuu+6SSy4ZNWrU9OnT4+sfVE5J4gOCKmqmErIadpSY7nk0FrCL54EIW/64ceM2b97Mc/ExTuN6fLQCHMQVbhH2PffccwQ6VBIX2RepjUc8+OCDcYXhO/XUUwlZ8mI8rl6M7qQCQT0zidfko0ePxmNDN/pOLB46s0wQV9FfKkcZdugxY8akBCBeb2BCjM7iQiXxtRY8p+OIRM1hS6BD36mQUB5SzfFcWnXhhReiRiQMU6dOPeKIIzpqzhWuUzK1uYBi3OXptKGoJ28D7S96RzFOaQAdwTY+5yXTIwFAK1YxTklxUT6eG2/KY3zrLeS55557Ln3BZMqUKdQcSyQjQtsIZOuQoFKgTnzix8im/v74449XXnklOhM304tuURQwLohAyTxIzWH+MI55NpJD7+j1U089VZ3vC1OXqZJmeEE0m3lbnQ8ow7ZB92k2IkO3PQCYY4iWnAVwKK6Q8CNvsXt9//33McQB1Z599tnMc67XA838yqZNm+rDwbDys9twhD/Onj27Oh+I7KlwzZo1xPp/+9vfaFvMhERyHOYVz0VwXDUlHqk7jMLVV1+NpCkzoQ3RpAKqiu8/JFt88P333+cpEyZMwHOBA05jejNhyAapmdkYc3LkyJE0huvc/eijj2g/JkxU5hUHnLJorF+//rf29aSjD4r0tq2Pck7YdnzJkshfduTZIFoxW/I8LX9/kaYHB5Gn5TXHczu+ZEl0u4tt0Sn0v/fee9mV2KDjSjcOnM69cbStY610klYRycRazWn+pqwbHZ8bmwu7NvtOXKm/QoIebU57ZfFSKXHQtdoP8uc6Mylp3DbiYDbalStXxhUyYCZl+uQuIsV415tOU7gQp8xaxIkrlCSUjMSGSIua03fcmfEESRdccEG05LN9f6MgZj/7TZwCUS9RES2MCAbbuM4j/mOA1CpuUYBibI24RERp7733Hh3hcakvEdbQqrwYwVC9GBFPPUyMjTa1kMYTa8Y3TyC+rMK6EP5MLMK6kFqIPvQufDVKTps2LfI3iIbdcccdeE6MCPleYYsJ5QkgqIRQKUVjcZf2f/7555wSH9OqNJqxylB5hF/58JGQ0MLly5dTpj43opFEVxFyRT2RDRZtwDa1IT75QSKecuONN8a7ZB5NA7D98MMPoypytvhwLJ5LTxE2ZkLeQtQgdszbEL9WEUsk4WP9N/wCwiMKFDCxyS1pCYapvzyaR2zbti1FUXG9ADXoPnkaDatrBWl8Q4EC2k8vCIKLgA+QiDQPMcnhY0IWpGa/8cYb1aWB1IKknZ8xW6CjLc8loMQ2fcQP0VS6g569Y1Zgkhx11FGRtNclyq8gS304Hn30UX52HA5AfCQlQarO935FgTrpHT9ff/11GlndG9CKdBdvRZO4Et+aI2aN09QdGsNPjpO30oZoUkH6AwDJllnH+sCsSBszijGyxNYcxxfemIepYfQirQORmVBP6nJMfpayOO1Bx3kl0tu29yhjy/Tu+JIlCjC1LrroIkaKOUyBPBvEhak8z9M4Jv2IyRbTg2Ukz9NQI3I8ntvtJctvT+3+CiZs804xz2l2btuDA6dzb5qKivqljbbWSidpFS9w0wtWHIRNdunSpaeffjo+e8opp9x///3F9tTxuWzT48ePT+EHhCNfPwArM17Jevjf//3f1e19yffK6lKNg67VfpA/15lJSeO2EdlEWJ9fSbFORIppmuaBYzrFB+IU2Kvwh3gPiqswQefPn5+HF91gj8EfMInTaMZNN93EMeazZs3CGSIFp3JCh4DTeFUQX2qkPRE9c/2pp55iiyVHYl+M3uG0OBgRcF4sXr0XxU488cT8Oy1B+Gfe2QK2bQoQnXDMVhrBd9yC3bt3E1ERXYUsueezkZMXkSwRx0THo53V7YHaWFw2btxIm2l5dDzBXS4SpYUU+WhCPC4WrDR8BKzHHXccfYmhqc+NeiOpHAX4WbQhbKMNISnVYpuGMnRLiR9QIKIKbGNwi0yYnxxHZpu3IR4dobC+yvA46iRhJupN2RQ/8yU4Ghk150R74Nxzz43PQ+pasRYTeNGwjh+YEDbhAvHL3LltDDQ1MxD33HNPvOjKKZqdbJlFzNhILQpvTUR3MGcSPv744/k3FW+++WYyE1YzTtNAxN0cJup9991HsxmdyAzrEnUTLVHXKhEzkBw1zQp2zZg5dJlH79q1i4vMN1KyaG2dogH5vOInx1yJW4OSbJlXTGaOOyZUTPs0z4NY8cIdIjNJKxUMKlGih1aD0tu2xygDtmRoHV+yxJxkbcQ8uTNpfOrv008/TWaY8jR+xrPiM6LoOwUK28iTP//8c4Tq+JKFmQA97tLm1Kl4KHOJGRUle3PgdO6No20da6UTWrH1nHTSSRdddFHaCHAK1n8ckLWUWGjmzJkjR44s3n/Vn4s3sSanDSIIR8acSqiKCjllxYhtOlHfK7txcLXaP/LnOjMpady2HtkUV2K29c5M0ikQNrGdxE5MQDNnzpwRI0aMGfgGziuvvBIhTkcInfOQmr2fPSy9t6MB8RYzPlrhFDjgNCIDTikWx8899xzHZDXEu1u3bqU9bI0R/UcEnBcjCqkXY1NMAVMi/BOHr84HfiVgwYIF7OK0DQiqKBCZCf3lGJMomROisUYMfEmh4k9/+hPlCYbqIwLLli2LbRg4yNsAcZc4vqMtawRZTZjEo2+77TZGBH3iMw2oz436yCaKNoRtaiHH3ErHUA/OUgFsGXHGPb3pyZ9bb0Nelb7KMJeIve666y5sGSYE4bkR+vQIuwPyQ2xXrFhBMkCbiX4KrYicmIdRbXUpg8KXX355GMZpXAcm2Nq1a1noGX1mDrkNEWF1b4Ci2fH38SK1SB+4dRxxoHek3DgF1ZLdXXfdddHNV199lcA6xdzFSCXCc0lL/v73vyeXrEvUTbREoVUQOQ9dJmFLCwIH6EDbGG4Uwzvi93nQn0eEdwO2KEl3Jk2ahCZ4MftlakA+r/jJcZqlg5JsmVeMKcPNwsVTWB/iLz5HMZ5Fe+h4nEK+4kVm0pdEiY5aifS2pWuozU+mUw4zJKL8qlxG6mash7HSxi2kYCsEDhgyhiB//xJLa3y+HX3PJ2fUhlyIRvbCcHd8ycLMhx53aXOM14YNG5YvX85B2ikG5cDp3BtH2zrWSgePY83EBYodhEgVL0sLLN66ZMkS1rR8P60/F+VZV/Gp6nwAVgl8effu3dX5wK5XuDbU98rqRo2DpVVT88qZSUnjtvXIprgS0WGKDOI0Te7iFLCaOnXqjBkzIurFH9asWXPjjTeOHz+ekszX559/PkrmxI4Vn3vEFZ7I1I/vIAG7ERsewTehwymnnDKwc20mouUnF7nFAcXiQwP2M5px9tlnE+/GFQ7yCDgvRk/rxe65556Bx+5DbLQp1mEvHDVq1JQpUx555JHY6YkXKbB/mQmQMBDdFvoHJFHxbXXgILUhiLsvv/xyvOwsbOO3FOIvIMWjWZ5QLP/yQ31u1Ec2UbQhbFMLOY6gIcW7oVsenKUC2JIN5v+yJn8uUXvRhryqfr/NBbgwMRYSsUIx1sSd6Y1svZEFLPEs/SjJc6tLA1IQKlFn+uZPzrZt21ijMUlJSzf/RQTU6/YnsKLZzDTGl9SCsUsD13G2FOBK8QVLNqrTTjsN8ZOXFSOVoDBzO74TmNpclyi/QjHl21xscqwGBMrxNcLq6q+/skqQP8fLdRQeO3bsokWLKEBLEDB2lMhe0qs7an744YfjrcdAHfvMK35yzJW4RRsGWlTS8dtcnPIsJt4FF1xAU5mEiM9UYU1jZaPLdHyg1t9A+bTiDdvMhC7UiY6EbceXLNztPcEuvfRS5u0111wTKxjEL+NFfzv2ffbs2VEz63Y+QIHyCoZbtDnG69Zbb2Wi4sv5XOrNgdO5N01FRf3SRltrJcKagwsceeSR+VuebhAjsVulb8VD/bksy5H8V+fduf7661koOm58aa/sNo4HS+em5pUzk5LGbesbT3ElIsXemUl8+BDUd6M0Gzggdu84X4s3o2wz8Q0fYqm4Eq3CqdiE4ldE0ocnC/f954zsWBR46623qDACuPhU5I033sgj4FRswoQJ9WLsmlEsJ7oWm+X3338/ffp04hVmRdylzezKFBg0M1m9enXx6iKBMtHT6GN1NQuboL5hx91un5nkJjFeS5YsQViCZgSM9tfnRjHQOUUbwja1sDiG+pRIBbDlmGakN7L5c+ttiCwrqiLFpRIK1IkCiICe+d9ughiXDRs2oFJVugZPJFMlEsXfK7MBotlpbjBtCIuJkvP/b5XAfOLEiUz4+FZSQH+ZJ2j+8ccf5x/K5RJ1a/aJJ55IMQ6qVtageWxUjGz6640BOkcmGXp2pJgzTNH4Exccp7lRH8f8SsyKqrp9SSaRWiBa3b9oHlVRYZzi5kcddRSJDQ27+eabI+6MT/8IoFMYms8HiAGKeRXt4Urc6qZblM9ti9UJSVGDNsd3kKgnbyfkIgzbzCR1sw623V6y0PiOS0qinpkE8efaOvadNZzUGu94+eWXY1pWNwZQXsFwizZzi+Gj2SSx+V9BGJQDp3Nv6ruezsFqs7XS+f1tWQbxAtbJxx57LC2JPYjMJPep4rnxfhY4qC51h8wklogee2WPNac66p+h2DY1r5yZlDRuW994iisRzfTOTObOnZscIw8IiJDWrFmT/9Yv5TvOVyIVNph0HZ1PPfVUKsnbTOZw0UUXXXbZZekjfg5mzJhBhpC/bF63bh0Os3jxYrar8BYqnzRp0vz5888a+CXyohgPqhfrOINjo42uhUpsyanj8RVqCkRmQmh15JFHpq9uU2z27NnkGzwrvvCQi8YBff/888+5FTUTCaXPi7hLnkbN5G+hTPpdc4iPm7gY0xJNcltg7GhJxIL58EVgTRhBvFifG7GK5Y3Eaty4cWRuRRuwTW0IJYtVqR6gpALcYh3MPyvLW0gBiuWDi570JaoadJWhkiOOOCJNXaCnzB/auXXrVtyZpyeIegn9r7zySo5ZauPR8bscYcsBMTGaEBhxGokHLUkDkcM0Y1oy3IWwnMZoMgHy/IGxQ9uY2N2aHfOZbCEaHFDJ2QNwwMyJyZMSzoAhi99ip1+V2V7oIN1EVcqnnhakLpDzkMbnc56ajz766B5hd959rBh3Uos333yzupSxbNkyNEnfC6LLpHzMBJ6Ygs4YlPw9CCqR5KcGpHnFc6NweKtCsiVpZHEgd61uDMAjYkks/BoojAhc57iNmQnZXbeXLDQ+ZlT0Pe7m4PVRrDrfl+h7PmEAKcKEFak+QKmp0OMu/eWYgVi5cuWHH36IV+K5zJmqXE8OnM69cbStY60Unn322WOPPfbee++tL93ffPPNJZdcwh6duy2rZXx4Xp3Xnhsvegi0qvO9sCWxOOcLL2vF6aefHgFVuGrHvbLbZy8HS2dnJr2gquqofxq3rW88xRX2DzaAW2+9lbiEpT9O//KXv8RpxJEEVatXr/7555+RiB2CGRl/hQkfYM8m+qcqJivB07Rp0yZPnoxt1IwbRMSMM+QvztnsCZr5mbc5djJcMXkInkaxKBlXgDHiEeQ57JrhKoQ7xDcUy10uFUsbZ14snhu94+eAxT6ZCbH4VVddRcffe+89zD/44AN2d0TjSnwCg5OT57DfE/J+//33BC6jRo0K74Wbb76Z04cffhgNgQOEIjjDc0J/VhAiM/RE1VWrVtHx9OaYYhRmPSpso83vD/zB08svvxyRKc/T6VT6vbeiR1hFEBy2aePnmA7OmTOH03/84x+0n0CNelLIm7dh165dqQ2/VVqLhEK3PDhLBVCPJS+PwvMWhhR0Z+3atbSHvqAnsyuqGnSVQQGGOLpAGwhw47eeGIXoRU7RSPINUibGaMmSJQwlcMAp05v+IiyVMBXpcrxjTsRaTI9wEyZSdXUvEdHG33eiLyjAc/nJ8TF7f1G4W7NvueWWmAA5IRHE+AIzjcJsS7QEc56IlyFangglipFK8CzSqvDT5IPxRi0fDsowfD3C7tx/aQCF2SyffvrpSo4B4rcdIr7EGWNoePSMGTPoSNKBDjLi9IU2sO8y8RCZjjMtSds4xSp1h+dGao0TMXbKK8BkSztxbarFkX9zsL1/3ywckNrwaxwhdgGaxJrGFa5z2sbM5JNPPkHGPH+IkaLZNJ7T4mUHA8EgXn311SwL99xzD/M8z9O+++67t956K2Zj9B1xYiJBPl0RsNtLFhZn6HGX/uadIkRj/eFK3UHqHDide9NUVNQvbbS1VoPCOskqxE7BLlytpAOkr6eyEbC5s3ewg+CJ5PB4MVFKvJwNTzx74G+fDtT3G3gTPpX28URsSay9eDpV4bkszmxh8ctdPfbKWJbrHCydm5pXzkxKGrfNt4qOV+LtL8FibAPFacSRK1asOOeccziA0aNHE2pEVcxLZjkhV9wCfGnr1q1xN8Wg8cT0SQiwx6QdqLq09xtfRBspESc24nFRMq4Am9OsWbOoOf2uSHzzih00sqAgFYuXnZAXi+fmUTLERkvb4jSCfgpA5GYYskEmE3pKf6PAyJEj6WD62g/OvGDBArw37sZygFx4TqhBavG3v/0taiM+I1SKBQVCVUwK26QVgSPRQNzluRFMx62iR1jdMPDtmldeeYXTIoKhtbSZGqKqfOy6tSHuFvWEbnlwlgoQXOYDCkULucWaGE9hrFleESeqUlYZVkm6n7qA4MiO+HVfqDeS8JfupzGiEkYBQ4gxiusFMT2opzrfFxZ07jL3Xn/99TRGwPx56aWXUlzVsdnxV6ELCm8FUtknn3ySCsMWeFD+uiunGKkE7UcNNOE41yqf8xyQSvHoXLSC3DZGtk56UD5vmfNnnHEGiWuagTQVfVhqklOQEnz66ackURxHJak7PDfm9kBl/3c69SDZMq/wl1x/DnLnxQvY0Xkot/jJcfKLNmYmhB3dXrLEThcvO8h1yVi++uorcvL0mR7JG+7JTGBiYMsWSYZD4fhdrOg7K+qiRYtQjxGJFzSx5NJmFg1Gs/6ShbvQ4y62eafiNUrK7Xtz4HTujaNtHWs1KMx85n8sUDnJKXAZnCWVYRHLI4HYOIrMpNh8c/JFD1gcHnnkkbRhddsr426dg6VzU/PKmUnJQbFl/rEnpfeOsQPFaT6V01/FHSj1f9m+fTvl2aW6vbnEBMPcQ6gKEx40zLUKKaKp1aWaLf2idywT1XlGdDw3LzwHq0KZRN22eG4MR8fn1unR30HbwNzIu98Xn3zyCTXU50xOiFwvpq8y0YUeWvUg+pg/XbetU58b+EVHbaFodr/Pje99hdM1uNPHcORi9mA/tErNTrYon0vUY0Imki219S6ZyDOTuBIPgo7zM8auWNP2o7+JA2fbOzPBdtCXLCSNqQDXly5dijhcR6sdO3aQIqaQhdySwgMVV5nJ/PnzyasjzeMnx2HLcznIgycOOI270OMutkWn4pWZ8gsnB07n3jTog33RRltrpdNbq7R7JrdKbN68+ZJLLhGXx4DlDqdmUeW43ub6XtmN4alVb/LnOjMpGW62PZLshFcZHWulY610rNWgEOmOHviXQYenVkrCGS878rAjaRUhS48oJwrkiVxqcwQ03R7d8W4bdbYP6lgrnf3Wavny5ddff3110j+HlVaQP9eZSclws3VmUmcottZKx1rpWKse7NixY+7cuSeccEJ8L9Ra6VgrHWulY6109k+reBPxRZe/XaFw+GgV5M91ZlIy3Gxfy36LvRteZXSslY610rFWPfj444/POeecCy64IH47wlrpWCsda6VjrXSslU5TWjkzKWmjrT1Hx1rpWCsda6VjrXSslY610rFWOtZKpymthnVmUl01g8FsqI7MYFgrHWulY610rJWOtdKxVjrWSsda6TSolT8z2Yc22jIbqqP+sVY61krHWulYKx1rpWOtdKyVjrXSsVY6+XP9ba6SNtrac3SslY610rFWOtZKx1rpWCsda6VjrXSa0sqZSUkbbe05OtZKx1rpWCsda6VjrXSslY610rFWOk1p5cykpI229hwda6VjrXSslY610rFWOtZKx1rpWCudprRyZlLSRlt7jo610rFWOtZKx1rpWCsda6VjrXSslU5TWjkzKWmjrT1Hx1rpWCsda6VjrXSslY610rFWOtZKpymtnJmUtNHWnqNjrXSslY610rFWOtZKx1rpWCsda6XTlFbOTEraaGvP0bFWOtZKx1rpWCsda6VjrXSslY610mlKK2cmJW20tefoWCsda6VjrXSslY610rFWOtZKx1rpNKWVM5OSNtrac3SslY610rFWOtZKx1rpWCsda6VjrXSa0sqZSUkbbe05OtZKx1rpWCsda6VjrXSslY610rFWOk1p5cykpI229hwda6VjrXSslY610rFWOtZKx1rpWCudprRyZlLSRlt7jo610rFWOtZKx1rpWCsda6VjrXSslU5TWjkzKWmjrT1Hx1rpWCsda6VjrXSslY610rFWOtZKpymtnJmUtNHWnqNjrXSslY610rFWOtZKx1rpWCsda6XTlFbOTEraaGvP0bFWOtZKx1rpWCsda6VjrXSslY610mlKK2cmJW20tefoWCsda6VjrXSslY610rFWOtZKx1rpNKWVM5OSNtrac3SslY610rFWOtZKx1rpWCsda6VjrXSa0sqZSUkbbe05OtZKx1rpWCsda6VjrXSslY610rFWOk1pNawzk+qqGQxmQ3VkBsNa6VgrHWulY610rJWOtdKxVjrWSqdBrfyZyT600ZbZUB31j7XSsVY61krHWulYKx1rpWOtdKyVjrXSyZ/rb3OVtNHWnqNjrXSslY610rFWOtZKx1rpWCsda6XTlFbOTEraaGvP0bFWOtZKx1rpWCsda6VjrXSslY610mlKK2cmJY3bfvvtt38egIPqUieG8ty+ZsPChQvzxrz00kvjx49/991347QvGtfq7rvv/uMf/zhoY343rQoa76/IAbLdvn37CSec8OKLL37xxRcnn3zytddeW93YS2glTuCc77777u9///ucOXMWLVq0bt26n3/+ubqxLxRbtWrV2rVrf/rpp+rSr7/+8ssvb7/9NoaYP/bYY7SturGXTz/99MEHH7zhhhuYLVu3bqV8dWOAf//73z3u8sSnn366W8N27dr1yiuvzJs3b8GCBS+//PKePXuqG/tCnevXr3/hhRdybRGTx/VodmLTpk3PPPPMZ599Vp0PjBENYyB4NHDAaXVvMJS5kSqnX6+//vqPP/4Y13NbVH1+AA6qSz1JtqLP5iQfpFV/+MMf+BmnCkp/u9FGW69XOtZKx1qJsFo+/vjjrJzdVuZt27axBrLsP/HEE9988011dS/Fc9kXYnviZ32PYMchHuNB7CMbN24kHq5uDMBuxV5JS4CDbrtqcLB0bmpeOTMpadx20MDuhx9+WLp0KVMtP2VexqmCPhuiMSQn1fmvv+IDZ5555ldffVWd90PjWm3evLkI+DoyaAHUQ0OUrM4zvCInWGfJTAipWRBXr15NPlDd2Eto1W9mQux7/PHHH3XUUSeddNK4ceNGjBhx4YUXfv3119XtvRDfL1myhMA0r5l1f9asWUcccQSGmB89wHPPPRd3MVm+fPmoUaOOO+447vKTylmmI7HpfReiYVTYsWHMvVNOOQVz7iLLyJEjJ0+evGPHjribg1DE4nk4TrMvu+yybs3OocIJEyYU4ThZEA3j4tgBOOB0w4YN1e2eKL5Ak6Jf0euzzjorNsVk+7e//Y0GX3LJJRdffPGRRx7JaVzvQbItMpNHHnmEuRTH3Ug+SHpWJGmDcoB8YVB62A7qIEN5rtcrHWulY60Udu7cSXTEXsCOEJsCq+imTZviLjvOsmXLuMiiHct+fd3On8uOQJm0PRV7BFsDO05aqNlN2ArTWyT2KXarvCUdd9XEwdK5qXnlzKSkcdtB9y1mP3ORhDs/7es9oj4bCL9wnlQ5sfv555+PA+BjcaUvhpXOOXfddVc3wb0iJ+bNm9djWkJoNegEzvnyyy9ZXs8777yPP/6YU+bVk08+SbBL/BoFEsT3rLAswXnNDz74IOs10W1MSBo/derUk08+OYLX9evXH3PMMbNnz45PM1i1b7jhBq5wPd29+uqrO95NDQtBioZhQlBOzrBt2zZO4c033yTgrrsGm8G0adMomYfjNJtMbOXKlR2bnaBJVDh+/Hj6mHyQhk2aNGnixIlbtmyJKx988AH1kz/02HgSvecGNVAPlad+Pfvss2x+d9xxB8dhy5J76qmnktQN3P+VA065GKfdSM/NMxPGkY7Xx7rgEPNBUt+1A+Qf/eXoz63ndV6vdKyVjrUaFNz5qquuGjNmzNNPPx1X3nnnHU65GJ4eO86dd94ZH1/wCFa/Yt1Oz0Vw4rprr702tid+csyVGIh4Fst+hL6xPbFQ8/M3419/ZcVmmWVXitPYnmIZ78jB0rmpeeXMpKRx2xTY0a+HHnqIaGnOnDkvv/xyBDEbN2687LLLiJAocNttt61bty5OSRg43b17NwVuuukmxptIjlAS8/vuuy//0JApTjBBndxasGABIUKKpbDlIj/jFNJr8jglcjrxxBNJil599dVbbrklfbxInYQXEF4EDA2VP/bYYxT717/+FRfpLxXSqghDgUfTR1rOxVQM6sWWLVtW/1iDXZnOxotqjqnnq6++QqvoHR2Pz1JDZ1pLJVwHDqLx8YnTn/70JxIwosC0zXN38eLFlJwxY0YhIBAU0jvu/vOf/6TLxAepbdEM0sUlS5bQBUaEi6xEq1atilZxkaFJmlOA8lhhsnDhQgqQJvE4JjZBIadYoUwqX4fCtDBK8hSeleZV/tz6WMc8ofIowOMoj5g0gFMaQ5OiMMS0jE/Pos30Om7Bhg0b6FdoxSQZmL9SZoKSBO4MWWozyte/KhbxPe1kOU41szojMlc++eSTKAZMwhT4Evqffvrp+XzGX1KUH3fTZ4+Q300Ni1uQN4z04IorrkCouAXJbfNeozYtJJFYsWJFalU0+6KLLspL5s1O0ELSEtIYbkWrgIMjjjginQa0JMxjPqfZCMWVjmtOAo8755xz7r///ur8119xqDPPPDN6nfwIHVIDOmYmOAWuwSwCJh5ipuemnjLTrr/+erbqM844I3lxR9LuVSxQtKTu0QlOceGZM2dyl7maXDgE4QqLQ3KctMDm9NaqN7+DLfOnntc1tdP3SxttrZWOtRoUtsWLL76YpSzFSyz1bBNpU2D3TKlFQCLBAsi+U51nzyXKSq/Jgkhs4pV0fLM6zzTYIqdMmcLjeGgs2ikjAg447fFtl4Olc1PzyplJSeO2EeJMnjyZZJqJzsbJ8YgRIyIbZlcmCYnvtBAdMqfjNGUmRAwUvuaaayZOnHjdddddcsklZNLTp0+PvJzKKcn8JoikZiqJ18CxK2NbfG+EcJM2pCjntddeGzdu3ObNm3ku4QWncT0+WgEO4gq34sNHnIFK4iKxArXxCIKtuMLwEdYQoOTFeFy9GN1JBRJ5PMcxWRNBxmmnnUbXqGHkyJHhnOj8/vvvjxkzZsKECWgCHHD6zjvv8Cyiumh8ykziVQeyU8+ll146evRonp4ip3iLHHd5ygUXXMDPtPrQDOI2mnrccccxgoSw8TIeNa688koOCCaILJPmEeddeOGFRITEf6wsVE6FtJySlCeu5UoeQOcwH2g5NdCp6DImu3bt4hYjTrU8l+CMuK14LqPM0GOF8picffbZTJtFixYRrNNOTBAWJXGxgef8NsQshTHi0eaUPCRBmIEY0mDkDUE2bdrEdZbjOqSsYR4kX4jPAPOxpsG333479RA3U22SOpH7UYxmmocFtJ+mpvwTctv63Zx6w3JbmoTCDEFyFsBNmEik8flEDYoVud7sbdu28ThcoO6VjG/61D6gfmYpk4FmFBLlVxgORuc39WsUw5EID509ezbH0d/Y9khIGJc1a9aMHTuW2TVQtoKJx4JDe5ghTC0GDlUfffTRuJukwKGuvvpqJmHKTNC/as2+RHqGbS5FN48eeEj1RQge/V//9V9UnrtwCIJrsBIyXtHCtMDm5OPbLz1sIzVKuWK8y8hfqfz1r3/Nv57OTMAxuQ4pxaIvHfM6Jlu8NIF4bxLXg26vVKJJf/vb37Zu3coMTy8d6hlmXAcmG89lGserDRw/Xm3QPCYz5YtXGz04QDoPiqNtHWulk7TCrVhhWAy/H4CDOI67gBOxNOXrZ3ouSy5rGvFDnALHXImlmEWD3bzYqlhOw6ReLXAae0R1vi8HXav9IH+uM5OSxm1j42TDXrlyZVxhqhFPRDbMaWzP6dtcReASp4QOKaakJJM49l32fmpesWJF3CK2YBchto6WfLbv17gjBCGSiFNgsyGEpYURr2Ab13nEfwyQWsWteJPKPkfEhgkX33vvPTrC41JfIgegVXmx7du314vhVBTjOCcP+Dim42QXEbTRtblz58YHPvSO+glx0k6JOCwZixcv5jgEh3g6m2uE17Eo4DnxriL8nKiLfCPJy1N4LvIm82gGCxAlQ1UaTyPTt1/i7UVadCLKR4RYMqLZ1MDWzjFXiCa5Gx9WFERVxVgTBRIicEwwx3GaRdRGfE9V8bXXmCcEZ9HsmGOUZwIMFP/tXTixXXqdQ820M+ZGnpnkgsQqwxOZYyEICrzwwgvUWaf4NZXQimaQVNNI4s64DrSBfJifxUglwpZxX7VqFbbESTFtCihA0kUYGsoHYQsd7yY6NizZIgLaIldyQ0AQZOF6TJJumUnHZkdjgIPCwSE9NyAqJexmPhNH1iXKr2D4+OOPVwOwL8VwJBh3+kW8y3F67h133BH5MF7JwoLLxPWA2phIJC1xGjNk2rRpsSXnUvCTY64MFKzWnzpMxcjZcil6eDSDxTjyxOSDBPcsBXgWYxGC9FhgE4XOfdHDthgjut/tlQp36Sz6T5kyhVt4HI4QKRYUeR2Fcfyjjjoq3mgweTCMhei3p/Z8pRJN4sq5557LIyJNxRBzhjjPMGNtARrG09OrDZoRrzY45dH1Vxs9OEA6D0pTUVG/tNHWWukkreIFbrxViWgqvc4LYidlKavO9z4X32c5SktEEE6Kz5LwsCwXGwrgffF6i+cWmxGEw9aDqOCga7Uf5M91ZlLSuG3Mv/wLEnEFYpoyw9ieUw4Qp2kWxmna7CE++ItUO6bs/PnzI+rtDfN+/PjxmMRpNINdkGPMyQHCSTilcrwr4DReFVCAYrQnvQx+6qmn2N4IZdhoo3c4bcS7ebHVq1fXi7F5p5QpkUc5HBeOl+6iM5E9xx3Dr0LeAjwnD8RpIe3M8wRaxd1kzkPZoWM4us2NvNlReR4VcZcxeumll+I0f3pBjGzeGAJZwqxPPvkkhiCfRRCjn79+TrMoRGDpTN+giwLRkRju1MhugsQqwxN5bjc9u8GqyuPI8YjJIswKIsqM+L7bSH300Ue0B3PUIPIuAuUAZZj2xx57bPQoEWPU7S4wHB0bBtiGSkBIl7+OorU333wzekZklo94kOYVtvVmM0aE3fHLHvlABPm8Iu8ly0WiaFtdouJKtznZEVKm4447joA+xh1bGoljEq3SJOLX9Gr/X//6V48/0sVUwX/pL8e5FPzkmCsDpbqSdq9cih4eHe9fYp5Hf2OnD3cIQXossIm+tCroYVs8LiZY/kqF5ZQpgXeHF6dXNsBFJlW8ZirU++abb8455xwKp89JKJZerEZ+mCYkT8EwvVIBDli4uMitAevOGWZ66RtjkV5tbNmyJV5tRBILxauNHhwgnQelqaioX9poa610Qiu2A9bw9K3djvt4/WI8N/wxfDOuQ34RPy02FGAPjYv1LQM6XkwcXK32j/y5zkxKGretT8riSsyw3plJPv+I7YhdYvaz+c2ZM4cdaMyYMVx55ZVXYjvsCFt7vn8Tg7JfpndmNCDeWcbLAE6BA04jYuaUYnEcf1OCrIb4YOvWrbSHHSvCBeAgL0bMUS/GDh3hUU7un3VfTVfQmbiN6I2Os31Sf/73YeuCE34Rk1133XUUJjejYSNHjgwBqY06o2tBYZ43I40vC9DixYvZ1FEMiPZSmfraFDWkFKvjihZEYyhfne+F59Y7BfEhb5Qv5kkqn35nIy/AHGAmRKgHeZPyNsQq0/HRg7J+/XoiobvuuouakSh9gkR8Hy+/Oe1W8+eff074xaBceeWVhKTkGMWsRpDLL7+cdjKs1aW9cKvHXWDa1xsWYBiv+VesWMHsymsgPiNhS3FzPisCtCKC7NjsDz/8kDg+vdEvRgp4bhzgL2RTDET6JYq6RMWVZNsbXOC+++6LtxhJTNZbOsITH3744QULFuAd8ZFFPCLPkONbQwSyA/P9t79C03hm0sOj82Kpv4T7jCBtGFSihKhVR3rYFo+j+8UrlRRhxNLHMlikxEFH9fKdPi/Q+5VKNKnj258cZlpoyHGInFZC1g1qiPU/ruSj0JsDpPOgNBUV9Usbba2VDsEM0x7XY2FPn1h23MfrF+O54Y/AQVyH/GK+iiacmTgz+b80bluflMWVmGFpSygmXH3+YTV16tQZM2bES1n27zVr1tx4443E3JRkKj///PNRMic2xfjcI67wRLwo/Qm8SFTYUPGEU045hVMgfuUnF7nFAcXitd+8efNoxtlnn010G1c4yOPdvBg9rRe75557Bh67D7l/1n01XQmdCbCQ5YILLiBOouNTpkzp+JqZYjfccAOpyMyZM5966qnly5cTh0Uix934Zlchb26eNyOeG99YQzpCPaJYuOaaa1KZ+toUNQwxM4kXnKlVAXEkYWL82lwxT1IvOmYm5IfMlqRt3qQQJNoQq0wuCC3p69tcgFMT39B4ukB8z0RCwLiV1xxXgmQLzNIj9n53Mdi2bRshLB3Pk4rEhg0betzNyRsWV/LnMm3Yh6gHEb788svTTjsNTZLv5LMiKFbk1GzSFaY9MzDlA8VIQTyXGnhcetce1CXKr2CofJuLNrA+4CZM/tQFePPNN4luY+VhLpESRDuZA+PGjeNnFItvDeFfjzzySFRObqlkJpHm1en4bS7g0RzXPRq3TcXSGJFbMpco0FuiuBLk49svPWyLx9XnRoowOGZ+ojnLEXNv2bJl+QdThXrAwFGGpZ5khrnBoMTHINyKwmnXgLwZcRzf1K1uD1DPMHH8GMdiLCIzidriSlGgBwdI50FpKirqlzbaWisRoqxbb721/oIsXIytP19RY0dO34qH9Fy21/zDUuCYK1EDboU7p50x+K//+i9qo85w9njPm+C0bpI4WDo3Na+cmZQ0bhszOF/iiyux4qc9ptgA4jSflPXQNs0GDggamM31+RFv1NJTcIb4Pg9RV1yJVuFUJA/hQunDk4X7/nNGtkYKvPXWW1QYjkEBqnrjjTfyeDcVY1utF8vfKSbyTT0/DtKVQmfWjtWrV5MtxJe5C3njgwX241hBUCaWjxAwfJ6af6togOh1Ms+bEc+dPXs2IUI+RREtlamPTtQwxMyk6FSQly+mTSrfMTPBhD6mt6F5k/I6YxZRFeMYj4671FMnzCmD1TfffJOPEbeon6dwUJWuwRMZR2YjiUduW2hCJDpx4kQmefxVgALuMtk63k0Nq84HSA0jbca2WHZ4KI+mASFdR5CFxIZmv/7665XZAKnZPRSLR1M4+ksDbrrppiKhSuPIQf0KlR977LFVdfsSwwHspuQbeEfd43Dt6GCckjcSqv71r3+9buCvL8SXiOIXPUkSWJyjGH7EbqpkJj10izL5nMwpPDovluZGGrveEsWVIJ9X/dLDtnhcLkiQZybw3XffoTzpAfkemQZSR25cqMdFlD/qqKPmzZsXGR23GKAo0PuVShwXmUnHDDNNwmIsnJnotNHWWimw1uFu+OBjjz0W8UMilsF8G4X4fnWKsiA9N96kbN/7Z74gvlcSH3sSIOH7uSHrHitD1B8RS/4BKXBaVJhzsHRual45Mylp3DY2iXyJL67Eip8mZbEBxGn8rmdcyTcwwrg1a9bkf2KF8sW+GBCXjB07Nl2PDy6oJG8zc/2iiy667LLL4tdLgIMZM2awQeZ/zw73Yz9bvHgxMSL1cIXKJ02aNH/+/PwNdCrGg+rFOs5g2pManx8H6Qq1UXnxL42IVELSQl7KY5VSO56L1AQEEbpFwpZ/lETNbPnJPG9GaIVhZG6/ld776j2VYZunwhQXQtSgZCYxKBdccEEEhUCdFI7/fMdYEKulz7iAjqTvjRTTJolQz0ziw6u8y3mTQpCICGOM4lf2kyC9of4jjjiChqV5RWTMjIo5sHv3bp6VYPYSPAEHVB5tRkxOwxbIY1nr44O4iNUQv6OjxV2mVse7qWHV+b4Ni0lyyy23JE04IJs9fuB3pVCsavFebr/9dsrjeow+2Q7Npp4Uu0NqNk8hb6nMBvjHP/7BQPCT6/GxZ8cGB5EY5PONtZHEOA1HD1ugF0w/MvP0h/BznnrqKaY6Ez5OozCuQdfSRy4xKPmrQUaHHbHZb3OhQw+PZggYiFgDo7/x+oBpzNBEC6NkGNavBL216k0P2+JxuSBBkZkkmBsPP/ww2UKsroV65GbpE5Igwpe4Upc6f6USTcozk24ZJs4e45jGIu46M9Fpo621UiCZP/bYY++99960+uU8+eST+GC+frIvFO+F03PXr19P4XwD4pgr8dE0mxc715UDfyIl7rLMss7HysBezI6Mdyfnjagjtum4UnCwdG5qXjkzKWncNjaJfIkvrhBZEl/eeuutRCrMyzj9y1/+EqexHzBH2ajYv5GI6cs+/eGHH2KLbxAAEf1TFY7BbJ42bdrkvX+PiKrwk4hcyTqYyim/x50IN/mZt5mSuAqumOJ4nIdiUTKuAGPEI8hzrrjiivBYEvcJA3/lM0/rU7EU1uTF4rnFbpdv6vlxkK7QO3wyPopBIlg18NeQbr75Zh4UkTd333//fUJhXAURuEIESclly5ahPHeJSjnFsWfPnk1wQBBJk6iQzRt50+jkzYg2s1gQz73wwgs8i8oZDipnFAhGucs2XyQeUUOMAhQFim7SPKpasmQJIxWjSRQYEVv8WdXLL7+c7vPojRs30ov0G6uFkmmO1TOTeFWTL5F5k5Ig//znP3FDOkiymofCvaFtDDo9Wr58OdXu2LEjfg8qfuW9KrSX1MhUM6NAYXIzglHMCf0ZO1obuQptxjWYPPHGNxFhdNy96aabqqt7ibupYaQE9YbFd67oNcrvHIADTvOtIqcYtWj2JZdc0rHZBcVIQcyr3FtzyEhjOGgJw8G8ZbCSaLn/1qEBNAM9n3766UqOAVhM6PKWLVvQhDkW2wm7I8vOyJEjkw64T2yKTID33nsPoT744AMCXJ6Oj8QqnUsRKcTMmTOxxQ1/a0En4nGQpIindPNo7jJYPIV1iVXlu+++Y9Rwk9CwPovqV4LeWvWmh23xuGJuQMpM0Pzll1/OX3OGbbgeBSiGedyid9HlOEUHeo1cUaD3K5WoNs9M4ko9w6QSZiynaSzirjMTnTbaWqtBieifFZLMpFo3B2Drj9piTyFgwHNxoocffphFKe10hQ/GFsMKz+5AYdY3lsp8f2ETia2fxZOFlGWWVTftIPGBNssgOxewYrA45FFZwcHSual55cykpHHbmKD5El9ciXe9LPqxexWnsR+sWLHinHPO4QBGjx5NYBFVMa2JZdmQ4hbgS1u3bo27aS+JJ6ZPQoDtLd4W522O3Q6HwTHiSnwVKkrGFcDx2BGpOf2uSLyQS+/vg1QMl4srebF4brHb5Zt6fYNPV7DdtWsXXk0UhTlwQO/SXxaK7y1wHQemGaiHV3NK+HjGGWd8+umnt9xyC8exK1MbUVFUNWnSpNdffz0fnbwZ0WYWjjQW3HrggQfIEtnjOaUwFVJtSjwgakjKFAWKbjKgS5cujdYCsdratWvTGHFMC+MWDUaB9LWlQsk0x+qZCeRDDEWTqJNYFn0oT0tQj1gzCTIo6JMPDQOxYMGC9ClQTmpkqpncm2Sb5oUt0F+i1bhLC6ur+xIt730XejeMxPX666+PaQMUY1Yk5QuKUaPZ7F5sJGELebML0kBU53vnVf16kM+38H16lETr1sIg6qyTZj5rBXtnjDXQ7FdeeSXNwJAucuAoEK9ImMxHHXUUp9SfS8HsveGGG6JkvSOJembCcW+P5oAsJY0OzVi59z/u12dR/UrQW6ve9LAtHlfMDUiZSbwZJRVEduYMyVuEI7FCFnldfF+LIWCK0n1CFrySbC2+mNr7lUo0Kc9MumWYXIndNh8LcGai00ZbazUoOCxuO7De7EPu3SQJaXEuNpS6D9IGlrhYbOv7CwtC/JGSqC2W4ureQDT10ksvsf7HXdyW01gAO3KwdHZm0guqqo7656DYMsNIjtNbRk6RIk7z/WD37t2k6czggVL/l+3bt1OeUKPbe0pMMEweAlSFCQ9qnVaQbImE6FdHTZAiOhinURIFBvWcWFAu3vdf7AV5m7uNRTf66m+MF4+I08I2Hk2PqvOe1J9LB5WW85R4gV2d9wmBJk/Jh0CHNvP0HvO5B4PqHDOhY8OwDeVBH9kg5tX+NXvQNkMMer1Vim03ki1Tgmbn6wPicJok4gDFctF6PJem5lXVST5YD3Z7eDRwd8uWLdRfnfdJI1rVobMDMfzgmQnHRSpIIEIeGF7Gzzyv45RAJ1I1fl5zzTWM0eWXX85pPIsmdXulAhzkURF0zDAjEuJxEAdR2JmJThttrZWOEjOwZIUX52zevPmSSy7JfRDYHQYN1WKJq7e5vg53Y9hq1YP8uc5MSoabrbIfeJXRKbT6n//5nzvuuOPSSy9l7sWVt99+mzAi/72axGGuVV9YK53DViuWNWL09AmwwqGhVUQnHSOMIq8jExNzXaxIJPJXKvXnDv/IZii29kEda6Wz31otX778+uuvr07657DSCvLnOjMpGW62zkzqDMW2rlV89Wvy5MkrVqxYsGDB6NGj478yV7czrJWOtdI5DLUi/r7tttsmTZpUfLFwUA5DraqjfVFeqVgrHWulY60U4i3AFwO/xLV/HD5aBflzh3VmUl09vCFuPmHg/yFW551gNlRHZjA6avXWW2/deOONp5566rRp0/7617+SllQ3Dm88r3SslQ5abd++/fzzz58yZcozzzzT4N5z6NFjXj366KOjRo0iu7v77rvnzp173HHHTZgwYePGjdXtww/7oI610rFWOg1q5c9M9qGNtsyG6qh/rJWOtdKxVjrWSsda5WzZsuWWW245/fTTp0+fft999xX/rsda6VgrHWulY6108uf621wlbbS15+hYKx1rpWOtdKyVjrXSsVY61krHWuk0pZUzk5I22tpzdKyVjrXSsVY61krHWulYKx1rpWOtdJrSyplJSRtt7Tk61krHWulYKx1rpWOtdKyVjrXSsVY6TWnlzKSkjbb2HB1rpWOtdKyVjrXSsVY61krHWulYK52mtHJmUtJGW3uOjrXSsVY61krHWulYKx1rpWOtdKyVTlNaOTMpaaOtPUfHWulYKx1rpWOtdKyVjrXSsVY61kqnKa2cmZS00daeo2OtdKyVjrXSsVY61krHWulYKx1rpdOUVs5MStpoa8/RsVY61krHWulYKx1rpWOtdKyVjrXSaUorZyYlbbS15+hYKx1rpWOtdKyVjrXSsVY61krHWuk0pZUzk5I22tpzdKyVjrXSsVY61krHWulYKx1rpWOtdJrSyplJSRtt7Tk61krHWulYKx1rpWOtdKyVjrXSsVY6TWnlzKSkjbb2HB1rpWOtdKyVjrXSsVY61krHWulYK52mtHJmUtJGW3uOjrXSsVY61krHWulYKx1rpWOtdKyVTlNaOTMpaaOtPUfHWulYKx1rpWOtdKyVjrXSsVY61kqnKa2cmZS00daeo2OtdKyVjrXSsVY61krHWulYKx1rpdOUVs5MStpoa8/RsVY61krHWulYKx1rpWOtdKyVjrXSaUorZyYlbbS15+hYKx1rpWOtdKyVjrXSsVY61krHWuk0pZUzk5I22tpzdKyVjrXSsVY61krHWulYKx1rpWOtdJrSalhnJnTSKHzxxRfVkRkMa6VjrXSslY610rFWOtZKx1rpWCudBrXyZyb70EZbRrE66h9rpWOtdKyVjrXSsVY61krHWulYKx1rpZM/19/mKmmjrT1Hx1rpWCsda6VjrXSslY610rFWOtZKpymtnJmUtNHWnqNjrXSslY610rFWOtZKx1rpWCsda6XTlFbOTEoatP3222//PAAH1aXuDOW54mxYuHBh3ph169aNHz/+tddei9P9oEGtfvnllwceeOCPf/zjH/7whxdffLG62oX9fi59P/PMM8URqdP7uTS7R+Mb1KovsN2+ffsJJ5xAw3q38Isvvjj55JOvvfba6lyYV999993TTz89Z86cRYsWMZ1+/vnn6sa+bcapn3/++bfffrs6H+DHH3985ZVX5s2bt2DBgpdffnnPnj3VjQFb5sPWrVvvvvvuG2644cEHH/z000+re3vhCte5SxlKUj6ux3O5u2zZMu6uWLFi27ZtcSvRrdmFzhRbtWrV2rVrf/rpp+rSwETlcRhi/thjjyFaXC+0otj69etfeOGFos7UbGp4991349FFmb7IbWkwgxuSvv766yhc3dhLNP6ZZ56hWKz41Q0BdMY9aXOcDsXWO72OtdKxVjrWalBYP1lFWUtnzpzJgsnqWt3IYP1na9u8eXN1XiM9d9Atqb50J9see2U3DpbOTc0rZyYlDdoOmpn88MMPS5cu3bhxI8fY5qd9ocyGaAzJSXU+EC4Qpn/88cfVef80qNWXX345YcKEs846CydHh+pqF/b7uYdnZkKTyEzITz777DOiUn5W9/al38yEBfT4448/+uijTzrppHHjxo0YMeLCCy/8+uuv425qM6vqrFmzUCavmVGeNGnSqFGjsKVtI0eOnDx58o4dO+Lurl275s+fT4Vjx46lAI+gJIlr3CW8Xr58OVeOO+447vKTkizZkT9ge+edd1Jh2HKXY7aElLr0aHauM+WXLFlCs/PZwv5BX4444ggMo2Hw3HPPcavQijSMWDwPx0lC8DgaA3QZQyqPRzcyN1g3aFJIGv3Cm1LiBOgzd+5cBJkxY8bUqVOPPfbYJ554oronUGQXf/vb31avXh3Hg8Jw50naoRQV0TV8qiPJ0Yby3G5a1b21zn4/l7FmeqSx7peDNUaH0rxSsFY6/dru3LmTUCHWavYLDlhXN23aVN0e2CBWrlw5evRolnH8pbpag+eyA/bekrot3dHm3ntlNw6Wzk3NK2cmJQ3aRjLQIw5m9jPbIpbFNj/tC2U2ML9xsFQ50f/FF19MmIXmcWU/aFCr2Gh7eHjOfj/38MxM5s2bp3S5r8yETJL18bzzzou2scg++eSTRx55ZBrB1GaW7zFjxjD3Us179uxh7k2cODG9OnrzzTeJepmNsVg/9NBDRP8kBvGRArH79OnTcY1oz/r164855pjZs2fHqyPW/RtuuIErXOeUiJCgP9lShuemkLp3s3OdSS3YBtgncukefPBBKqdH0U7KE+IjGjForhUNnjZtGpl2Hsq/+uqr7C7XXXddvHujeY888ghX7rjjjvy5/RK2PJHNLJf02WefjcrjFFgB6NGaNWs4pv1kKeeff/6gbwESSJS6gyA8TvTWOk3tXv1yIGwRAa/vSFoKhvLcblo5M6lzKM0rBWul05ftTz/9dNVVV7FtxZ6CVu+88w6nXIz3XyyAHJNj3HzzzayKPVZCnsvK32NL6rF0YzvoXtmNg6VzU/PKmUlJg7ZM39/ykj//mR4RbBE/zZkz5+WXX44pRaJ82WWXERURH9x2220vvfRSfrp7924K3HTTTYw0QRLBJeb33XffN998E5UDs5Y4jDpnzJixYMECJnqarNhSnp9xCmyTxCXbt2+PU2IpNrYnnniCGm655Rb2ubhOnbgZcBBXGBQqf+yxxyj2r3/9Ky4CFV5//fXpIxceTR9pOU0tinGlKLZ06dL0RFi9evU111xDcHnGGWekZtOAf/7zn5wCDdiyZUsUBnSmniTL4sWL89qAUy6GLZWkvjAikZnQfcTkLjVQT9INUDhuwbJly/KaeS6Ly6pVq9Ccu4Xm9DQPR7iOvNQfk7k+r1IjB23DRx99VN0Y0AqRGRTWL+7SEtTGlrR24cKFXLnrrrvySfLJJ5/Q3/isrJgVWDEboy+oxNzQMxOGg+Ab8+q8FipFf3fs2HHKKaewyNKGdIv04Iorrrj//vvjFJKncMDpokWLzjnnnFx5lExLOYnB6aefns/tdevWsfSH8g888ACJR26bj0vvZqcxitQCZdh+UqvYk9hduBKnAZ4SDUtaoSrFJk2atGLFitRmLrKX8KD8AyvqIbGhfsYIf2dYyVWqe7/+Wr/SkWgz/oViuaRfffUVUz0fTVpCdpfa0zEzSXMSitUm9ZQxxfERHG9lgRr07R0wafOSzPb4YgMULkbDkl/z87XXXovtHEKQp556ij0iOc6GDRvirkLdB3W62SZZqvNODOW53Xwwn7fd2O/n0ilnJjpttLVWPWCpIR9gyWI54hStWPzZs9JegPexEbCg4SO4P/4yYNcBnsvm1WNL6rF0YzvoXtmNg6VzU/PKmUlJg7YxhyZPnkxOzERnK+V4xIgRTz75JHcJrYgMmKApM8lP8Q0mLoUJ2cmYr7vuuksuuYRMevr06YRNUTkl8QrSEuBB8eo3fCmf+gG7OG1IgQhbPonK5s2beS6VpN82iY9WgIO4wi2ikOeeew5voZK4GB+58IgHH3wwrjBwp556KiGLUowCuVb1zIQ+0tPRo0fjn6EbfScWj/K4K3EV/aVylGGHHjNmzDvvvBN34/UGJsToLC5UEp+NcgvRaF4xInnNBDr0nQoJ5aGoGa+78MILUWPmzJlEVISVRxxxREfNucJ1Sqaai7lBMe7ydNpQ1FNvA11IbaAYTaIBjDi28TkvmR4JAFqxinFKipsGev369Qx0jG+9hTz33HPPpS+YTJkyhZoj1tm0aRNtGz9+PLFsAQnqb/XWiE/80tDT3x9//PHKK69EZxZfetEjimJcEIGS0ey6DzJ/ECHPRnLoHb2OLxfVbZm6TJU0wwvyZoctytx+++10n2b/tgP03AOYY+EsaUUmTULGV199FXmLmPX777+PIQ5ifWCe04Z6oJlfieEYkL/kxhtvjPIF4WizZ8+uzn/9NTLPNWvWxMc1tK34NldyHOYVz0VwVp6UTqTucOXqq69G0pSZMCWq1uwLVcX3H3Ip3n///eOOO27ChAl4LnCQXIwJQzZIzczGmJMjR46kMVznbghCQMBEZV6F46fPyhTqc0Onm219lOt8/vnn3V6yQP6yo8gGmS0sIExObvEzf3+RpgcHkafVa2Zour1kgR6vYOhUnpmg/7333suuxNYcV3pzIHRWcLStY6100CoiGdZq1nCu4IbxxgQfwf3xl4GCHej43N5bUlq6O9oWe2U3DqJW1VH/5M91ZlLSoG1EHkzBlStXxhVCakJJwsf4TDCPFLHNT9NdImlkiStEEoSSkdgwrak5fccdVyFIuuCCC6INn+37GwWRhef+Q8gbIRdS4wbYxnUe8R8DpKiFWxRgXNgacYmI0ohy6AhBbepLhDW0ql6MVtWLFVrFRptaSOOJNeObJxCfeKZ14eWXX87jKvShd+GrUXLatGmRv0E8Mb7WQqsoSb5X2GJC+T0Dn5wSKqVoLO7S/vjU5Z577qFVaTTRnBCWyiP8yoePeIIWLl++PEUSeX+jkURXEXJFPRHgdmzD6aefntqARDyFeDRWRh5NA7D98MMPOaUqcrb8w7EHHngAYWMm5C1kzhA75m1YMvBrFREK09oXXniB9jMQBYRHFChgYpNb0hLizrhCDYjMI7Zt25aiqLhVgBp0nzwtGgbF3Ejjmz77yqH99IIgmDZwmtsiEWkeYpLDx4QsKJodtqQW48aN4ycmv+UlXTITnktAiS0xJXM7VuRoKt1BT0aqd8zKJKHXJF08ty5RfoUCDEc1APuSfKQA8amcBKk63/sVBeqkd2jy+uuv09rq3oBWpLt4a8gI8a05YtY4zbvDTyLX5K1Miao1+5J+tyS3ZX0g4yUZGzD9TTFGltia4/jCG/MweQ29SOtACMJz0wyMyc9SFqeDks+NfulmO+goM71Zjrq9ZGFqXXTRRYwUc5gCeTYYU4gFP+VpLPikH7GQhhosI3mehhqR4wEzf+zYsVwceL9RvmTp/QqG56bMhHlOs/O7g3IgdFZoKirqlzbaWisdtGI7wM3TC9YEPsL1tBLWKZ476JYEaemut7m+V3bjIGpVHfVP/lxnJiUN2kZkE2F9fiXFOnmkiG1+mu7mk55wk6Az3oPGN1hiFx90NuA/RAOYxGk0gw2JYzSfNWtWhPWcUjmhQ8BpvCqILzXSnoieub569Wq22Iceeoh9MXqH07K9EQHXi5FK1YsVWsVG28PD2bYpQDGOb7rppjz4ht27dxNR4fYhS0o8gI2cvCiSJSBwjAZUtweStHgfT5tpeXQ8wd3oDlKwmuSjCfG4WLDS8BGwHnfccfQlBViQ97feSCqna/zs2Ab6mySlWmzTUIZuKfEDCqRQiQbMmDGjYyYcmW3ehnh0HhwrqwyPo07ip/h0u7r666///d//zZSL+qORec1BtAdIcfPPQ3KtWIsJvGhYxw9MCJvmz59PFBWdgrCNGU7NDAT5ZCS0OR2bjS2ziBkbqUVUAhxEgSC6gzmT8PHHH48UEa0wufnmm5lgEfHnA1GAyX333UezyWroAs+tS9RNtIJcq0TMQHLUNCtI6mLm0GUezUO5yCPeeOONaG2dogF5d/iZZyaDktviUCQ8HfNbpn2a50GseOEO0R58MFaqdGVQiRIdtRLpZttjlAMytB4vWVgbMU/uTBqf+huZIdM7lhF+xrPiM6LoOwUKW+Yzgx4vOCjQ8SVL3O3xCoYHRWYSD2UuMaOipMKB0FmhqaioX9poa610XnrppZNOOumiiy4qNgLAR3BJfKQ6r5GeO+iWFORLd97mbntlNw6WVk3NK2cmJQ3a1iOb4koeKWKbnxZ3A8ImtpPYiYktCGtGjBgxZsyYSy+99JVXXolooyOEznlIzd7PHhYfJvJcwkccb+fOnfHRCqfAAacRGXBKyTiOT2kIL4h3CS9oD1sjXsRpRMD1Ylu3bq0XK7SKjTb38C1btixYsIBdnLYBQRUFKMYtou10XBCiEb4MfEmh4k9/+lOUR3b6lY8ILFu2LGKLjqtMuovJ2WefXdiyRpDVhEk8+rbbbmNEyCUiYE3k/a2PbKJjGxYvXhxt4Jhb6RhCtzw4ywsw4hMnTkxvevLn1ttQr0pZZZhLxF533XUXtgxTLJrENwwBCW2KgIuaA/JDbFesWEEyQJtT9JO0InJivFK1BRS7/PLLc0MIWybY2rVrn3rqKUafmUNuQ0QYBYKOzWb9IbVIH7gx0APOWmYm9I6UG6egWrI7Yke6iVavvvoqgXWKuYuRSoTnEvn9/e9/j0lCm+sSdROtIJ9XEDkPXY5WxUUO0IG2Mdwoll7Xbdq0iUeEdwO2KHnddddNmjQJTfDikSNHpgbk3eHnfmcmjOkpp5zCwsVTWB/yv/jMs2gPHY9TyFe8EATfj1sgSpQotOqLbrZ0DbX5yXTKYYZElA+FbepmrIex0sYtpGASAgeIwxAwjeMWxNIan29H3/PJGbUhF6LFW4brr78+bgVUGIlf3O32CoZjusP4btiwYfny5Qxc+oRH5EDorOBoW8daKeCGrJnk//UdJGBNw0F6rITpuYNuSfWlO29zt72yGwdLZ2cmvaCq6qh/GrStRzbFlTw6xDY/Le4GWE2dOpW9OQIa3Oajjz668cYbx44dS0nm6/PPPx8lc2LHyv+YA7EIu1p8bsBz2Y3Y8EhUcDOChoGdazOZDD+5yC0OKBmfn7CfRS+Id9kducIBo0b5iIDrxeJKUazQKjba5OHshaNGjZoyZcojjzwSOz3xYmzn3O03M4H41R2aVM9MSKJYetYPwEGxyqS7rCO0p7CN31KIr4rFowm5UKz+5Ye8v/WRTXRsw2OPPRZt4JhbKciD0C0PzvICZINEG6lw/lyWyKINeVW0tq9vcwHOi7bxvTiGmImU3sjWG1nAQsxKjZKxroVW9JfGU2f65k/Otm3bWKPrSUsxrwARUC//K1U5ebPpHWOXBi4mcDHiBbhSfMESq9NOOw3xk5cVI5WgMHM7fScQaHNdovpwhP4F+be5CIVZDdjb8q8RAmXIn+Pl+vvvv89yEe186KGHkuaRvZCKzJw5k7lBzQ8//DDTODUp7w4/88yEKRGNKej4bS5geWfiXXDBBTSVSYhbMVVY0+p+jfJpxQtBhmFmQhfq5B156623Or5k6T3B6Bfz9pJLLokVDOKX8aK/Hfs+e/bsqBmpEXzRokXVjQHEVzAcc4vxvfXWW5mo+HI+lxQOhM4KjrZ1rNWgsObgCEceeeR1112X3vIUdHSlnI7PrW9JHZfujrbFXtmNg6VzU/PKmUlJg7b1jae4kkeK2Oan6W58+BB024mZDUDs3nG+koFgld6MMu/JUuKDC055brTqrrvuYhOKbz2lD08W7vvPGfFACrDRTpgwgVAMWwpQ1RtvvDF+/PjY1erFuFIvVmgVXQsP//7776dPn068wnyIu7SZXTk2XU57ZCarV68mN0gaFtAR+hV9rC5lYRPUV5l0F5P6Zya5SYzXkiVL4htBPCi1H/L+FgOd07ENRBjRBo5Te+JWfUrkBTg+/fTT0xvZ/Ln1NkSWFVVFMyhQJwogAjMt/21d4BaNIWdApap0DZ5IpkokiqdXZgPkzUYrpg1hMVFyx/9vhfnEiROZ8Lt27aouDcA84ekff/xxzO0gl6hHsynGvKpaWYPmsVExstRfmQ0QQnGXKL8qWqOYM0zRyJOr84H+1scxv9JjOFKkHqkFosVnoTk0LzoYp7g5W+Cjjz7KfL755ptjI4xP/wig076YzwfIB4ifeWZCmao1+5LK57aQ1igkRQ3aHN9BSgMRdyEXIY6HYWaSd61Oj5cszArmRjE9EvSryEyC+HNtHfvOGk5qjXfEC44iMxFfwXDMLYaPZpPE5n8FQeRA6KxQ3/t0DlabrZXO72nLMogXsE4+9thj27PvjRfg+Lh/4Uo5xADQY0uCbks3bR50r+zGwdK5qXnlzKSkQdv6xlNcyaNDbItgMU7nzp2bYoXcDYiQ1qxZw8TlOGYD5TvOV6Y7G0y6jsKnnnpq8qVoM5nDRRdddNlll6WP+DkgCCBDyDN7cn08avHixfHdMGypfNKkSfPnz4+3zh2LcaVerNAqfDVaFSqRiqSO01l2XApQjNN77rnnyCOPTG+LKTZ79mzyDZ4VX3jIReOAvn/++eccUDMJA0tA/M563CVPo2byt1Amfdka4uOm1Ivrr78+twWSN1oSC0o+fBFYs9ykdy15fzcPfJsibyRW48aNI3Pr2IaLL744taFYleoBSioQH1UxiPlTUgspQLF8cNGTvuRV9VhlqOSII45I6S7QU+YP7cR/ceSPPvqItgVEvSeeeOKVV17JMa2KR8fvcoQtB8TE6csklCceoiVJhBzmD9OS4S6mEFAP/WUC5PkDiwnaxsTu0eyYPNHggEqI3YEDZk5MyyLhZMjYvYj1t2zZUpnthQ7STVSlfOppR+hIfG0pn/NRcxF61gkRsGLcSS3efPPNuJ6zbNkyNEn7a2yEzARmTgo6Y1Dy9yCoRJKfGpBPPH7u37e5SEVYHIqPdnlELInImPs1UDjk5RhJaXC7MpN4yTJ58uQ0Zxip9JIlZlT0Pe7mxAcg3T6ijL7nEwaQImqO0Swyk9TUuFsMX94RjhmIlStXfvjhh3glnpvWMYUDobOCo20da9WbZ599liXuySefxL96aNXRlXJwfAKMHltSj6WbNkf9PfbKbhwsnZuaV85MShq0rW88xRUiWjaAv/zlL8Qlu3btyk/ZCSKOZAavXr2aHR1x2CGYkfFXmPCZ2LOpipiDeT9t2jS2QGyj5pNOOikiZrIOwqn04pzNnqCZn3EabaYkDoArptCEuIRieUlgdHgEeU7siNjyaCIqivGUqlCtGFfqxag/RckQG214OLH4VVddRcffe+89zD/44AN2d0TjSkwMrpDnTJkyhRCWvR8RRo0aFd4LN998M6cPP/wwGgIHCEVwhiFaIQWx6cyZM9ETVVetWkXH05tjilH43nvvrdsCwSJduPzyyxGZ8jydTqVv7cd4pR5hlQfB+ecedHDOnDmc/uMf/6D98cc6Ushbb8NRRx2V2pAHEFAPzlIBNGdBTP86HfIWxlSkO2vXrqU99AU9mV15VT1WGRRgiKMLtIEAN37rKa2huS8UjSTfIGVijJYsWbJzAA44jQAI81tuuYWpSJfjHXMi1mIkxU2YSNXVvUQMxwFV0RcUiBCN42P2/qJw72YP6r/MNApfcskltARzYmi8LHadulbFSCXoHWlV+GnAcyONzIeDMtQ8aNgdbaYBFCahffrpp0ONIH7bIeJLnDEmGI+mWjqCyKEDHaT99IU2fPPNN4wCItNxpiVpG6dY5d2h+3g3TsTYxcuR3iTbcG3SVFL33yb33r9vFg5Ibfg1jhBuTpNY07jCdU5jFrUrM4kpdMUVV4RTQIwUzabxnBKd0P30soPyDOLVV1/NshDz/NFHH41b8N1337311lsxG6PviJMmUjwLOGAFJtk+99xzO75kibs9XsHQKeZGdIoQjeWIK6kLg3IgdFZoKirqlzbaWqsesE6yCrFTEGWxiqZvNaevp8ZvfQB+gXewtMZp7FC5J1I+/uRgty2px9L9+eef994rf2trFw6Wzk3NK2cmJQ3a5hO045V4+0uwyN5GbpCfMn0jjlyxYsU555zDAZBYM1+jKuYloRsl4xbgS1u3bo27KQaNJ6ZPQgBfSjsQRJvjG195Ik5sxOPyksDmNGvWLGqOt5jYxktBdtDIgoKiGNSL9chMIIJ+CkDkZhiyBIQJz6Wn9DcKjBw5kg6mr/3gzAsWLMB74y4SIVS4MWpgRWrxt7/9LWojPiNUSp/2FKrmtsBzCRyJBuIuz2WBSF8oSprHKVbxEW18ny3PTIDW0mZqiKrysau3YfHixakNSJTXUw/OUgFawoDG1zOCooWMNYtvPIWxXrlyJVMlr6r3KsMqSfdTFxAc2VOsk/tCvZGEv3Q/jRGVMAphwhidffbZcb0gpgf1VOf7EvWzhrz++utpjID589JLL6W4qkez8zZD4a1AKsteRYVhCzwoxreuVTFSCdqJGmhSne99bj7nOWDfKoajI2EbI1snPSift8x5FCbtv/7660MHmoo+LDXJKUgJPv30U5IojqOSvDvMRtKSgcr+73TqQW6Lv7ANJ/05yJ0XL6BtPJRb0c7kFzGL2pWZRCaGG3Z7yfL++++zRJDrEqB89dVXZMjpdUZk0WRxTAxsmdgEQBSOv3AdfWdFZWFBPUYkXtCkJZc15Kijjur2koUDTrvdpVMpM6ELZO8pkFI4EDorONrWsVY9YObj1LFA5SRP77be4jjczTcOnovz9tiSeizd8R+We+yVPThYOjsz6QVVVUf98zvbxpbzww8/hG065TimbGz86a/i/maTEeXffvvtbm8uMcEwhVZAVZiEV8Cw1Sq6ljc1kWzpF71jZ43TnOh43Tx5DlaFMolutum5MRwdn9uNjv0V27B/Ooc4eWJZJ0SmWH1qgbLKRBd6aNWD6GP96fvX3yDZ0n2it47aQsdm689lAlB57nSNrMgxHHUxe9CXVkWzsUX5XKIeE7IAW2pTSkIRvqNVPAg6TrwYu45rWl/9LTgQtr0zEyCvIMiIqKL+koUCJI0pI+X60qVLESdsd+zYccYZZ0SeBgQ3FI5bkZnMnz+fvDrSPH5ynGw5iL/pF7YckHjkdzntdjfPTCBemem/cHKwxqipqKhf2mhrrXT2Q6vNmzdfeeWVrGP5c2NZE9dMyG277ZXdaJFWify5zkxKho9tnpn0xquMjrXSsVY61qoHRLqjs3/hf7hpNZBs/kaPhDNedtTDDrQiQ+sd0ESBeiJHmyOg6fboHnfbqLN9UMda6eyHVsuXL5838EUVa6WTP9eZScnwsXVm0o2h2ForHWulY606smPHjrlz555wwgn590KtlY610rFWOtZKp1+tyPMJZeNNgbXSyZ87rDOT6urhyrPPPsuOzs/qvDvMhurIDIa10rFWOtaqI+++++6ZZ5557rnnvvHGG9Ula9UP1krHWulYKx1rpdOgVv7MZB/aaMtsqI76x1rpWCsda6VjrXSslY610rFWOtZKx1rp5M/1t7lK2mhrz9GxVjrWSsda6VgrHWulY610rJWOtdJpSitnJiVttLXn6FgrHWulY610rJWOtdKxVjrWSsda6TSllTOTkjba2nN0rJWOtdKxVjrWSsda6VgrHWulY610mtLKmUlJG23tOTrWSsda6VgrHWulY610rJWOtdKxVjpNaeXMpKSNtvYcHWulY610rJWOtdKxVjrWSsda6Vgrnaa0cmZS0kZbe46OtdKxVjrWSsda6VgrHWulY610rJVOU1o5Mylpo609R8da6VgrHWulY610rJWOtdKxVjrWSqcprZyZlLTR1p6jY610rJWOtdKxVjrWSsda6VgrHWul05RWzkxK2mhrz9GxVjrWSsda6VgrHWulY610rJWOtdJpSitnJiVttLXn6FgrHWulY610rJWOtdKxVjrWSsda6TSllTOTkjba2nN0rJWOtdKxVjrWSsda6VgrHWulY610mtLKmUlJG23tOTrWSsda6VgrHWulY610rJWOtdKxVjpNaeXMpKSNtvYcHWulY610rJWOtdKxVjrWSsda6Vgrnaa0cmZS0kZbe46OtdKxVjrWSsda6VgrHWulY610rJVOU1o5Mylpo609R8da6VgrHWulY610rJWOtdKxVjrWSqcprZyZlLTR1p6jY610rJWOtdKxVjrWSsda6VgrHWul05RWzkxK2mhrz9GxVjrWSsda6VgrHWulY610rJWOtdJpSitnJiVttLXn6FgrHWulY610rJWOtdKxVjrWSsda6TSl1bDOTKqrreWTTz45ewAOqksHBmZDddSTm266KW/MSy+9dPzxx7/22mtxOqxYtGjRscceG2174okn/vCHP/Azbu03MRxnnnnmgR6O/SANTd7xOr3v1sGh3n777fnz58+aNev+++//6KOPqhs13nzzzUcffXTTpk3V+QAffvjh3//+d2ypgdmCb1Y3Bvj0008ZlOuvv37u3LnPPffcrl27qhsDcMpFblGAYhSubgwwaMP+/e9/L168eObMmXffffeGDRuqqzU6Nptn9Wh2gmJPPvnkCy+88OWXX1aX9jYMnXk0PzkWV0bFB/PK77nnHvpY3chAtxdffJFO8bOQtDdoeOKJJ86YMaM674eh2O4H4nplwFrpWCsda6XAir127doHH3zw448/ri51YdC1nTWW63G3x0YM69evZ/0v4KJyl3Y+/vjj1dW9FHvcAaXBeeXPTPahQdtvv/32zwNwUF3alx9++GHp0qUbN27kGNv8tC+YDdVRd6IxCxcurM5//ZWYjzCdqVyd90+DWhV937x5M+4UZQjRyEz4Gbcgt8UEQ8yr8+6EAnS523AMSoP9zcmHJu94Ip0yZH/84x/ffffdOO3Nd999R3R+xBFHjBs37qSTTjp6ALKF6nbGjh07JkyYUIj8+uuvjxkzBhNsqWHEiBEXXnjh119/HXeRneujRo1Kd88666wvvvgi7u7cufP0008fOXLkCQNwQDHyh7jbu2E//vjjbbfdhsnYsWO5e9xxx3G8bNmyX375JQokOjabesi3uzU7QW1LlizBNnfPzz///MYbb8SEfhGp85PjOXPm0KQo0INBfZBKyJSoMPpFC6n/gQce4FYaX3Q77bTT6NS111578sknc8yVuNWNZIv4mGAYp4hDard79+447Uiy3bNnz+rVq9lZ41ShmKJ9oaxX3RjKc38H29xD0/EQtYr1IZ+oIsNcq44MUavqqH+slc5hohX71Lx589h9jjnmmN577qBrO7sSF9nLYkfL97s6rBtsTAVcVO7STtac6upe+l06hqJzU/PK3+YqadB20B2FsIOZGnEVtvlpXyizgZCXiC1VTih/8cUXEyCieVzZDxrUqkffuYh35bdy27vuukt0vBiOYZiZFENTJ9mmWCdOe/Pggw+yAj7yyCMR01PJ1KlTCV4/++yzKBCwqjINxo8fT+HUhi+//HLy5MkkG/FoanjyySePPPLIWAEJ9Lk1ceLEbdu2DRT/9dlnn2UtvuOOOzj+6aefrrrqqtGjR69fvz7uvvPOOyQ5XOQWp9GwlStXdmzYq6++etRRR5E2/Pzzz5wSNBNt13vdrdmTJk0677zzOjY7hyiclInUJZ8899xzD/kSMypSER69aNEirlBJFOjBoD5IJVSV+oWG06dPZ85jmMYXZWg/veA4+sKVuNWNZFtkJux8nKZcsSPJdj8Yiu2hFBUVGWD+ZiF5a0dbHJNssDrpDlrFwpVPVJHhppXCUGwPpXmlYK10+rXdtGnThAkTpkyZwoo6aGbSe23nJ8fUw4bC3djR4u6AdQl3iVK++uqrjm1Od6vzfWErZENct27dwdK5qXnlzKSkQdu0o9Cjhx566IYbbpgzZ87LL78cAdnGjRsvu+wywqbzzz//tttue+mll/JTtjoK3HTTTYw0URS5O+b33XffN998E5UDU/yZZ56hzhkzZixYsADniZoBW8rzM06BKUsotn379jglCiRweeKJJ6jhlltuSREMdbKhQngRMChU/thjj1HsX//6V1wEKrz++uvTRy48mj7ScppaFONKUWzp0qV5zFRIQd/Zs+k7uz53qSHPTKjhgQceoE7WDur505/+RFhPkJq2eSRCKLoPy5YtSw+K4cgzE9IhOkV7ImIu4EFJeYIP6snHl1MuxlMIMtK40Hi6QGOofOHChdwl0uUuE5vwnVPGC33SSEE+NHnHAav4UhNDsGXLlhTrxN0e0CMWSpKBTz75pLrUJbEhQyC+JwLmVhKZZ02bNu3vf/97nAL9TYEvo3nOOefcf//9cQtYKBE27qIASS89TX2kMVdccQXio3xqWB5m5Q1jTpKo5NOjmABBt2aTMuFicQp5sxPsHPSOgaAZ0Sou8vPss89Op0EkzGFeDA3kVwZdkekjouX9oqfR6zSvKJMa0DEzYedbtWoVLUdeZibzM71ZyHvKhDzjjDPYUK+55hqOo0Cd9NyYtKkkT3nttddi5vOT49hxg2gDHsfd+rITgmzYsCE5DnM47iaa2r365UDY9sgA06yu2zLETHIKVOfdQSsKMyuKmakw3LRSGIrtoTSvFKyVTr+2LHG33nprhEODZia913aOqSG9pwOOucL16nxfWMPD2Tu2Od2tzveFrbDbmqMzFNum5pUzk5IGbWNHiXfPEatxPGLEiHgFyy5OIE7IlTKT/JRYgUlGYWKLiRMnXnfddZdccsmoUaPIxeOrKVROSWYhaQnwICJ7PCSihHowR6BAG9K3nog2iIY3b97Mc6mE07ge7++Bg7jCLbJwNmBCTyqJi/GRC49IkRMDd+qpp5KrKMUokGtVSEHf06bO3bwv9I5bRx11FFE+lRP0R2tTZkJIxCmxAlkBcDBmzJh33nmHWzEcKTMhfkLYpGcBAfTcuXORlPYjftTzyiuvxN34cJbRpAGEYqNHj6aqiFAjQLzwwgtZqlhEiMgZNSohCCYWYQ4QbnJl7dq1URXkQ5N3PFpI5bSEvnBMnekuORVBcx1alb43BbnOIVcaWdi2bRsmjE59wkC+ykSMnka2IIZ19uzZ1fm+z41pgNTff/99dWlfioYVfoTaDESaotCj2YVtvdlModtvvx2VyK+YD5BWedafooUxmtGvfGiC/AozkAfVKYYjh/YzuEz+1Gb2qvjMhFQWx+eY9sct+PHHH5k/TLwrr7ySA6bTEUccsWjRonD5IjMhY0+ZCZ1i+lUNymAFoBIel9sy88l8mKIsODwllh0O4nMknIW5HW0g7Y82oENadhCEmRlLFmUoyepXuNghExXVM8A8WU3TI2wR8N5772V94wrrJFbY5rkuo1B/2YFWsXDlE5VZ0eOVSmJYaSUyFFtH2zrWqjc///xzrGl4Ma6aL/sK+drO9jFhwoT4JDzgmCv5dpnI3+LV25zfrS7tS/1t134wFNum5pUzk5IGbWNHIahauXJlXIn3oMyt2FHyuArbIsyKUyJpZIkrTLv03RICNWomaOOY2YAXEd5dcMEF0YbPPvvsmWeeSd/biVfa+FicApFuzG+kJqbENq7ziP8YICX03KIA40J4RyASLrF9+3Y6cu6556a+xDd2aFW9GK2qFyu0Kvqex3z5LRISri9ZsiRWjVA4OsLpnj17iIDx+bTZIx0dpwHcisKRmRAqEShznEd+OevXr+dBSYSoh8SJIJtBJNycNm1aircIlAnyyB9oVQR59JFViVtc4TrtJ9qINhOnchf9B0zLock7fscdd7Ampk9m6RRdS3fffvtthrhO8WsqcUxUtGrVKp5L0BkDEReJHYGDQv8grTJ0mdgL8/fffz+uFCAUMeirr75ane/rC3SBZqfsNKdjw5It2wOpJr1G+Rhi6N3s/Lkdm01jxo0bx89i8kBuC4wXw5H6lQ9NkF9hZlYDsC/13xoKYkYxXZmZqQCCkzCcdtpp5N6XXXZZMTnxHR63fPnyOEUu8g0mG93kNM8ugANOucgxJcmEqwZlPProo0TSNCC3jXcTaUEAli9i6PjmHoNIosKVaDMSkeahcGRfMRy5a9BaBETtOA0OmaioyAC5kk+JdIwtc5UVAKEYRBz56quvZvXOM5NuLzvQqpioXORWt1cqOcNKK5Gh2B4y80rEWunsty1e3G9mkq/tLM71XCI8Or2OzIlbF1100a233nriiSeyYhBNpS9Z5HcjzMjvAq0lFFm6dCkxG2vIKaeccv/999OMuCsyHOaVM5OSBm1jGkVYn18BDjjN4ypsizArTplqcQoE+ky7SLXZ7NnJIkYfdDbgV+PHj0/xQTQjgmM0nzVrVnISKie1CDiNt90U4Cm0J73YJqBhE33ooYemTJkSvSNkwVXIherFSKXqxQqtir7nG3y6RQh73HHHcYs2R7FCzwiqouUJuhnticKRjRDXxsZfFaqBFVKnL7/B7t27t2zZEl90IarI42wiP1afGOgI8lImBjSYkXrppZfitIggi6FJHQ/laW3+fVO6lmQR+eijj3gcAtKdxx9/PP9aDl0gDo6Is9A/YF7RHq6TDxMEd5MrxoUELHUZUpvJ0HgKi2mMUSJ06NgwbGOwuEvN99xzT/5RRu9mx3O7NTuySoJp5nMxeSCfk6zmrP4MdPrl+zQ0UQDyK32tyMSUzECmZaSv8VymJdnIiBEjEIT4NR6KSswN4trfzGrQgGOPPTYaUMyrPDPpRupvbhuLDC5ff2jMyZjnyTYWonCHGI7cNbrNq+qof/Ix6pcDYVvonE+JdMx6xTEzGU+JYlzkFhfjNKZlx5cdDEc+USnQ+5VKznDTSmEotofSvFKwVjr7bYuT9pWZFGv7J598kpw3CkB960nELXaB888//4EHHnjkkUeInThlGyruPvHEE8VdoLWst6xIf/3rX5966qmZM2eOHDkyf6+nMBSdm5pXzkxKGrStz7/iSr5tY1vs4sUpsIFNGPi7PRwTN8yZM4dJSd586aWXvvLKK93CFyBWyBMkwnS2vfh6DM9lihPqsdXF+3tOIWLiCFM4pWQcx6c0BO4E32+//TbtITSJ0DzC8XqxrVu31osVWhWdTZt6unXbbbfR05tuuokQNtkWehb7fYDTRlVRmAhgxowZLBzdvmMTdAzs4rn1cQEyuigPHMQYBdGXUBuKAsXQpI7nXUv9zWUR+fzzz8kPGUGWS+Ls+fPnxzz58MMPTzzxxPRpXsdOscowVZ555pm77rqLNjNJYrVNMBb33XcfgWmqNkGbI5ulwTy6/n6X0L9jwwBbZsjatWtZW2/Y+/2lqGHQZodWHZtNe26++eYU/xWTB5LOFLjwwguZJK+++mpkCFAXP7+ir8hkSjhXLibPTS/CcWRupZ2GruFN+FScMnkWL15MMcoAwW7jmQn95ensZ8iOqz799NPfffddFOs4J+nF6NGjkYLj+nDUr8ChFBUVOudTIo43bNiwZMkSDp599tkoAxTgSogGPV52UDLJrrxSyRluWikMxdbRto61EsFJ9cykvrb3m5ng+GzZRMKsw9FmNiP2LBaZzz77LL8b5fO7nBI8EyWyk4YtxVh8iBKLFbg3Q9G5qXnlzKSkQdv6/Cuu5Ns2tsUuXpwCVlOnTiWwjhfMTLuPPvroxhtvHDt2LCXZ6p5//vkomRObXHzuEVcIB9NU5rkpUcH9TjnlFE6BTZGfXOQWB5SMN6bz5s2LXrCPsh9zhQNGjfKxs9aLxZWiWKFV0dl8g49beBctia9DJNtCz/jFsrTfB+RIXORWFKYq4jmiLkLeHrlcx8Aunku4XIwLEATTPBamPMgLoi8dM5P60KSOs+KcddZZ0bXU31yWvr7NFTDu8W1AsgJGJFeg0D/IVxl8kzU3/50BKmHuoeTy5ctT+xOMNa0tUo5upIbFad5mIKdlBO+44w6l2YVt3mzSDMaI+RO3iskDyZZnoTMKx2mQix/kV8RvczEPSXhoUv7Om0bOnTuXixxwSmKAR9NOpsdVA3DAda4w/5k8ZINR+TXXXKNkJpjr3+YKPv300//6r//iIn43atSoe++9lyHuOCfpCDtx/Fm2+nDUr8BhlZnceuutCMiil/sIBbhFgTjtqFK87GASxkRFeeWVSs5w00phKLaOtnWslQhOKmYmHdd2nssSkb7fHnDMFVbv+r6Zk9rM6sFykXaugo53ky3BG63Kv507KEPR2ZlJL6iqOuqfBm1jR4mNvOOVfEPCttif4jQ+fAjqAUTAbABSZ0KE+swgA8GK4C9OcQZC4fjgglOeG61i7jLFw4XShycL9/46StjipRR46623JkyYgCdgG5+KvPHGG+PHj0/eWxTjSr1YoVXR99jUo2TcIvWP7zzQsPgmDxR6Fvt9kKqKwieeeCL5Az0lFE6a1CkCjiDaXDQ1SOXrYxQN6JiZFEMDRWuja0krxijJQg00o04UIHdFLoTKdU76xEFlsC/RCx7KRPrggw8qywFyTcgN4nvzqV85zLFFixaRtDz22GPF4psaVp0PkBpGYRYBTmNyBkkxpdnvv/9++jtpQWp2N8WAR1MyafXII4/U/0lOGprqfN8rl156aVXXvuQmkVrMnDkzfQoRxHs1mhenkYBNnDiR5CE+t4nrhKrjxo3L10bmg5KZxFyqGrQvUaawzWE42EHz3B7yORmDEgLWXaOjs9TXKJ18PvfLgbDNdYZ8SnBM30lLGPTig45cNOjxsoO0PA2f8kolZ7hppTAU20NpXilYK539tsVJlcyk29rOc8OR0+feEN8rISiqzruQ2hy5R7c2dLybbCMzSUuNwlB0bmpeOTMpadA238g7Xsm3bWyLXTxO4/eq40q+nxHbrVmzJoKnmA2U7zh9iR3Hjh2brqPwqaeemmZqtBknueiiiy677LL0SxoczJgxY/r06fE2NGCbZBtevHgxNVAPtlQ+adKk+fPn52/Ti2JcqRcrtCr6TvNSX/Jbyf9jby70jK7F77tzCgS4ZETRjChMYsNBCqwjcaqDtx955JEoHKcMAXEhjaeecPV8XCKRI5pkOOpBXvSlY2ZSDA2kjlM5CWSkmqEVnaJrHYe4TupsngOQGRLZ0DW6T3rwW0C6l3/84x+IzE+ukzygNplb+k4RYML0CCVpG+0cPXr0m2++Wd3el2effZbV/Mknn0wSJVLDcPbqUtaw6DXxd95sVgOuMCHFZueZXt7s3bt3V2YD8IizB+Ag5k8xJwvia4FpwkTNaTgGXZEJTAlPGfc0ORM7d+7E0dLLAojCdA01eFBcxDZ/94aAyNj4t7k4Rsb0FKB+uhkOyCjgNZsG/ul+3EVtPCWmN2VyL4b6FTiUoqJC53zh4hhlVq5c+d///d+sGFcO/M2GKBaSUiBOO6oUNafPTCYM/GEPfKT3K5Wc4aaVwlBsD6V5pWCtdPbbFicdNDPpsbbz3PX7/jUd4JgrXK/OM3jQn/70p6VLl3IcbWbRYOmISCC/G+R3v/nmm0suuYQggRUj9Zdn5d9HUBiKzk3NK2cmJQ3axo4CaZsvrrCds3X95S9/Ia7atWtXfsqEi+2KmGz16tVEXYjDFGSH+/DDD7FlqkUwR1Wk4ERX06ZNmzx5MrZRM5M1wgWyDiIYomeOgbSB2IKfcRptpiSuQpSTPqJhQlMsLwmMDo8gmI4PIrHl0WyZFMtfABTFuFIvRv35Zlz0Pd/gi22bADHtzfE9MWp+//33iTvjLrLce++9VAIPP/wwpxFhh/hIEeITDpIspRC5COzi7pQpUzZu3Pj999+j86hRo2655Ra6Q/g4Z84cmodWjMt33313++2385RoYVEPRF9iLCAvUAwN5B2nfjS57rrr8PZ4yimnnJLuDgptHjFiBOsUqRQPJctiSpxwwgl50J8oRGYUGEFWZIJ+bFl545ea4nfHqYF6qPnpp5+O7wUF8dWgiJhRjyla3Rggfa8pGsYa2rFhr776KlKjPN3kLj85piX5PEzUm81zkahjs6NMonBGiObF39iF4i8IxxRlOEitGY5FixbRzTQcvVdknk4b8C+mYiXHXhCB56IJU4jpyqRlUm3YsIGO0LXQIZwi/lYbMlIbj2M1YPIfddRR5HU8gv7mE48UImYdw1HvexD9hdw29lFaG37Bo/HitOzgaHjx5ZdfvmXLFqrFO/C+9BuWxXBA/Qo0tXv1y4GwRTSkQ8A4zf03HWNLrs74ciXGgovc4nTAqHqv2fFlBzrnE5Vp0PuVSs5w00phKLaH0rxSsFY6/dqmL0uz+rHG4qocpy0sXzDx2d5rO3sijswex06H4apVq4r3FPmiEYU5ZQv76KOP2MJuvfVWAp5YOvK7VFXcxZx9hFN2PVZmCqxcuZK1Yrrwd/xyhqJzU/PKmUlJg7b10Ke4wnRh0rBzM9WIIfJTpmls6itWrDjnnHM4gNGjRxP8RVVMazyBknEL2Mm2bt0ad1NAEE9Mn4QAkzh9lAHR5vhaEQ6DL8X1+MXWvCQw+2fNmkXNOACn2BK90WYithR5Q1EM6sWKzKToe+6rqS9Rko7PnDkz7c1s+QSyFIhlopCFA05jCQgpUCkNR3wCE9+OyNeaADEpHPWMHDkSDT/99NO4RWB68803x3OB7JElIJaGej3Rl9TxVKA+NJB3nFb99a9/jacQXhMrP/744+nuoBDgkhswptFIINjtFtAUIgO5GbkHHQ9bmrFgwYJ4JxSF69Avekfzkv45qeXRMESrbuzbMGQkJYu4PKDkSy+9FPIW1Jv9wQcfsOh3bHZB6A9pPoQv1K8HDAdVRc385Ji5lzrVe0WOOqNJBYw4zy3mLc1mgr333nsxA+MpjEhaCrjywAMPkC2EjFRSTLyY29yqdySR1qvcFp2ZzPnokHvk/36H4zQ66IDau3btilv14ahfgUMpKioywNx/0zG28TojJdiRirCOMaY//PBDj5cdaFVMyOKVSg+Gm1YKQ7F1tK1jrXrDYjiwwu1Dcu18wRx0bacMP1kn2cS5yJrJVp63J180gOU038K4lWKYQe8W+0ixPosMReem5pUzk5Lf2ZbNjF6zOYVtOuU439R379795cD3VX6zyYjy5PdhUgcTDPPQhKowwTBOh49Wed97U9hikvcIotfFxaBfz0G6eGPNcfFcLnIrPqsZlHp/60PTEXr30UcfDVqsGzw3vsWkCFuAVtHHjkr2pt7fOt0aFrZ0mbv9djxs96/ZSptpbcc2N7Iix5SA3NN5Vv64Yino0WZEYDnNqypItvlGm4jR6ab/9u3baUb4Rb8cSlFRkQF2y0w4jZcv8Qsn6HbDDTcMBA/VCt/tZQdaUe1AYvJ/M8z8lUpc6chw00phKLaH0rxSsFY6jWv12muvze70rxIL8ueyjHfcO7hy9dVXp8wkwLW3bNnSbQvjLstvt7tc3LZt236vz41rJZI/15lJyfCxzTOT3niV0bFWOtZKp9VaRWaibLSJw1arOmz/YgZYQO5XJH4RcHC9OrcP9oO10rFWOnWtCP3nzp2bvhLSA+W5mzZt+vOf/8waUp3v5dDQSid/rjOTkuFj68ykG0OxtVY61kqnvVo98sgjF1544YgRI5SNNnF4arV/WCsda6VjrXSa1ernn38mUlU+kVCe++233+YvIxKHhlY6+XOdmZQMH9vXst9i741XGR1rpWOtdNqr1d133z1p0qQlS5Z0/G2cbhyeWu0f1krHWulYKx1rpTMctHJmUtJGW3uOjrXSsVY61krHWulYKx1rpWOtdKyVTlNaOTMpaaOtPUfHWulYKx1rpWOtdKyVjrXSsVY61kqnKa2cmZS00daeo2OtdKyVjrXSsVY61krHWulYKx1rpdOUVsM6M6mumsFgNlRHZjCslY610rFWOtZKx1rpWCsda6VjrXQa1MqfmexDG22ZDdVR/1grHWulY610rJWOtdKxVjrWSsda6Vgrnfy5/jZXSRtt7Tk61krHWulYKx1rpWOtdKyVjrXSsVY6TWnlzKSkjbb2HB1rpWOtdKyVjrXSsVY61krHWulYK52mtHJmUtJGW3uOjrXSsVY61krHWulYKx1rpWOtdKyVTlNaOTMpaaOtPUfHWulYKx1rpWOtdKyVjrXSsVY61kqnKa2cmZS00daeo2OtdKyVjrXSsVY61krHWulYKx1rpdOUVs5MStpoa8/RsVY61krHWulYKx1rpWOtdKyVjrXSaUorZyYlbbS15+hYKx1rpWOtdKyVjrXSsVY61krHWuk0pZUzk5I22tpzdKyVjrXSsVY61krHWulYKx1rpWOtdJrSyplJSRtt7Tk61krHWulYKx1rpWOtdKyVjrXSsVY6TWnlzKSkjbb2HB1rpWOtdKyVjrXSsVY61krHWulYK52mtHJmUtJGW3uOjrXSsVY61krHWulYKx1rpWOtdKyVTlNaOTMpaaOtPUfHWulYKx1rpWOtdKyVjrXSsVY61kqnKa2cmZS00daeo2OtdKyVjrXSsVY61krHWulYKx1rpdOUVs5MStpoa8/RsVY61krHWulYKx1rpWOtdKyVjrXSaUorZyYlbbS15+hYKx1rpWOtdKyVjrXSsVY61krHWuk0pZUzk5I22tpzdKyVjrXSsVY61krHWulYKx1rpWOtdJrSyplJSYO233777Z8H4KC61J2hPFecDQsXLswbs27duvHjx7/22mtxuh8ME537oodWg47XcO5vjOa777774osv/uEPf+BnXC9si7u9Ca0+/fTTZcuW3XDDDStWrNi2bVvcqoPnPv/882+//XacxnO/++67p59+es6cOYsWLaKFP//8c9wNfvzxx9dff33BggXz5s2jSRSO62H7yy+/bN269e677+bRDz74IM2Iu4mODUv93Y9mJ1sa9sorr9Aq2vbyyy/v2bMnrhfQwvXr17/wwgsY5vOKR9NgHk2vGZGi13XScxVS5SiDPqyZ1Y29hG7PPPMMktbv5hTPHcp61ZdtU7tXv7TR1lrpWCsdazUoaRe4/vrri12A/YIFts7mzZurEnvhuRiuXr26KrEXruQVfvPNN0888USxUaY2c7p27Vo2I+Bg0A0FDpbOTc0rZyYlDdoOulv/8MMPS5cu3bhxI8fY5qd9ocyGaAzJSXX+669ENmeeeebHH39cnffPMNG5N+iJqmgbpz20GnS8hnN/YzS/+uqrzz77jIWPn3G9sO0rM8EN77zzzpEjR44dO/akk0467rjjOCbcJ/atSuyFRXzWrFnUfO2118YVnkvWcfzxxx999NHYjhs3bsSIERdeeOHXX38dBXbu3EmDqfCEATig2KZNm8KWCufPn49JPJpKRo0a9cADD4Qtd7s1LGz3r9mhFbvLpEmTeBy20bDJkyfv2LFjwGIf2J/+OADpR8wr9gwGAhPAlmZTed7rjhRj1A3av3z5chpGj6Jf6DN37tyffvqpKvHrrxxzhVszZsyYOnXqscce22Osi+cW87/3clTY8ly2TMgb0w1HRTr62p4GLmGtdKyVzuGgVb4LsIsVuwD7BQt7HRb/KJDguV988cXJJ59cldgLV7geZUhFeMSJJ55ItZdccgkPZWdkf4w2s3ewg8SGEvvRoBsKHCydm5pXwzozqa62lk8++eTsATioLu3LBx98wFQjV+54qsNsqI66s379egK1VDlecf755xO+NDjww5P/+q//yoegh1aDjtewRR9NJgDLojjH/vGPfxx11FG33347Xsnp559/ziMIdl977bUokHjkkUdGjx7NBKNAXNmyZQsrO8ExqS+nNOyhhx468sgjFy1axOmXX3552WWXYfLyyy8PFP//XnnlFU65yC1OKXzEEUekRzNq06ZNwzvef/99Tkm9ejSs992cerMpjJITJkzYsGFDXFm1ahW2FCi0pUlnnXUWG0zUHPOKR7OvXHXVVZ9++imnNOBvf/sbV2699dYBoyGBVqQ6V199NY3kdNeuXTNnzuRK0hBwc5LAp59+mmMaPHv2bLrD9Ii7vSnm/34vR4OirFeGmfPUU08pWrV34WoWzysda9WDYhdAq267QGLx4sWslmnXyGF3wPaBBx6ozveFyqdMmcJWkkZkzZo1lE9bBgec0oA4jZY0sqEcCBqcV/7MZB8atE2vsugRkdYNN9wwZ84cwoh4d7tx40biMGI1fOC222576aWX8tPdu3dT4KabbmKk33777Xnz5mF+3333ffPNN1E57Nmzh0iIOnGYBQsWvPvuu+mtMLaUz993vvjii3jO9u3b4/Szzz4jqCLsoIZbbrklpe/USd4P6aNGBoXKH3vsMYr961//iotAhddff336yIVH00daTlOLYlwpii1dujQ9EQik8jYEVPKf//mfBLgc//zzzzgkPaVTNAZX79HTdCVe+v7pT386/vjjZ82atXr1aq5gnn+EEmXiShovxEFqKqHliJ+exfgWLYnm9YBOsWZRGK3yqiDdAkLkNLLRpLhy1113cZdpsHPnTmzRJB797LPP5h/pptHkuBCEEDnvC8NBZtLjPXrOPffcc9555+Xj0tF8x44dp5xyyh133IF06TOTt956i1yC2R6nQD00MgowvS+++GL6lQT56aefrrjiCmpgFNCZGXjOOefkj6Z38elEHHdrGLY97lbnA9SbjS15Ec24//77owx0fCFNs5csWULqtWLFivSZCReZZvQxfWAFWJGehXkxNBBX1q5dW533ZOXKlaeffnpuvm7dOnKwvF+05KSTTgqVaM/cuXPROc32gEnL1OW5JDb//Oc/k6fnPeUpxXIUZRLFWpf7UVzZtm0bWShPgXx6A6tQWtP4iTunycxzmRUMDXt8FMBH2BTiLhTP7YsW2ca0wQuYV9Wl7uQDV10a4DDRKqFo1Q1rpXPIa1XsAmjVzcWCDz/8cPz48bH/FvBcVmP2iGL3SWzdupX4BE+vzvf6/qWXXrpr166vvvrqzDPPvOqqq9Jn0RxwGt+PiCsdOVg6NzWvhvVnJvsNVVVH/dOgbczmyZMnkxATH7DLcjxixIgnn3ySu+zB7PoETCkzyU8JBZjKFL7mmmsmTpx43XXXxcd806dPjw/yqJySzHjSEuBBhBHM7wj16qEY23weoxANkKhs3ryZ51IJp3GdK/gJpG9Mcuvoo49+7rnncAYqiYvUQ2084sEHH4wrDNypp55K/K0Uo0Cu1fr164855pjly5dX5/u6X3yaSRsIpJYtW4bTHnHEET16mq7wdCL76E5kJohGnfn6EmMUV+K4GC80Jw2IwqwUXMxbwnH6ilEd2kABKsGKOvNmo2fcooWEYqNHj2aU48PiaAblGesrr7ySZx177LGnnXYa0SQ/qerss89mYhDtDTzkN9JocpwLgnSkBzwIKx6EOTWnu1gRxXYkxqu+ytBsplmaLfDjjz/SSOQi+UyJB9T9iOSKmtPcKIipQpe///77jj5Ik1Apj8tzUsM62orN7mjLcDDQlEy+A6QEY8aMefXVVxnQlJnELdofQxzEaEa/8qEJ4kpsaYMORx1MmJ9M7Op8IOinO2vWrCHWZ4bUd0QmM/OBHjElWFI4zpcUmgocFKsTy9Ett9xStWYA5lscMIc3bdqU21IVD6XmKVOm8BS0HTduXJreKI9rMxxkPjgRP0eOHEkxrochbeZZsegxRtSDL6RvL3QcI5HGbe+8807S/vwLbBxzhevxS1PxIoPFhw7iv8yTNDcYtcjB4hTSFWAhZUk844wzUI9T9GcUcpfPryTxi1cq7KdRGMgM4xZwkCeKHRlWOos42taxVjpohYvVd4EgthLWyVj6CngumwWLWLEOJyIimjt3bloZ4j1jxEisw+x6rJNxK+C0x1YYHEStqqP+yZ/rzKSkQdvYMNiDV65cGVfIxSdNmkQ6HptZxCUxZbHNT9NdIum0wRDBEN1GYkNQQs2EXBwzG5jWhJ4XXHBBtIHJ/Uz2ywaReed5efpteKTGMbCN6zziPwZILwC4RQHGBVfBOcP9CIDoyLnnnpv68s477xCr0ap6MVpVL5ZrtWfPHspEe+IKhoQ+d9xxB8eEZYRfSUN6SuBCJfE7CYVokF+JIUg183PQzISgP/Ud5SmfAqOHHnoobwlLEts8wVlHb8QEQ9asCLmo6vbbb4+Uj2lAPEfOkOKtbdu20d9YnqIZDC5JY9xdsmQJPWJZjNfbxSyC/G8b5N1nqjBhUnd4HA9Nd2OSdCSSnLxfxFgbNmyYMGFCsQRTOQrQ/vwjESh8gTaTYzNq77//fnVpX1i+CUkjBC9sIQYiKZBTNKyw7avZ9eeiGKNW7CvRGK4zWPXMpCAygehXPjRBXIkBGnQ4CmJHZCagbXVpb0pPj0gG6PXrr7+eNjwgHj3nnHPwtZCR/sYMidwmJl7HiQREulVrBnj00UfjIP4AQG4bSWZaBAB3RrFYuEjnmNtM6dQwuo9bkU1xHA/NXWP58uUIyPSI0/oY6TRuywKVFqKAacC8il/nowvxSoVhqr9SSTNnwO430hVSkauvvhqVUmZSOBfkV0J8lhQWHJRnUeIYSRmjKEwNZHqUp2HAAY3Mm11nWOks0s0HFdrYX2ulMxTbf//73/VdIMGCxiKQFqgCnovVMcccg3ezAlAS71uwYEH+aoDFIfYInBpXnTNnztixY+N7yx2zGk5ZHAiiqvNOHCytmppXzkxKGrSNDSPC+vwKxJ4d23BMO2zz03SXCR2nEPH67NmzOY4pGxv8oLOB3W78+PHJeaIZsX2i+axZs9LLAContQg4jSCDAjyF9kRgzXVCGTY/IvUpU6ZE7/ArXI7oql6MiKRerNCK63jv+vXr45RgJbb8aECuIRCyhydzXIgG+ZVCcH4OmplE8+IuoFK8nyDmoyWY55+ixihEflgQtyLoBPpLX1h6+BlZZbQ/oHIyjehmNCN/EJXQo1RVFAAO0mmMJuTdZxCJUJk2cQt4aCFXD2JeRf1YHXfccffcc8/3338fdyH/FLsIntL4MoGxJSYjYmbZjYsFyEuodNFFF0WPirlBhEdsx6Qq3hJ1bFiy3Y9m588NGYH0O38ujnDzzTczOjgOpymarPsgSdF999137LHHstOkDwSoMBc/rqSR1aHC+fPnU3luS75Be5h1qM2j46HMtzfeeCNaW0B/aTntj0UmFIMYhXprc4oxym1jMpMXdRxu5iSunedasazFghMPzV2jaEbx3L5o3JYFir7kSzTDkdYxehEvMsKWmUN8E8sap2nm/GY2QH4ljUvMq8K5IL8S4tdfqbDq4juRrObDEYkKF7kVV+oMK51FmoqK+sVa6bTLNhYfKHaBRLxUTe8f6/DcqIQo4s4773zmmWdY6FiiJ02atHPnziiDG7JcH3XUUfEswoAI1ZJtWv2CjhcLDpbOTc0rZyYlDdoWO339Sj7DsC0mXHEKX375JRtM7EZ4AhEPuxFb3aWXXvrKK6908w1gj8yDe8ICQoHIuXku+xlxIX4SH61wChEZR9DAKSXjOKJw4mCCj7fffpv24EURiwAH9WJbt26tFyu0YkLThohOolgkS3UNYe3atfh5BAR1lfIrhTk/6VdeW14gP467sGzZsggXuHj22WfHF8MGvhPxG/Fd/Dw0SRQNy/tb3ArICQk1CDjqzUD/vHxRIB9NyCtnqpx44onUGbeg46O7EasMw4HgTz31FP1lSWUVjvfZLMqRtcbEK4Kn1F+ax3J81113cZchLtb3yHhROFULuVZEUQxZ3RA6NizZ7kez8+fGJxgrVqwgtaZ5q1atiuuvvvoqc4CZH6cpmixW5HBPMoe///3vpChxsS5+XAn/0qGdl19+ebQqtZkn0lPaRp3cTZ8R0RE6mB5B9//5z3/OmDEDl2TaxN9MiwlczKt6a3NyraCw3bBhAy0ZOXIkY4cHfZr9xWek5rn5nMyXtfpDiyvFc/uicdt4b5I+U42FKz6Silux6ibbeFsReVeaOXEL8iv7kZlwWrxSISfHa2JBTm8uAk5jza/OawwrnUWaior6xVrptMs2doE77rij2AUS69evJxSJz3s7wnMBb2VBqC4N/MZgChvSuk3llCEGXrJkCc969tlnMayvh9DxYgG21VH/DMW2qXnlzKSkQdtit65fyWcYtsWEK04Bq6lTpxJVRKxDVPfRRx/deOONY8eOpSSz+fnnn4+SObFfxucecYUwJW1jPDeFtmyHp5xyCqfAnspPLnKLA0rGXkvyEL1gf8XfuMIBo0b52HHrxeJKUazQirbNnTs3vprC43DU+O4HWz4bf1Is+OCDD9hW47tedZXyK9GGZM7PfjMTUqx4CcrFemYSxJdhCoqG5f0lXC7aDMTuSE0gXm9G78wkH01Iz2WSMFV6ZCax7HYkRry+yhBaoUb6lh3jlV7EFsFTMb6AdyN+CuOAFrI6s0bPnz8/8oQg2SI7gmPVI4QKUsPqzwWx2R1taRhZDfMNNZicp512Gm1OrpSiyUIrZm/+xb8gFz+IK5E2DDocwbZt29gmU6qW2szuyB5JTzl+//33WROinbQkGs91lJ8+fTrBMe5JtY8++ihlOOUnd4t5VbRW/zZXlP/uu+/oF8ONDiQ/rAA8PeZkkZlgkpa1bhKlKx3HSORA2MZAx3uByAFifcsFSbYMWXqlkmZO3IL8yn5kJvGsuAskhCTG1BNVnXHGGdVqNQCnxdMLhpvOCvX1SqeN/bVWOkPUKt8Fqqt7g5b8nW+djs+NQOiaa66hBvY49qbHHnusurc3YKMAYXA4b/GlDE65+M4771TnnTiIWlVH/ZM/15lJSYO29Q2juJJvutgWe3Cc5pOyvj8FzAaYNm1a4TkBEQ9WEf0AzkBsHR9ccMpzo1VExuyp8e3w9OHJwn3/OSM7JQXeeuutCRMm4BjYxqcib7zxRvybv47FuFIvVtcZF8Xf2OkjdoxvzxeKBcQBlOQpHBeiQX6lMOfnoJlJKBB3IYUL33//PQpHyepeT4qG5f0tbgUMK8PEEEcz8gcxEHn5vEAxmpBXTp1FZsJ0SnejZEfoNTW/9957H3/8caoZ0gyMNlSla1DzJ598wlQsftE29ZFj6ucphMUsyhxHgSC0il9JmjlzZvoPjAGFWSi6NYxbPe72bjY6k0WTtBQ7TZoDPRRjXqXxApLV+MXx6nyAMA/xg7gSvtmj8pjqQNsmTpzIPNy1a1dcSfOKMklbwInQlvyB/t58882hMK0iSUi7ILaInFwpn1ecFq1FvWhMQShT2OawqT/88MOE75EZUk+RmaTR4bh4KBRX6uuGzoGwZZlisYrfEEPzPAlMr1SSbfwRiNAhTaq4BfkVfsa4RG25REF+paP4eDoTgEU1qioyEyh+/75guOmsUN/7dNrYX2ul05dtsQuEVnWHjQQjvujRjY7PDcNuKx5wC+/+6KOPYsWof+DJEro9+5J2nYOlc1PzyplJSYO29Q2juJJPSmyLORqn+R9tSNsVx9u2bVuzZg0uxHHMBsoXnhMQx48dOzZdD6+ISiDazFy/6KKLLrvssuRmHMyYMWP69Omxjwbr1q3DYRYvXkwN1IMtlbMxz58/P38XXhTjSr1YXecQ5+KLLz7vvPPyXtOS9OXs4IEHHjhy72+ARbCV8jesFixYkGQsBCe7OPvss/Pcg5k2bty4KAAc5M+iNuJ++hKfSLCXFy2hd4TvMQoF8clP6kiML88iPStuQaSC9J2qohnRpLjbIzMpRhNi2kRhrkd0Erd4HA/Nq+oBhZkPrIDMtOrSXrkYEe7irYRHiY0bN5IFXXnllRzTC9qc//I9EKFSYZoSzz777LHHHksimkRIoFWE4CzQe2q/8k55BqVbw2hVj7u9mw3hYvHb7WHLATOK8WLU6FcUS1CS8ngi06DekYJuczVXqQfxiQezN/eddLxs2bJ8u0Jtok8qn5D9ggHjTmvTyzakoP2UiflTTLx8ItUp/De3ZchefvnlfOOMu7ETE74zMfLvP7BcMEu5znH9ocWV4rl9cYBsWSGJHpge+G9y6lyQZJsv4Pwsluv8SioZazszLeUhQX4lnlV/pRKfmeQf1OgMQ50HxdG2jrXqQXhf2gXQKt8FogzEa53eqzeb3X/+53+efvrp+Tda88/wCWMIZvJKfhr4zIR1e8uWLRxfNfBHSlmr4y4HnPb+JTE4WDo3Na/Ysp2Z7EODtvnm1PFKTMq//OUvX3755a5du/JTAovYkomoCGh+/vlnxCF+wjc+/PBDbAnpYjunKoIA4rBp06ZNnjw5Pmr4/7d3tj9WVWcf/ucegXFq1aJESyUYzVQICbXFVKgVIxIVq2KCraZqbBtav9jWkqmkWv0gikQzxDqJlZCUqFTlQwO+RIOBPL/OOuxs1plz5hpmt53NXNcHsl/Wvdc+19732us+L0wOlYdlmbun6sit3PycOlmR6XX+LavlnNMyOZYnWTNtSqqkWbtlyNVJF6lzygeRiU3XSaE0a5f1VbNsGW6W4w/Pe/bv359ZS86kmUyHd999N4F33nlnXlqOlgdtHsnN1+jLLD/FzMcff1zenb311ltjphw5U8lMF9J1DlLewN65c+fExMSf/vSnNE4WZa6co5UrErKQE0ib2I7zV155JSfTvOX81ltvpa94LumXf7Ociqt816iEl0NlNQPH/fffn/A//OEPqYhee+21nEYZYppdsZ1evvjiiwyCzTlXxwmVq3aD6mqGctuUxhlhc03bcvJim44WJGceV/GZ42QmlH+znCG13V1DNXnKqFq+m5uDZFcmx+VnUWW4j4SoSIPcxuVLQYXy1aDsTbOceWbbgx0XKA+GyBx1Ygkfs7ecW5v2aSe2/Aol4U899VQua8hCVpN6EVhC2jSzyWpEfvjhhzNTLMnYMOpeHf9sa0izjA/JoIGLOZ5//vnyo5cMCzl4Mi72spqu86IivLkEuVvKNwdyP+dllrvu9ttvz/2Th24uSnXjVcPRv8+gRRk3Gtqx5eOCpMbx48dzeycHywc4pfaI0u9+97u5+mWQr5KoffcWqi1Vv4viPxSbq5+pfxxef/317YqreUuliS1XsAzL5QdsTZUYwxmLyr2U1fyb5aYyySXI6NEMp+GNN96I0nZlUvoqe9Ms9XlK7n/+85/lXY/mP2QrvP/++//4xz9ydQbrQyxDzwtS5eCi6OPr1RVnUbHVUyDP/XmfAhmUMsBmejZYv0B7MEy/5Xl0xx13ZPzPOHz48OHk8k0X/hf18ijMbC3NmtEy7TM4l5E825PpeXqmfUjKZ2SY91nW5n/luav7ysqkpsPY9g0675byJmieu7nV8rhqr+bJVB7Jv/3tbzdt2pSFkOdfkwbJkPJsK7tC7u9MBcre5nFeeswzsmwPedo171uHcs7lG1+Z2TRvCZR32totQ3ng5chlkpHYzLlzzs3jtlA1C8PN5q1MclsnRRs/DUnmzF3SPqxatSpJ3nybJX1FUVI3uzJM3HXXXekiWpojHzx4MHmeveUpnlGm8pntpcfiKiXQr3/96/YBy4c8Ia83M4nmTLL3tttua5yX8HKosiWTv5jPCZf27QuUXZkglhMLqT+np6fLtGP4OGMqk+pqhubSZ7nIaW6SvPC//OUvbTnjST35+uuvN6835Dz/+te/lvOsaE/xQ1xlTM9Q3rz8vNjM3sr0qEy8yvY22ZhdH374YV7dYNPFlLd+cwKjTiz9jtk7d2oXUVUm+fezzz7LVWsuTc4/90DZNcyoyiQHzGFz8MH6HDmBee9VWJnkmOWUKhrn7TQpN+ff/va35g7MqWbQyCUoq/l3+/btOcPc8FmN8CzP3VaDG68ajkoXDZWQ6qbNfZ7ecw4JD3nJzzzzTPNQz6tu9lZJ1L57C9WWUReC8B+KzS2deX8Gt/bnxqF5SyVVei59RtTMSJq3VCIhIffee29CMho8/vjjGR8a1aWI3blzZ8arTFZCpko5Wi7xN998k0Ol7l23bl259EX+8Fsqu3fvLvd8xuHszVwnHWVvBr0cKnOdMW+7LkPPC+Jsm6Or8ZCnQDP4D9Yv0B4ME5IczMM9z6ByqGrEC5nMtB+UGS0zGmRUKd0lPA+vzFXK3jHPsjb/TVdtrEzGkUMNlhbPfzk2d1hedR48JbZZzXL7kXz69OlTp04Nv8VV2s/MzJSQYRKSwPIsLORQCWnu7GXlqlQm7T+52KZIyPxmODYbq5fZJnKal1wyZ5TPhnkP2PSb7ZnGjXJeUQ6V2fZgvUXZVT7MGcMYz9XVHCaxsJdhmlGmvN5ReuelOefS+/iTrBjzeiuGT6wdu9jTbseWxAljbpI2fEQevrX46x1mODYXuro58xLa3WVXabBgv2V4mfc+r2Jz/OZhPNh0oaPhS19cpWV1noRuXXHGxx44cCATjlI2t6neUsn8o3lLJbdBu0rM8sGDB5uJTvaWL+OF8ggohU3ZkoUjR47EdrsyGX5LpbkncwNkUM3BS3jmWz/72c9SpZS987I8PY+H5+AwfXy9uuJcWmx5Chw9ehQ+BRqOHTuWZE9itvsdHpnbDD8o27FlKB4eS0fxv/Lc1X1lZVKzfGKrNwvHcHmMMkm5ffv2fe9732t/I3NeltKvIzJHV5wV7qpMjrfO/an7wabRXH6uUpmsXbu2/Qu0NidOnMicIzOPwXqLUryNmqxkKtM+JpmdlPlNqQ+rcy7h2UumWcvT83gcrzi64lyCq/3795cvquiK0+7XyqRm+cSunMokD+DHHnts8+bNk5OTBw8eHGwdzVL6dUTm6Iqzkl29+uqr27dvn5iYKA/jBbnMXOWxNTU1tWvXrlFfjlpKv+YgR1ccXXEW66q8BVDebtAVp92vlUnN8ok91PoV+3j6PsqkMtm2bdvtt9/+5ptvjnk7sGEp/Toic3TFWcmupqenN2zY8NBDD8EDXjauZmdn77333htvvLH5Peu8LKVfc5CjK46uOLridOXKyqSmj7FmDkdXHF1xdMW5bFzNzMxs3LjxgQceKP+x2Ch0xdEVR1ccXXGWgysrk5o+xpo5HF1xdMXRFUdXHF1xdMXRFUdXnK5cWZnU9DHWzOHoiqMrjq44uuLoiqMrjq44uuJ05crKpKaPsWYOR1ccXXF0xdEVR1ccXXF0xdEVpytXViY1fYw1czi64uiKoyuOrji64uiKoyuOrjhduVrWlUlepBA++eSTwZIshK44uuLoiqMrjq44uuLoiqMrToeu/MzkIvoYm6s4WFo8uuLoiqMrjq44uuLoiqMrjq44uuK0+/XbXDV9jDVzOLri6IqjK46uOLri6IqjK46uOF25sjKp6WOsmcPRFUdXHF1xdMXRFUdXHF1xdMXpypWVSU0fY80cjq44uuLoiqMrjq44uuLoiqMrTleurExq+hhr5nB0xdEVR1ccXXF0xVmxrmZmZl4czbFjx0qzNpfm6pNPPrnxxht/8pOfDNYXT+88nz179o9//OPevXv37Nnz8ssvf/HFF4Md83H+/Pnjx48//fTTu3fvfu655z766KOm36+++urVV18dXJILZEu2lwbDfPrpp6+//vqYrtPd7OzsSy+9NPzqMpcetWtBluK5qxy0MqnpY6xPL46uOLri6IqjK46uOCvW1T333PN/o8lEuTRr07j6+uuvn3nmmcxiy+p4VlplcvLkyampqVWrVq2bIws33HDDe++9N9h9MalhHnnkkSuuuOI73/lOmk1OTk5MTMRt2VvUDS7JBbIl20uDinR9yy23jOk6hUoqlmz/9re//c477wy2zpFd991337y7CEvx3FUOWpnU9DHWpxdHVxxdcXTF0RVHVxxdhZdffjlT3vw7WB9B4yoz4Ex5F2xfWFGVyTfffHPXXXdde+21f/7zn8uWo0ePZjUbs6tsaXPgwIHVq1c/9dRT586dy+qZM2e2bt2aoqKoToWQOuGFF16Ya7sApetrrrnm7bffLluqrlOirF+//tZbb01RWpUfZdfNN988vAuyFM9d5aCVSU0fYx2RObri6IqjK46uOLri6CrMW5lkrvzKK6/cf//9u3fv3rt3b2arJ06cyPbZ2dkf//jHa9as+cEPfvDYY4+dPn26arxnz56ZmZnz58/PHWZlVSaxsW3btoceeqi4CqkKtm/fvmXLls8//7xsafP0009v2rSp/RlI6pCrrrqq1AalMoEVYOk6/hvzVde5QI8++uhXX32VTqvyo+z6+OOPh3dBluK5qxy0MqnpY6wjMkdXHF1xdMXRFUdXHF2F4crkzJkzP/zhDycnJ3fu3Pnss89u3rx59erVmbyWXymkJkn7pjI5e/ZsJsRpvGPHjiyUxpnjlinyiqpMGpr76uuvv07BsHXr1i+//LJsGc9zzz139dVXl2/KHTlyJFZhZVJon3PVdarHckWGy4+yK7FWJhVWJpfCUmIdkTm64uiKoyuOrji64ugqDFcmmR9PTExMT0+X1Uxb9+3blxlz+dFC1f7o0aOZzu7fv7+slq8VrV+//tSpU1ld4ZVJqovIic+yOp7MZqemplLyld+4x/C3vvWtVAsp9q699tpo3Lt372effVYaz0v7nEd1Par8SKyVSYWVyaWwlFhHZI6uOLri6IqjK46uOLoKVaVR3mvfuHFjZlZlS8g098orryzT3Kr9MO0J7kquTGZnZ2+44YYf/ehH836Vq+LMmTM7duxYu3bt4cOHy5bi+ZprrnnyySdffPHFPXv2TE5Obtiw4eTJk6XBMM05j+nayoRjZXIpLCXWEZmjK46uOLri6IqjK46uQlVpZC67ZY72pDYz3cxZM3PN8nBlkvLjiSee2Lp1a2bD4eqrr17hlcmJEyfiJxJSbKTkGGwdzQcffDA1NRV18dz0m4XYS6FYVsP09PSaNWvKVZiXhJw/f35811YmHCuTS2EpsY7IHF1xdMXRFUdXHF1xdBWqSiPT2e9///tVZXLy5Mnrr7/+5z//eZar9uX/gEr58Zvf/Kb8zY277757JVcm586de/TRR1NCPPLII2fPnh1sHc3bb7+9du3aVCblw5Ax/Wauu3HjxugtvxgZJg1SXYzv2sqEY2VyKSwl1hGZoyuOrji64uiKoyuOrkJVacz7mUlmq+U3D1mu2u/ateu6665rT8B++ctfrtjKJDVDLF155ZW///3vR9UPbUpdt3PnzuavIo7pt1Qm99xzz2D9YtLd448/Pjk5Ob5rKxOOlcmlsJRYR2SOrji64uiKoyuOrji6ClWlEfbs2ZPpcvuP9L3wwgurV68+dOhQlqv2mShv3ry5KWMyJZuamlqxlcnBgwevuuqqX/3qV6Qs+eCDD2666aYIbP9Z99LvuXPnHnjggVtuueWjjz4q28ORI0dSH5ZProZJ19l74MCB8V1bmXCsTC6FpcQ6InN0xdEVR1ccXXF0xdFVGK5M3n333VQmd95556lTpzLNnZ2dXb9+/aZNm0r5kfpkzZo1v/jFL7L37NmzmShnQvzSSy+lZXzu2LFj27Ztk5OTb7zxRhqvqMqkVGU333xzKpPyxbZC5JSjFRvlQ4/o2rdvX8qYZ599dtBujueff/7YsWNp8Nprr01MTNxxxx1ZTeDhw4dzFVLJpJ75d2cX1xil6w0bNqQyGRxojqbrmZmZsuXuu+/O1Ulss7fsSr/Du+b6WZhLcNXQVQ5amdT0MdYRmaMrjq44uuLoiqMrjq7CcGUSMg/ONDfbw6pVq1JvHD16tOw6M/enyrO9TItPnjyZoqW0zJbf/e53f//739etW5fVzHFXVGUSGzFQVLRp6od2ZVK+NTdocTHxlgYpXaanp6+77rqy8YorrrjtttuOHz/+757maFcmC3adTgebWpS9Y3bN9bMwS/HcVQ5amdT0MdYRmaMrjq44uuLoiqMrjq7Gc/r06fLBSJbbrjJpztSr/d9GlZbnzp0brF/MSnDVZsx9dejQoV27dg1W5mO437hNSdO2XciWn/70p+364TJztSDtfq1MavoY64jM0RVHVxxdcXTF0RVHVxxdcUa5SkX34IMPjv/Di7zf9957b8uWLZkAD9YvL1eEdr/LujIZbJWFyN0wWJKF0BVHVxxdcXTF0RVHVxxdcUa5ymQ1M9VPP/10sL40PvzwwxMnTgxWekuH95WfmVxEH2NzNwyWFo+uOLri6IqjK46uOLri6IqjK46uOO1+l/VnJpdMDjVYWjx9jDVzOLri6IqjK46uOLri6IqjK46uOF25sjKp6WOsmcPRFUdXHF1xdMXRFUdXHF1xdMXpypWVSU0fY80cjq44uuLoiqMrjq44uuLoiqMrTleurExq+hhr5nB0xdEVR1ccXXF0xdEVR1ccXXG6cmVlUtPHWDOHoyuOrji64uiKoyuOrji64uiK05UrK5OaPsaaORxdcXTF0RVHVxxdcXTF0RVHV5yuXFmZ1PQx1szh6IqjK46uOLri6IqjK46uOLridOXKyqSmj7FmDkdXHF1xdMXRFUdXHF1xdMXRFacrV1YmNX2MNXM4uuLoiqMrjq44uuLoiqMrjq44XbmyMqnpY6yZw9EVR1ccXXF0xdEVR1ccXXF0xenKlZVJTR9jzRyOrji64uiKoyuOrji64uiKoytOV66sTGr6GGvmcHTF0RVHVxxdcXTF0RVHVxxdcbpyZWVS08dYM4ejK46uOLri6IqjK46uOLri6IrTlSsrk5o+xpo5HF1xdMXRFUdXHF1xdMXRFUdXnK5cWZnU9DHWzOHoiqMrjq44uuLoiqMrjq44uuJ05crKpKaPsWYOR1ccXXF0xdEVR1ccXXF0xdEVpytXViY1fYw1czi64uiKoyuOrji64uiKoyuOrjhdubIyqeljrJnD0RVHVxxdcXTF0RVHVxxdcXTF6crVsq5MBltlIXI3DJZkIXTF0RVHVxxdcXTF0RVHVxxdcTp05WcmF9HH2NwNg6XFoyuOrji64uiKoyuOrji64uiKoytOu1+/zVXTx1gzh6Mrjq44uuLoiqMrjq44uuLoitOVKyuTmj7GmjkcXXF0xdEVR1ccXXF0xdEVR1ecrlxZmdT0MdbM4eiKoyuOrji64uiKoyuOrji64nTlysqkpo+xZg5HVxxdcXTF0RVHVxxdcXTF0RWnK1dWJjV9jDVzOLri6IqjK46uOLri6IqjK46uOF25sjKp6WOsmcPRFUdXHF1xdMXRFUdXHF1xdMXpypWVSU0fY80cjq44uuLoiqMrjq44uuLoiqMrTleurExq+hhr5nB0xdEVR1ccXXF0xdEVR1ccXXG6cmVlUtPHWDOHoyuOrji64uiKoyuOrji64uiK05UrK5OaPsaaORxdcXTF0RVHVxxdcXTF0RVHV5yuXFmZ1PQx1szh6IqjK46uOLri6IqjK46uOLridOXKyqSmj7FmDkdXHF1xdMXRFUdXHF1xdMXRFacrV1YmNX2MNXM4uuLoiqMrjq44uuLoiqMrjq44XbmyMqnpY6yZw9EVR1ccXXF0xdEVR1ccXXF0xenKlZVJTR9jzRyOrji64uiKoyuOrji64uiKoytOV66sTGr6GGvmcHTF0RVHVxxdcXTF0RVHVxxdcbpyZWVS08dYM4ejK46uOLri6IqjK46uOLri6IrTlSsrk5o+xpo5HF1xdMXRFUdXHF1xdMXRFUdXnK5cLevKZLBVFiJ3w2BJFkJXHF1xdMXRFUdXHF1xdMXRFadDV35mchF9jM3dMFhaPLri6IqjK46uOLri6IqjK46uOLritPv121w1fYw1czi64uiKoyuOrji64uiKoyuOrjhdubIyqeljrJnD0RVHVxxdcXTF0RVHVxxdcXTF6cqVlUlNH2PNHI6uOLri6IqjK46uOLri6IqjK05XrqxMavoYa+ZwdMXRFUdXHF1xdMXRFUdXHF1xunJlZVLTx1gzh6Mrjq44uuLoiqMrjq44uuLoitOVKyuTmj7GmjkcXXF0xdEVR1ccXXF0xdEVR1ecrlxZmdT0MdbM4eiKoyuOrji64uiKoyuOrji64nTlysqkpo+xZg5HVxxdcXTF0RVHVxxdcXTF0RWnK1dWJjV9jDVzOLri6IqjK46uOLri6IqjK46uOF25sjKp6WOsmcPRFUdXHF1xdMXRFUdXHF1xdMXpypWVSU0fY80cjq44uuLoiqMrjq44uuLoiqMrTleurExq+hhr5nB0xdEVR1ccXXF0xdEVR1ccXXG6cmVlUtPHWDOHoyuOrji64uiKoyuOrji64uiK05UrK5OaPsaaORxdcXTF0RVHVxxdcXTF0RVHV5yuXFmZ1PQx1szh6IqjK46uOLri6IqjK46uOLridOXKyqSmj7FmDkdXHF1xdMXRFUdXHF1xdMXRFacrV1YmNX2MNXM4uuLoiqMrjq44uuLoiqMrjq44XbmyMqnpY6yZw9EVR1ccXXF0xdEVR1ccXXF0xenK1bKuTAZbZSFyNwyWZCF0xdEVR1ccXXF0xdEVR1ccXXE6dOVnJhfRx9jcDYOlxaMrjq44uuLoiqMrjq44uuLoiqMrTrtfv81V08dYM4ejK46uOLri6IqjK46uOLri6IrTlSsrk5o+xpo5HF1xdMXRFUdXHF1xdMXRFUdXnK5cWZnU9DHWzOHoiqMrjq44uuLoiqMrjq44uuJ05crKpKaPsWYOR1ccXXF0xdEVR1ccXXF0xdEVpytXViY1fYw1czi64uiKoyuOrji64uiKoyuOrjhdubIyqeljrJnD0RVHVxxdcXTF0RVHVxxdcXTF6cqVlUlNH2PNHI6uOLri6IqjK46uOLri6IqjK05XrrqvTP71r/8HOa62HVDinQkAAAAASUVORK5CYII=;" vertex="1" parent="1">
          <mxGeometry x="490" y="391.78" width="260" height="143.91" as="geometry" />
        </mxCell>
        <mxCell id="1zaY6Ha-qX9hshtsLtst-14" style="edgeStyle=orthogonalEdgeStyle;rounded=0;orthogonalLoop=1;jettySize=auto;html=1;" edge="1" parent="1" source="1zaY6Ha-qX9hshtsLtst-13" target="1zaY6Ha-qX9hshtsLtst-10">
          <mxGeometry relative="1" as="geometry" />
        </mxCell>
        <mxCell id="1zaY6Ha-qX9hshtsLtst-15" style="edgeStyle=orthogonalEdgeStyle;rounded=0;orthogonalLoop=1;jettySize=auto;html=1;" edge="1" parent="1" source="1zaY6Ha-qX9hshtsLtst-13" target="1zaY6Ha-qX9hshtsLtst-2">
          <mxGeometry relative="1" as="geometry" />
        </mxCell>
        <mxCell id="1zaY6Ha-qX9hshtsLtst-13" value="usage of the program" style="rhombus;whiteSpace=wrap;html=1;" vertex="1" parent="1">
          <mxGeometry x="280" y="461.78" width="80" height="80" as="geometry" />
        </mxCell>
      </root>
    </mxGraphModel>
  </diagram>
</mxfile>
